<?xml version="1.0" encoding="UTF-8" standalone="no"?>
<!-- Created with Inkscape (http://www.inkscape.org/) -->

<svg
   width="110"
   height="110"
   viewBox="0 0 29.104166 29.104167"
   version="1.1"
   id="svg1"
   xml:space="preserve"
   inkscape:version="1.4.2 (ebf0e940d0, 2025-05-08)"
   sodipodi:docname="menu-footer-button-about-teal.svg"
   xmlns:inkscape="http://www.inkscape.org/namespaces/inkscape"
   xmlns:sodipodi="http://sodipodi.sourceforge.net/DTD/sodipodi-0.dtd"
   xmlns:xlink="http://www.w3.org/1999/xlink"
   xmlns="http://www.w3.org/2000/svg"
   xmlns:svg="http://www.w3.org/2000/svg"><sodipodi:namedview
     id="namedview1"
     pagecolor="#ffffff"
     bordercolor="#000000"
     borderopacity="0.25"
     inkscape:showpageshadow="2"
     inkscape:pageopacity="0.0"
     inkscape:pagecheckerboard="0"
     inkscape:deskcolor="#d1d1d1"
     inkscape:document-units="px"
     inkscape:zoom="8"
     inkscape:cx="52.8125"
     inkscape:cy="53.3125"
     inkscape:window-width="1440"
     inkscape:window-height="1742"
     inkscape:window-x="0"
     inkscape:window-y="0"
     inkscape:window-maximized="0"
     inkscape:current-layer="svg1"
     showgrid="true"
     showguides="false"><inkscape:grid
       id="grid2"
       units="px"
       originx="0"
       originy="0"
       spacingx="0.26458333"
       spacingy="0.26458333"
       empcolor="#0099e5"
       empopacity="0.30196078"
       color="#0099e5"
       opacity="0.14901961"
       empspacing="5"
       enabled="true"
       visible="true" /></sodipodi:namedview><defs
     id="defs1"><rect
       x="23.864854"
       y="79.372735"
       width="20.948037"
       height="6.0987956"
       id="rect1" /><linearGradient
       id="linearGradient36"
       inkscape:collect="always"><stop
         style="stop-color:#67cecd;stop-opacity:1;"
         offset="0"
         id="stop35" /><stop
         style="stop-color:#489bab;stop-opacity:1;"
         offset="1"
         id="stop36" /></linearGradient><linearGradient
       id="linearGradient31"
       inkscape:collect="always"><stop
         style="stop-color:#3c7193;stop-opacity:1;"
         offset="0"
         id="stop31" /><stop
         style="stop-color:#4ba1b0;stop-opacity:1;"
         offset="1"
         id="stop32" /></linearGradient><linearGradient
       id="linearGradient19"
       inkscape:collect="always"><stop
         style="stop-color:#0797ca;stop-opacity:1;"
         offset="0.33670768"
         id="stop19" /><stop
         style="stop-color:#095b79;stop-opacity:1;"
         offset="1"
         id="stop20" /></linearGradient><linearGradient
       id="linearGradient3"
       inkscape:collect="always"><stop
         style="stop-color:#ffffff;stop-opacity:0.53333336;"
         offset="0"
         id="stop3" /><stop
         style="stop-color:#ffffff;stop-opacity:0.33333334;"
         offset="1"
         id="stop4" /></linearGradient><linearGradient
       id="linearGradient11"
       inkscape:collect="always"><stop
         style="stop-color:#03233a;stop-opacity:1;"
         offset="0"
         id="stop11" /><stop
         style="stop-color:#145f72;stop-opacity:1;"
         offset="1"
         id="stop12" /></linearGradient><linearGradient
       id="linearGradient6"
       inkscape:collect="always"><stop
         style="stop-color:#035e8a;stop-opacity:1;"
         offset="0"
         id="stop5" /><stop
         style="stop-color:#33f4e7;stop-opacity:0.94901961;"
         offset="1"
         id="stop6" /></linearGradient><inkscape:path-effect
       effect="fillet_chamfer"
       id="path-effect7"
       is_visible="true"
       lpeversion="1"
       nodesatellites_param="C,0,0,1,0,1.3078761,0,1 @ C,0,0,1,0,1.3089094,0,1 @ C,0,0,1,0,1.3078762,0,1 @ C,0,0,1,0,1.309943,0,1"
       radius="0"
       unit="px"
       method="auto"
       mode="C"
       chamfer_steps="1"
       flexible="false"
       use_knot_distance="true"
       apply_no_radius="true"
       apply_with_radius="true"
       only_selected="false"
       hide_knots="false" /><inkscape:path-effect
       effect="fillet_chamfer"
       id="path-effect6"
       is_visible="true"
       lpeversion="1"
       nodesatellites_param="F,0,0,1,0,0,0,1 @ F,0,0,1,0,0,0,1 @ F,0,0,1,0,0,0,1 @ F,0,0,1,0,0,0,1"
       radius="0"
       unit="px"
       method="auto"
       mode="F"
       chamfer_steps="1"
       flexible="false"
       use_knot_distance="true"
       apply_no_radius="true"
       apply_with_radius="true"
       only_selected="false"
       hide_knots="false" /><inkscape:path-effect
       effect="fillet_chamfer"
       id="path-effect5"
       is_visible="true"
       lpeversion="1"
       nodesatellites_param="IF,0,0,1,0,0,0,1 @ IF,0,0,1,0,0,0,1 @ IF,0,0,1,0,0,0,1 @ IF,0,0,1,0,0,0,1"
       radius="0"
       unit="px"
       method="auto"
       mode="F"
       chamfer_steps="1"
       flexible="false"
       use_knot_distance="true"
       apply_no_radius="true"
       apply_with_radius="true"
       only_selected="false"
       hide_knots="false" /><linearGradient
       id="linearGradient1"
       inkscape:collect="always"><stop
         style="stop-color:#33f4e7;stop-opacity:0.94901961;"
         offset="0"
         id="stop1" /><stop
         style="stop-color:#019ae0;stop-opacity:0.94901961;"
         offset="1"
         id="stop2" /></linearGradient><inkscape:path-effect
       effect="fillet_chamfer"
       id="path-effect3"
       is_visible="true"
       lpeversion="1"
       nodesatellites_param="C,0,0,1,0,4.863755,0,1 @ C,0,0,1,0,4.863755,0,1 @ C,0,0,1,0,4.8636613,0,1 @ C,0,0,1,0,4.8657959,0,1"
       radius="0"
       unit="px"
       method="auto"
       mode="C"
       chamfer_steps="1"
       flexible="false"
       use_knot_distance="true"
       apply_no_radius="true"
       apply_with_radius="true"
       only_selected="false"
       hide_knots="false" /><inkscape:path-effect
       effect="fillet_chamfer"
       id="path-effect2"
       is_visible="true"
       lpeversion="1"
       nodesatellites_param="F,0,0,1,0,0,0,1 @ F,0,0,1,0,0,0,1 @ F,0,0,1,0,0,0,1 @ F,0,0,1,0,0,0,1"
       radius="0"
       unit="px"
       method="auto"
       mode="F"
       chamfer_steps="1"
       flexible="false"
       use_knot_distance="true"
       apply_no_radius="true"
       apply_with_radius="true"
       only_selected="false"
       hide_knots="false" /><inkscape:path-effect
       effect="fillet_chamfer"
       id="path-effect1"
       is_visible="true"
       lpeversion="1"
       nodesatellites_param="F,0,0,1,0,12.263458,0,1 @ F,0,0,1,0,0,0,1 @ F,0,0,1,0,0,0,1 @ F,0,0,1,0,0,0,1"
       radius="0"
       unit="px"
       method="auto"
       mode="F"
       chamfer_steps="1"
       flexible="false"
       use_knot_distance="true"
       apply_no_radius="true"
       apply_with_radius="true"
       only_selected="false"
       hide_knots="false" /><inkscape:path-effect
       effect="fillet_chamfer"
       id="path-effect3-7"
       is_visible="true"
       lpeversion="1"
       nodesatellites_param="F,0,0,1,0,4.863755,0,1 @ F,0,0,1,0,4.863755,0,1 @ F,0,0,1,0,4.8636613,0,1 @ F,0,0,1,0,4.8657959,0,1"
       radius="0"
       unit="px"
       method="auto"
       mode="F"
       chamfer_steps="1"
       flexible="false"
       use_knot_distance="true"
       apply_no_radius="true"
       apply_with_radius="true"
       only_selected="false"
       hide_knots="false" /><inkscape:path-effect
       effect="fillet_chamfer"
       id="path-effect3-75"
       is_visible="true"
       lpeversion="1"
       nodesatellites_param="C,0,0,1,0,4.863755,0,1 @ C,0,0,1,0,4.863755,0,1 @ C,0,0,1,0,4.8636613,0,1 @ C,0,0,1,0,4.8657959,0,1"
       radius="0"
       unit="px"
       method="auto"
       mode="C"
       chamfer_steps="1"
       flexible="false"
       use_knot_distance="true"
       apply_no_radius="true"
       apply_with_radius="true"
       only_selected="false"
       hide_knots="false" /><linearGradient
       inkscape:collect="always"
       xlink:href="#linearGradient1"
       id="linearGradient2"
       x1="4.8752956"
       y1="56.075455"
       x2="110.25435"
       y2="56.075455"
       gradientUnits="userSpaceOnUse"
       spreadMethod="repeat" /><linearGradient
       inkscape:collect="always"
       xlink:href="#linearGradient6"
       id="linearGradient4"
       x1="14.534451"
       y1="1.2646005"
       x2="14.534451"
       y2="27.845228"
       gradientUnits="userSpaceOnUse"
       gradientTransform="matrix(0.99933045,0,0,0.99866807,0.02736406,0.01655407)" /><linearGradient
       inkscape:collect="always"
       xlink:href="#linearGradient1"
       id="linearGradient5"
       x1="27.78129"
       y1="14.552082"
       x2="1.3228803"
       y2="14.552082"
       gradientUnits="userSpaceOnUse" /><linearGradient
       inkscape:collect="always"
       xlink:href="#linearGradient11"
       id="linearGradient12"
       x1="14.558857"
       y1="2.6487856"
       x2="14.558857"
       y2="26.453777"
       gradientUnits="userSpaceOnUse" /><linearGradient
       inkscape:collect="always"
       xlink:href="#linearGradient3"
       id="linearGradient7"
       x1="5.2574716"
       y1="7.0191703"
       x2="23.860237"
       y2="22.083393"
       gradientUnits="userSpaceOnUse" /><filter
       id="white-shadow"
       x="0"
       y="0"
       width="1"
       height="1"><feDropShadow
         dx="0"
         dy="0"
         stdDeviation="0.5"
         flood-color="#ffffff" /></filter><linearGradient
       inkscape:collect="always"
       xlink:href="#linearGradient19"
       id="linearGradient20"
       x1="14.064451"
       y1="7.2961135"
       x2="17.882763"
       y2="20.731663"
       gradientUnits="userSpaceOnUse"
       gradientTransform="matrix(0.82101765,0,0,0.82101765,1.6129036,2.8625933)" /><linearGradient
       inkscape:collect="always"
       xlink:href="#linearGradient31"
       id="linearGradient32"
       x1="14.822125"
       y1="5.0363903"
       x2="15.280301"
       y2="9.6902208"
       gradientUnits="userSpaceOnUse"
       gradientTransform="translate(0,-0.04960937)" /><linearGradient
       inkscape:collect="always"
       xlink:href="#linearGradient36"
       id="linearGradient35"
       gradientUnits="userSpaceOnUse"
       x1="14.026998"
       y1="8.26367"
       x2="14.531946"
       y2="12.356235"
       gradientTransform="rotate(180,14.600391,14.586164)" /><inkscape:path-effect
       effect="fillet_chamfer"
       id="path-effect3-3"
       is_visible="true"
       lpeversion="1"
       nodesatellites_param="C,0,0,1,0,4.863755,0,1 @ C,0,0,1,0,4.863755,0,1 @ C,0,0,1,0,4.8636613,0,1 @ C,0,0,1,0,4.8657959,0,1"
       radius="0"
       unit="px"
       method="auto"
       mode="C"
       chamfer_steps="1"
       flexible="false"
       use_knot_distance="true"
       apply_no_radius="true"
       apply_with_radius="true"
       only_selected="false"
       hide_knots="false" /><rect
       x="23.864854"
       y="79.372735"
       width="20.948037"
       height="6.0987956"
       id="rect3" /><rect
       x="23.864854"
       y="79.372735"
       width="20.948037"
       height="6.0987956"
       id="rect4" /></defs><path
     style="display:inline;opacity:1;fill:url(#linearGradient4);stroke:url(#linearGradient5);stroke-width:0.0264583;stroke-linejoin:miter;stroke-dasharray:none;stroke-opacity:1"
     id="rect2"
     width="26.431952"
     height="26.43195"
     x="1.336108"
     y="1.336108"
     sodipodi:type="rect"
     inkscape:path-effect="#path-effect7"
     d="m 2.6439841,1.336108 23.8151659,0 1.308909,1.3089094 V 26.460181 l -1.307876,1.307877 H 2.646051 L 1.336108,26.458115 V 2.6439841 Z"
     inkscape:label="button-gradient"
     sodipodi:insensitive="true" /><g
     inkscape:groupmode="layer"
     id="layer1"
     inkscape:label="button-border-white"
     sodipodi:insensitive="true"><path
       style="display:inline;fill:#ffffff;fill-opacity:0;stroke:#ffffff;stroke-width:1.50392;stroke-dasharray:none;stroke-opacity:0.745614"
       id="button-border-white"
       width="105.81932"
       height="99.870979"
       x="5.1323953"
       y="5.1323953"
       sodipodi:type="rect"
       transform="matrix(0.24625605,0,0,0.26110179,0.24950932,0.17375963)"
       d="M 9.9961503,5.1323953 H 106.08796 l 4.86376,4.863755 V 100.13971 l -4.86367,4.86366 H 9.9981912 L 5.1323953,100.13758 V 9.9961503 Z"
       inkscape:path-effect="#path-effect3-75"
       sodipodi:insensitive="true" /><path
       style="fill:#ffffff;fill-opacity:0.745098;stroke:#000000;stroke-width:0.0264583;stroke-opacity:0"
       d="m 2.7876039,27.395475 1.1792611,-0.0021 -2.2698403,-2.259504 0.00207,1.106086 z"
       id="path1-1"
       sodipodi:nodetypes="ccccc"
       inkscape:label="button-border-white-corner-bottomleft" /><path
       style="fill:#ffffff;fill-opacity:0.745098;stroke:#000000;stroke-width:0.0264583;stroke-opacity:0"
       d="m 27.389704,26.239967 v -1.106914 l -2.269839,2.261572 h 1.1805 z"
       id="path1-36"
       sodipodi:nodetypes="ccccc"
       inkscape:label="button-border-white-corner-bottomright" /><path
       style="fill:#ffffff;fill-opacity:0.745098;stroke:#000000;stroke-width:0.0264583;stroke-opacity:0"
       d="m 26.296799,1.7095055 -1.163757,0.00103 2.254336,2.3359849 V 2.8649903 Z"
       id="path1-3"
       sodipodi:nodetypes="ccccc"
       inkscape:label="button-border-white-corner-topright" /><path
       style="fill:#ffffff;fill-opacity:0.745098;stroke:#000000;stroke-width:0.0264583;stroke-opacity:0"
       d="M 1.6980876,2.8649414 V 3.9718547 L 3.967927,1.7102834 H 2.7874267 Z"
       id="path1"
       sodipodi:nodetypes="ccccc"
       inkscape:label="button-border-white-corner-topleft" /></g><path
     style="display:inline;opacity:1;fill:url(#linearGradient2);fill-opacity:0;fill-rule:nonzero;stroke:#000000;stroke-width:0.514217;stroke-dasharray:none;stroke-opacity:1"
     id="button-border-black"
     width="104.8648"
     height="101.88612"
     x="5.1323953"
     y="5.1323953"
     sodipodi:type="rect"
     d="M 9.9961503,5.1323953 H 105.13344 l 4.86375,4.863755 V 102.15486 l -4.86366,4.86366 -95.1353388,0 -4.8657959,-4.8658 V 9.9961503 Z"
     inkscape:path-effect="#path-effect3"
     transform="matrix(0.25105943,0,0,0.25838369,0.09989812,0.06231387)"
     inkscape:label="button-border-black"
     sodipodi:insensitive="true" /><path
     style="fill:#ffffff;fill-opacity:0.745098;stroke:#ffffff;stroke-width:0.0264583;stroke-dasharray:none;stroke-opacity:0.733333"
     d="M 2.8355626,2.8355626 26.262572,26.262572"
     id="path7"
     inkscape:label="button-line"
     sodipodi:insensitive="true" /><ellipse
     style="display:inline;fill:url(#linearGradient12);fill-opacity:0.745098;stroke:url(#linearGradient7);stroke-width:0.264583;stroke-dasharray:none;stroke-opacity:1"
     id="path10"
     cx="14.558857"
     cy="14.551282"
     rx="11.902496"
     ry="11.910072"
     inkscape:label="button-circle-gradient"
     sodipodi:insensitive="true" /><g
     inkscape:groupmode="layer"
     id="layer2"
     inkscape:label="icon-profile"
     style="display:inline"
     sodipodi:insensitive="true"><path
       style="display:inline;fill:url(#linearGradient20);stroke:none;stroke-width:0.0217226;stroke-dasharray:none;stroke-opacity:0.733333"
       d="M 16.474004,22.54299 H 9.446662 l 0.1086251,-1.121015 0.040732,-0.814603 0.0068,-1.255848 -0.047523,-0.855333 -0.027153,-0.07127 -0.1663148,-0.403908 -0.023757,-0.07806 0.01358,-0.09843 0.047514,-0.07466 0.203651,-0.217227 -0.01358,-0.06789 -0.3258418,-1.086139 -0.088249,-0.475185 0.01358,-0.420878 0.203651,-0.49555 0.2579575,-0.420878 0.1425551,-0.16971 0.6516859,-0.339419 0.495549,-0.196862 0.156133,-1.975413 0.101824,-0.149344 0.414092,-0.135767 c 0,0 -0.244383,-0.359783 -0.264748,-0.386939 -0.02036,-0.02715 -0.149344,-0.122188 -0.149344,-0.122188 l -0.108615,-0.156138 -0.08825,-0.237592 -0.495543,-0.380143 0.05431,-0.135767 -0.407301,0.319054 0.09505,-0.6313239 0.08826,-0.7263547 -0.217227,-0.5973738 0.196863,-0.7467198 0.12219,-0.3801483 0.01309,-0.2546343 -0.06136,-0.3461373 0.183623,-0.1392281 0.285479,-0.3480946 c 3.092682,-2.441677 5.313537,-0.3697976 5.607194,1.4614541 l 0.03393,0.5430688 -0.04074,0.6313177 -0.09503,0.4412434 -0.128977,0.3869368 0.196862,-0.00682 0.215086,0.068245 0.1497,0.30941 0.04358,0.517349 0.21405,0.415163 0.299049,0.455173 0.420881,0.275461 0.463384,0.02287 0.604166,0.108614 0.4073,0.264747 0.352996,0.434454 0.135767,0.420879 0.08826,0.712777 -0.01358,0.597377 -0.196863,0.767084 0.128982,0.196863 0.01358,0.09503 -0.108614,0.251168 -0.162921,0.312266 -0.09421,0.78926 -0.0097,0.55681 0.748813,5.174506 z"
       id="path19"
       inkscape:label="icon-profile-gradient"
       sodipodi:nodetypes="ccccccccccccccccccccccccsccccccccccccccccccccccccccccccccccccccccccc" /><path
       style="display:inline;fill:#ffffff;fill-opacity:0.95;stroke:none;stroke-width:0.023445;stroke-dasharray:none;stroke-opacity:0.733333"
       d="m 10.577212,22.541964 -0.081,-0.250632 -0.431747,-0.666044 0.02839,-0.180417 0.03571,-0.232618 0.04945,-0.350761 0.03206,-0.282988 0.03754,-0.368161 0.02563,-0.258262 c 0,0 0.02655,-0.290315 0.02655,-0.297642 0,-0.0074 0.01098,-0.222545 0.01098,-0.222545 l 0.0046,-0.355338 c 0,0 0.01008,-0.413953 0.01008,-0.417616 0,-0.0036 -9.12e-4,-0.271997 -9.12e-4,-0.271997 v -0.108069 l -0.0092,-0.130961 -0.01283,-0.197818 -0.01374,-0.253684 -0.01374,-0.16851 c 0,0 -0.02834,-0.192856 -0.02834,-0.200626 0,-0.0078 -0.03627,-0.174846 -0.03886,-0.190388 -0.0026,-0.01555 -0.06864,-0.264215 -0.06864,-0.264215 0,0 -0.04144,-0.15801 -0.04144,-0.174849 0,-0.01684 -0.04404,-0.182617 -0.04404,-0.182617 L 10.009673,16.278189 9.985067,16.118884 9.956574,15.915544 9.934556,15.753646 9.922899,15.605997 9.921619,15.44151 l 0.00388,-0.119154 0.00518,-0.08031 0.00388,-0.07771 -0.00128,-0.09324 0.00128,-0.09195 0.012951,-0.06604 0.071234,-0.129516 0.04792,-0.06735 0.06734,-0.06347 -0.03886,-0.0065 -0.1178587,0.04145 -0.059577,0.04274 -0.049215,0.05441 -0.062168,0.117861 -0.050512,0.11786 -0.046626,0.106202 -0.050512,0.132108 -0.027199,0.08031 -0.015541,0.05052 c 0,0 -0.025904,0.05441 -0.023313,0.05959 0.0026,0.0052 -0.00777,0.120452 -0.00777,0.120452 l -0.00388,0.07771 0.014249,0.128222 0.042741,0.303069 c 0,0 0.020723,0.126927 0.020723,0.132109 0,0.0052 0.010361,0.09843 0.012952,0.104908 0.0026,0.0065 0.032379,0.164487 0.032379,0.164487 l 0.054397,0.229243 0.1968653,0.317317 0.079006,0.129517 0.08419,0.19816 0.119156,0.284937 0.02461,0.05569 0.01036,0.03108 0.0091,0.0518 v 0.05052 l -0.0013,0.06087 -0.01813,-0.02073 -0.06605,-0.05181 -0.06994,-0.06347 -0.057,-0.04792 -0.0259,-0.02331 -0.0078,-0.0078 -0.0052,-0.02073 v -0.0259 l -0.0026,-0.03368 -0.07771,-0.255147 -0.042741,-0.147649 -0.059577,-0.22277 -0.047921,-0.165782 -0.04015,-0.07382 0.028493,0.135992 0.059577,0.235721 0.03238,0.121745 0.03497,0.101022 0.010361,0.05181 0.015541,0.08031 0.020722,0.07512 0.022017,0.07643 0.00519,0.04792 v 0.0285 c 0,0.01166 -0.025903,0.05181 -0.025903,0.05181 l -0.03497,0.05569 -0.044034,0.05698 -0.027199,0.03755 -0.022018,0.04015 -0.019427,0.04664 v 0.03108 l 0.00518,0.0078 c 0,0 0.03497,0.01555 0.04015,0.02203 0.00518,0.0065 0.066053,0.04143 0.066053,0.04143 l 0.1295174,0.08678 0.126926,0.07512 0.07641,0.05052 0.02461,0.02073 0.0013,0.0065 -0.01424,0.0092 -0.01684,0.0026 h -0.04664 l -0.139879,0.0039 -0.02202,0.0039 -0.02979,0.0039 -0.019432,-0.0026 -0.00774,-0.0078 -0.00392,-0.01296 -0.010361,-0.02461 -0.020723,-0.04274 -0.063463,-0.156715 -0.011657,-0.03627 -0.056987,-0.02851 c 0,0 0.010361,0.01424 0.010361,0.01942 0,0.0052 0.029789,0.08159 0.029789,0.08159 l 0.041444,0.08289 0.025904,0.05959 0.02461,0.05052 0.00648,0.0285 0.0026,0.06734 c 0,0 0.0026,0.217588 0.0026,0.226654 0,0.0092 0.00648,0.181323 0.00648,0.181323 l -0.00112,0.455758 v 0.157506 l 0.00367,0.454248 -0.010988,0.613599 -0.010988,0.302223 -0.018318,0.291231 -0.018331,0.456084 c 0,0 -0.016483,0.177668 -0.016483,0.18866 0,0.01099 -0.010988,0.282073 -0.010988,0.282073 0,0 -0.00916,0.136457 -0.00916,0.143783 0,0.0074 -0.016484,0.246357 -0.016484,0.246357 l -0.016483,0.126383 c 0.00845,-8.29e-4 0.7307008,8.54e-4 0.7307008,8.54e-4 z"
       id="path25"
       inkscape:label="icon-profile-fill-shirt-sleeve-2"
       sodipodi:nodetypes="cccccccccsccsccccccsscscccccccccccccccccccccccccccccccssccccccccccccccccccccccccccccccccccscccccccccccccccccccccccccccccsccccccsccccccccscsccc" /><path
       style="display:inline;fill:#ffffff;fill-opacity:0.95;stroke:none;stroke-width:0.023445;stroke-dasharray:none;stroke-opacity:0.733333"
       d="m 16.689517,16.267729 -0.05129,-0.166679 -0.03296,-0.08243 -0.06594,-0.128214 -0.06595,-0.09707 -0.07326,-0.163017 -0.07326,-0.115393 -0.05129,-0.137373 -0.0641,-0.174005 -0.06045,-0.152028 -0.0751,-0.287568 -0.03847,-0.126382 0.0036,-0.212472 0.09088,-0.325379 0.196866,-0.445537 0.178733,-0.323792 0.134697,-0.163192 0.173552,-0.14765 0.186504,-0.142468 0.103613,-0.05698 0.191685,-0.09066 0.248673,-0.08288 0.303069,-0.08288 0.212408,-0.03886 0.238312,-0.02331 0.199455,0.02073 0.129516,0.04664 0.15283,0.113972 0.103613,0.119157 0.0964,0.255324 0.02632,0.08974 0.04203,0.202783 0.02728,0.248573 0.013,0.230647 0.0032,0.268688 0.0015,0.230538 -0.0073,0.230186 -0.01748,0.126771 -0.02363,0.125645 -0.0251,0.138957 -0.01888,0.04587 -0.05606,0.05596 -0.0778,0.04966 -0.09355,0.05238 -0.08145,0.03135 -0.147872,0.02951 -0.145818,0.01383 -0.115816,-0.01044 -0.155987,-0.0047 -0.148241,0.01093 -0.21578,0.01558 0.312773,0.01973 0.149699,0.0176 0.301251,0.05571 0.181182,0.04409 0.131707,0.03086 0.04699,0.01424 0.01569,-0.06446 0.03101,-0.06189 0.03242,-0.08789 0.03734,-0.108785 0.01737,-0.08396 -0.007,0.104388 -0.04391,0.150196 -0.01802,0.08385 0.0084,0.06553 0.0183,0.05242 0.03841,0.0583 0.01053,0.0401 -0.0133,0.04173 -0.01918,0.05587 -0.05057,0.08847 -0.05732,0.08376 -0.03462,0.04642 -0.01363,0.06506 -0.01058,0.192909 -0.0208,0.222466 -0.03794,0.460771 -0.02847,0.491747 -0.0086,0.412231 0.01292,0.408508 0.05481,0.53204 0.179852,1.314448 0.08502,0.807942 0.09038,0.682404 0.12201,1.07543 -1.792952,0.0038 -0.107707,-1.470351 -0.02716,-0.18106 0.06119,-0.429695 0.135797,-0.635552 0.06463,-0.401007 -0.127837,0.43414 -0.134112,0.369012 -0.01397,0.13444 5.07e-4,0.07666 0.01399,0.08632 -0.02508,0.1384 -0.05165,-0.274307 -0.03847,-0.174357 4.18e-4,-0.07532 0.02998,-0.08879 0.08933,-0.295738 0.301889,-0.941866 0.169391,-0.533875 0.128859,-0.482076 0.08494,-0.413902 0.129953,-0.541063 -0.144259,0.365666 -0.161066,0.389504 -0.195643,0.524994 -0.108479,0.364086 -0.0946,0.382326 -0.07544,0.430811 -0.03849,0.360924 -0.05367,-0.09063 -0.07376,-0.142168 -0.05429,-0.176034 -0.03491,-0.140931 -0.04265,-0.209983 -0.05335,-0.250299 -0.04884,-0.269157 -0.0745,-0.489923 -0.06644,-0.417017 -0.05519,-0.525896 -0.04576,-0.536248 -0.03286,-0.440331 -0.01774,-0.235271 -0.01047,-0.09671 -0.02779,-0.0695 0.02577,0.313227 0.01675,0.23476 -0.07403,-0.218126 -0.05365,-0.217564 -0.05488,-0.222538 -0.03672,-0.220418 -0.02965,-0.302808 -0.01678,-0.22581 0.01708,-0.28131 0.02618,-0.228526 0.03742,-0.20203 0.05519,-0.221615 0.06131,-0.198186 0.09441,-0.234594 0.08331,-0.162436 0.109535,-0.164096 0.110359,-0.109648 0.131572,-0.101335 0.268919,-0.11169 0.206644,-0.0612 0.100878,-0.02976 0.167366,-0.03444 0.275983,-0.04526 0.125874,-0.01219 0.142495,0.01821 0.112923,0.04988 0.110448,0.06426 0.138063,0.104353 -0.139879,-0.126924 -0.173552,-0.09326 -0.119155,-0.02591 -0.09844,-0.0052 -0.189095,0.02331 -0.170961,0.02591 -0.17555,0.04339 -0.232619,0.06228 -0.21247,0.0806 -0.195985,0.08975 -0.02381,0.02563 -0.126383,0.108069 -0.07693,0.0989 -0.05496,0.07875 -0.08426,0.130047 -0.08426,0.203315 -0.09525,0.261923 -0.0696,0.324201 -0.0348,0.221629 -0.02381,0.2546 -0.02198,0.247271 0.01466,0.252766 0.04761,0.311379 0.117226,0.50004 0.09707,0.320537 0.01099,0.04213 z"
       id="path24"
       inkscape:label="icon-profile-fill-shirt-sleeve-1"
       sodipodi:nodetypes="ccccccccccccccccccccccccccccccccccccccccccccccccccccccccccccccccccccccccccccccccccccccccccccccccccccccccccccccccccccccccccccccccccccccccccccccccccccccccccccccccccccccccccccccccccccccccc" /><path
       style="display:inline;fill:#ffffff;fill-opacity:0.95;stroke:none;stroke-width:0.023445;stroke-dasharray:none;stroke-opacity:0.733333"
       d="m 11.234881,16.923457 -0.435931,0.564149 -0.256431,0.322367 -0.04029,0.07326 -0.02563,0.08792 -0.01831,0.120888 0.06307,1.628698 -0.01036,0.777101 -0.06216,0.68385 -0.04317,0.453222 0.0068,0.204874 0.05771,0.113078 0.0767,0.142713 0.111164,0.134148 0.186826,0.179501 -0.05695,-0.03755 0.01375,0.169192 c 0.06548,0.002 0.135737,0.0017 0.179629,0.002 l 0.05678,-8.84e-4 -0.07601,-0.04122 -0.08609,-0.08333 -0.130052,-0.13005 -0.124547,-0.121799 -0.08243,-0.117226 -0.07692,-0.147449 -0.03296,-0.102572 -0.0028,-0.12089 0.01374,-0.164849 0.02072,-0.155792 0.01774,-0.172988 0.0458,-0.393803 0.02381,-0.3993 0.0074,-0.54766 -0.01649,-0.399298 -0.02017,-0.597116 -0.02014,-0.45791 -0.0092,-0.164849 -0.0019,-0.164847 0.02382,-0.102573 0.02381,-0.08243 0.06045,-0.104403 0.206977,-0.249103 0.406623,-0.538503 z"
       id="path27"
       sodipodi:nodetypes="cccccccccccccccccccccccccccccccccccccccccccc"
       inkscape:label="icon-profile-fill-vest-2" /><path
       style="display:inline;fill:#ffffff;fill-opacity:0.95;stroke:none;stroke-width:0.023445;stroke-dasharray:none;stroke-opacity:0.733333"
       d="m 16.181237,22.541109 -0.01373,-0.172175 -0.01649,-0.198732 8.85e-4,-0.195986 0.0046,-0.219796 0.01922,-0.289401 0.01585,-0.311818 c 0,0 0.03368,-0.437766 0.03368,-0.448128 0,-0.01036 0.04144,-0.528429 0.04144,-0.528429 l 0.01812,-0.220177 0.07253,-0.665719 c 0.0078,-0.199494 0.0116,-0.110897 0.02081,-0.231562 l 0.0068,-0.08732 0.0042,-0.06837 0.07876,-0.216131 0.08975,-0.20881 0.104086,-0.214841 0.09973,-0.247378 0.06735,-0.194274 0.02591,-0.07512 -0.408103,-1.347355 0.184028,1.469599 -0.170548,0.418417 -0.580555,0.425529 -2.646852,0.994739 2.892338,-0.809155 0.182071,-0.06133 c -0.03166,0.334416 -0.04708,0.45477 -0.04708,0.45477 l -0.0037,0.18252 -0.05959,0.44554 -0.09066,0.639813 -0.142474,1.015412 -0.106196,0.562102 -0.424904,0.250818 -0.798609,0.149925 z"
       id="path26"
       inkscape:label="icon-profile-fill-vest-1"
       sodipodi:nodetypes="cccccccscccccccccccccccccccccccccccc" /><path
       style="display:inline;fill:#ffffff;fill-opacity:0.95;stroke:none;stroke-width:0.0217226;stroke-dasharray:none;stroke-opacity:0.733333"
       d="m 12.895163,11.850385 0.0052,-0.02721 -0.0013,-0.02402 -0.0085,-0.02161 -0.02281,-0.01199 -0.724581,0.18494 -0.354692,0.09503 -0.380147,0.120492 -0.04751,0.02037 -0.03055,0.03734 -0.0069,0.08486 0.0069,0.475184 -0.02037,0.692413 -0.0645,0.481974 -0.09502,0.305477 -0.125586,0.332629 0.06789,-0.03055 0.682231,-0.35639 0.105219,-0.06788 -0.217228,0.112007 -0.536279,0.264747 0.118794,-0.356389 0.07128,-0.271535 0.04753,-0.461607 0.01018,-0.916431 -0.01358,-0.247775 0.03734,-0.05091 -0.01695,0.04073 0.01359,0.04075 0.01695,0.0069 0.312264,0.909638 0.240988,0.821394 0.02037,0.09165 -0.03394,0.162922 -0.08146,0.322446 0.122192,-0.32584 0.03394,-0.244382 0.156132,-0.821392 0.16971,-0.940188 0.05431,-0.234197 0.0611,-0.05091 0.349601,-0.112006 z"
       id="path23"
       inkscape:label="icon-profile-fill-shirt-collar-2" /><path
       style="display:inline;fill:#ffffff;fill-opacity:0.95;stroke:none;stroke-width:0.0217226;stroke-dasharray:none;stroke-opacity:0.733333"
       d="m 13.493145,11.099559 -0.0096,-0.101986 0.0076,-0.07815 0.0094,-0.04849 0.01802,-0.02152 0.0306,-0.0041 0.064,0.04309 0.249605,0.321605 0.187205,0.264006 0.345606,0.460809 0.475212,0.662413 0.235204,0.249606 0.124803,0.09119 0.168001,-0.120002 0.235205,-0.182404 0.148805,-0.096 0.42968,-0.178769 0.430557,-0.10221 1.023168,-0.0571 -0.417378,-0.204212 -0.247274,-0.245695 -0.196735,-0.279237 -0.189185,-0.379158 -0.09992,-0.2605 -0.07144,-0.226033 -0.04549,-0.09759 -0.09949,-0.101626 -0.117536,-0.02952 -0.270211,0.03206 -0.254829,0.01838 -0.466935,0.013 -0.328876,0.03559 -0.345265,0.07538 -0.48481,0.105602 -0.475211,0.105602 -0.07623,0.02348 -0.03416,0.03412 -0.0061,0.02279 0.0021,0.05089 0.0099,0.05406 0.01459,0.08989 0.01,0.03514 z"
       id="path22"
       sodipodi:nodetypes="ccccccccccccccccccccccccccccccccccccccccccc"
       inkscape:label="icon-profile-fill-shirt-collar-1" /><path
       style="display:inline;fill:#ffffff;fill-opacity:0.95;stroke:none;stroke-width:0.0217226;stroke-dasharray:none;stroke-opacity:0.733333"
       d="m 12.280814,11.804564 0.04753,-0.01528 0.07297,-0.02037 0.101826,-0.05769 0.115402,-0.07636 0.797633,-0.595676 -0.639808,0.534585 0.04583,0.0086 0.05091,0.02886 0.03565,0.0543 0.01019,0.08995 -0.01188,0.113705 0.0087,0.164624 0.03044,0.115397 0.06148,0.122749 0.05601,0.237203 -3.85e-4,0.267985 -0.03354,0.214224 -0.100336,0.234595 -0.39285,0.564284 -0.353004,0.477887 -0.313951,0.449945 -0.293225,0.447708 -0.187341,0.412442 -0.06343,0.358854 -0.04613,0.431051 -0.0055,0.479907 0.417923,-0.749704 0.780661,-1.133656 0.999588,-1.318639 0.257953,-0.230805 -0.06279,-0.824791 -0.115402,-0.913031 -0.02038,-0.112008 c 0,0 -0.02886,-0.178193 -0.02886,-0.188378 0,-0.01019 -0.03395,-0.21553 -0.03395,-0.21553 l -0.02714,-0.166314 -0.01867,-0.08995 -0.0051,-0.06958 0.02546,-0.05261 0.04922,-0.02207 0.201954,-0.05431 0.04243,-0.01527 0.05771,-0.08145 0.08485,-0.108614 0.07468,-0.11031 0.04073,-0.0679 0.02037,-0.05091 0.01019,-0.02715 0.0069,-0.08994 -0.0086,-0.112007 0.0051,-0.1289789 -0.0018,-0.057704 0.02715,-0.064492 0.07976,-0.040735 0.101827,-0.040735 -0.09673,0.066184 -0.03735,0.025458 -0.02886,0.04582 -0.01528,0.049213 -0.0086,0.091643 -0.0018,0.1187949 -0.0051,0.115402 -0.0018,0.04073 -0.02207,0.06958 -0.05091,0.07467 -0.0509,0.07468 -0.07127,0.09843 -0.0611,0.08146 -0.02376,0.02714 0.02207,0.0034 0.128977,-0.02886 0.427667,-0.09333 0.179891,-0.04752 0.125584,-0.03223 -0.02375,-0.08145 -0.03564,-0.103521 -0.02886,-0.06618 -0.01188,-0.01698 -0.0034,0.07636 -0.01527,0.08316 -0.06105,-0.252865 -0.06958,-0.1306749 -0.07976,-0.1544352 -0.05261,-0.100128 -0.01695,-0.047523 0.09333,-0.049214 0.04244,-0.039031 0.02885,-0.052612 0.01188,-0.079762 0.0018,-0.066183 0.02037,-0.09334 0.0577,-0.1052197 0.08825,-0.1425552 0.03055,-0.084852 -0.05091,-0.103523 -0.06958,-0.1238879 -0.07128,-0.088249 -0.07127,-0.083159 -0.03734,-0.02885 -0.04752,0.1493439 -0.05939,0.1510413 -0.06278,0.1323726 -0.07637,0.1408584 c 0,0 -0.134072,0.2138336 -0.145951,0.2189246 -0.01188,0.00505 -0.13916,0.2019544 -0.13916,0.2019544 L 13.653528,9.7325446 13.499093,9.9361959 13.34975,10.116086 13.38198,9.9820182 13.39894,9.8258849 13.4159,9.6578726 13.4141,9.5526529 l -0.02036,0.098432 -0.03055,0.1086136 -0.0662,0.1442528 0.02376,-0.2732307 -0.0169,-0.089953 -0.09333,-0.1340701 -0.16801,-0.2172277 -0.118797,-0.1272817 -0.0628,0.1883765 -0.100128,0.2443816 -0.02546,-0.096733 -0.08826,-0.3903309 -0.04921,-0.2002571 -0.03564,-0.042427 -0.36827,-0.2698373 -0.04583,0.044126 -0.03055,0.018668 0.01695,-0.045821 0.03735,-0.037335 -0.05431,-0.04073 -0.06109,-0.050913 0.02546,0.08146 0.03393,0.1137049 0.0492,0.2104393 0.05601,0.2104394 0.04073,0.1374643 0.01695,0.044127 -0.0509,-0.0577 L 12.107429,9.0044301 11.973358,8.870359 11.87323,8.7668372 11.8257,8.8007782 11.688238,8.929757 l -0.04752,0.05091 0.02715,-0.076367 0.0645,-0.06619 0.06958,-0.06449 0.04411,-0.025456 -0.100128,-0.13407 -0.04074,0.1459497 -0.03733,0.1035228 -0.05771,0.164618 -0.03564,0.1035223 -0.01358,0.061094 -0.0018,0.062795 0.02376,0.1170991 0.118795,0.4395469 0.02038,0.083161 0.02715,0.07128 -0.08146,-0.091644 -0.130488,-0.1578271 -0.08995,-0.1120073 -0.01867,-0.027153 -0.0018,0.027153 -0.0594,0.1544334 -0.05261,0.1154039 -0.0509,0.1137039 -0.0492,0.084855 -0.07636,0.117099 -0.04753,0.0577 0.03395,0.04243 0.112009,0.103521 0.149343,0.125587 0.05431,0.04243 0.05091,0.04922 0.04411,0.0645 0.04583,0.09673 0.03902,0.08316 0.05769,0.0645 0.07297,0.06788 0.118799,0.162921 0.142554,0.254564 0.09843,0.215531 0.056,0.08316 0.05939,0.08655 0.01867,0.01868 z"
       id="path21"
       inkscape:label="icon-profile-fill-face"
       sodipodi:nodetypes="ccccccccccccccccccccccccccccccccccscccccccccccccccccccccccccccccccccccccccccccccccccccccccccccccccccccccsccccccccccccccccccccccccccccccccccccccccccccccccccccccccccccccccccccccccccccccccccccc" /><path
       style="display:inline;fill:#ffffff;fill-opacity:0.95;stroke:none;stroke-width:0.0217226;stroke-dasharray:none;stroke-opacity:0.733333"
       d="M 10.781091,7.3842846 10.946902,7.1460499 11.069092,7.0034941 11.1811,6.8813036 11.310077,6.7285655 11.476395,6.5656449 11.62913,6.4129066 11.778475,6.287322 12.022856,6.1040363 12.345305,5.947904 l 0.363178,-0.1086139 0.237592,-0.050914 0.475184,-0.050914 0.302084,-0.00679 0.288504,0.027154 0.274928,0.061095 0.308873,0.1120079 0.274927,0.1425555 0.247776,0.1832859 0.298687,0.281717 0.135767,0.1561325 0.190075,0.2545634 0.156132,0.2817171 0.10522,0.3088705 0.05771,0.2477751 0.04411,0.3597833 0.0069,0.3020821 v 0.3767509 l -0.03736,0.22741 -0.04752,-0.2511692 -0.04073,-0.1425558 c 0,0 0,0.149344 -0.01695,0.1697092 -0.01695,0.020366 -0.132373,0.5464635 -0.132373,0.5464635 l -0.04411,0.1832858 -0.04075,0.2104389 -0.02036,0.1187965 -0.02037,0.1866798 -0.03055,-0.2375921 -0.01358,-0.1391622 -0.01358,-0.1459494 v -0.047523 l -0.04411,0.061094 -0.03734,0.1425566 -0.04073,0.1968621 -0.04074,0.257959 -0.03394,0.173102 -0.0033,0.07468 -0.193469,-0.0033 -0.173104,0.01019 -0.257956,0.03055 -0.152738,0.03395 -0.08486,-0.21383 -0.05771,-0.101826 -0.0069,0.06788 -0.0033,0.08145 -0.03734,-0.173102 -0.0645,-0.1663143 -0.105219,-0.1866805 -0.04074,-0.071279 0.09164,-0.037341 0.02715,-0.023755 0.03735,-0.047523 0.02376,-0.06449 0.01019,-0.095038 0.0069,-0.078069 0.01359,-0.047523 0.04074,-0.084851 0.07807,-0.1323736 0.04073,-0.1018246 0.08145,0.074674 0.156132,0.1255851 0.115402,0.037337 0.108612,-0.00681 L 14.982856,9.2063871 14.874241,9.1554781 14.704532,8.999346 14.629862,8.907703 14.545012,8.7549648 14.409244,8.575073 14.334574,8.50719 l 0.06789,-0.1900742 0.03055,-0.1764973 0.0543,-0.2783231 0.03055,-0.2579578 -0.03055,-0.2341984 -0.05091,-0.1255845 0.02037,0.1561322 0.02037,0.1595265 -0.0069,0.149344 -0.0679,0.3801483 -0.04411,0.2172275 -0.05091,0.1764975 -0.08146,0.2341986 -0.09164,0.2375928 -0.132375,0.2308037 -0.156132,0.2240163 c 0,0 -0.135767,0.1900742 -0.149344,0.2104395 -0.01358,0.020362 -0.285109,0.3903314 -0.285109,0.3903314 l -0.02714,0.03734 0.03055,-0.1629192 0.02037,-0.1900746 V 9.5558984 l -0.02037,-0.07807 -0.03394,0.1527379 -0.04411,0.1425551 0.01695,-0.2138326 -0.08145,-0.1323736 -0.217228,-0.2817168 -0.105219,-0.1154025 0.0577,-0.2240158 0.03394,-0.1629208 0.01695,-0.1764973 -0.01019,-0.2240159 c 0,0 -0.01696,0.2613522 -0.02376,0.2749286 -0.0069,0.013576 -0.03394,0.2104392 -0.03394,0.2104392 l -0.05091,0.2036507 -0.0645,0.1663157 -0.08484,0.2851111 -0.03055,0.061094 L 12.647547,8.9110237 12.596633,8.6768258 12.443895,8.289889 12.325098,8.0081719 c 0,0 -0.108612,-0.2308042 -0.142553,-0.2749284 -0.03394,-0.044126 -0.210441,-0.2952939 -0.210441,-0.2952939 L 11.80579,7.2648462 11.558015,7.0102829 l 0.125583,0.1798914 0.142558,0.2206218 0.156131,0.22741 0.166316,0.2443812 0.142556,0.2409869 0.135766,0.2409866 0.09166,0.2104394 0.05771,0.1731032 -0.09165,-0.064489 -0.193469,-0.1527381 -0.07467,-0.044126 0.09844,-0.074673 -0.128978,0.050914 -0.118797,-0.088249 -0.06789,-0.1154022 -0.05771,-0.1323731 0.04411,0.1493441 0.07807,0.1866799 0.03734,0.1629206 0.08146,0.3088708 0.04074,0.1459494 -0.139163,-0.125585 -0.135767,-0.1357668 -0.05431,-0.067883 0.169709,-0.1493439 0.0033,-0.044125 -0.183285,0.1595266 -0.09165,-0.3020823 0.02376,-0.2308044 0.01695,-0.22741 -0.03393,0.1832857 -0.02037,0.1731033 -0.03735,0.1968625 -0.04412,0.1731032 -0.0645,0.2070451 -0.03055,0.08485 -0.07806,0.088249 0.06789,-0.033942 -0.05091,0.112007 -0.04753,-0.1221897 -0.05431,-0.220622 0.01358,-0.3190531 0.03734,-0.3394182 0.01019,-0.2070449 -0.02714,-0.1425555 -0.05771,-0.37336 0.0069,-0.081461 -0.03055,0.281717 -0.02376,0.264746 0.0033,0.2885054 -0.01358,0.2104394 0.03055,0.2036508 0.04752,0.2545637 0.04411,0.2274105 -0.122193,-0.18668 c 0,0 -0.09503,-0.1561328 -0.101824,-0.179892 -0.0069,-0.023759 -0.108615,-0.3597833 -0.108615,-0.3597833 l 0.115403,0.4819737 0.135766,0.3529957 0.21723,0.4582142 0.07806,0.2002559 0.01359,0.067885 -0.274945,-0.3360236 -0.162921,-0.1934683 -0.183285,-0.2783228 -0.09844,-0.1968626 -0.0577,-0.166315 -0.07128,-0.4480318 -0.0068,-0.2986881 -0.01019,0.2783229 v 0.1832858 l 0.03733,0.3529949 0.02715,0.2647468 0.05431,0.2172269 0.02037,0.06449 -0.08826,-0.156132 -0.08486,-0.2104396 -0.03055,-0.1154013 -0.02037,-0.095038 c 0,0 0.0034,0.2715352 0.01019,0.2952937 0.0069,0.023756 0.05431,0.2885054 0.05431,0.2885054 l 0.05431,0.2070454 0.06109,0.2138334 0.05091,0.1459496 0.0645,0.1391619 0.03055,0.08145 -0.125586,-0.2172269 -0.09165,-0.1391598 -0.09503,-0.2647472 -0.04074,-0.1357668 -0.03394,0.1154022 -0.0577,0.1527379 -0.07127,0.1866801 -0.05431,0.1086139 -0.09844,0.1595256 0.08146,-0.1764975 0.0102,-0.084853 0.04073,-0.2545636 0.03055,-0.2104395 0.01019,-0.3258417 -0.02376,-0.257958 -0.03394,-0.2138333 0.02037,-0.098432 0.06108,-0.2749287 0.08825,-0.4785795 0.04411,-0.1968624 -0.01358,-0.1255848 z"
       id="path20"
       inkscape:label="icon-profile-fill-hair" /></g><path
     style="fill:#0b3f54;fill-opacity:0.795398;stroke:none;stroke-width:0.0264583;stroke-dasharray:none;stroke-opacity:0.733333"
     d="M 8.0325845,22.535058 H 21.265885 c -5.465653,3.302868 -8.365953,3.047597 -13.2333005,0 z"
     id="path36"
     sodipodi:nodetypes="ccc"
     inkscape:label="button-text-background"
     sodipodi:insensitive="true" /><path
     style="display:inline;fill:url(#linearGradient35);fill-opacity:0.95;stroke:none;stroke-width:0.0264583;stroke-dasharray:none;stroke-opacity:0.733333"
     d="M 25.711591,13.082355 C 26.440164,28.004033 6.5103261,30.084991 3.6684911,16.455793 l 0.843359,-0.760677 c 0.47961,2.104041 0.747762,4.204165 3.529115,6.350831 l -0.0048,0.493256 c 6.1154189,3.847011 8.8413969,2.377184 13.2262869,0.01519 l 0.0067,-0.52173 c 2.092871,-1.462581 3.430871,-5.039874 3.402326,-6.497237 l -0.465929,-0.303746 -0.01504,-0.530672 z"
     id="path34"
     sodipodi:nodetypes="ccccccccccc"
     inkscape:label="button-arrow-bottom"
     sodipodi:insensitive="true" /><path
     style="display:inline;fill:url(#linearGradient32);fill-opacity:0.95;stroke:none;stroke-width:0.0264583;stroke-dasharray:none;stroke-opacity:0.733333"
     d="M 3.4891927,16.040365 C 2.7606196,1.1186866 22.690456,-0.96227099 25.532291,12.666927 l -0.843359,0.760677 C 24.209322,11.323563 23.94117,9.2234385 21.159817,7.0767731 l 0.0048,-0.4932566 C 15.049199,2.7365058 12.323221,4.2063329 7.9383309,6.5683273 L 7.931653,7.0900568 C 5.8387821,8.5526379 4.5007822,12.129931 4.5293272,13.587294 l 0.4659293,0.303746 0.015036,0.530672 z"
     id="path29"
     sodipodi:nodetypes="ccccccccccc"
     inkscape:label="button-arrow-top"
     sodipodi:insensitive="true" /><text
     xml:space="preserve"
     transform="matrix(0.26458333,0,0,0.26458333,6.1313922,1.9589086)"
     id="text1"
     style="font-size:4.5px;text-align:start;writing-mode:lr-tb;direction:ltr;white-space:pre;shape-inside:url(#rect1);display:none;fill:#63cac9;fill-opacity:1;stroke-width:5;stroke-opacity:0.733333"
     inkscape:label="button-label"
     sodipodi:insensitive="true"><tspan
       x="23.865234"
       y="83.538452"
       id="tspan4"><tspan
         style="font-weight:900;font-family:'Inter Display';-inkscape-font-specification:'Inter Display Heavy';shape-inside:url(#rect1);display:inline"
         id="tspan1">ABOUT</tspan></tspan></text><path
     style="font-weight:900;font-size:4.5px;font-family:'Inter Display';-inkscape-font-specification:'Inter Display Heavy';white-space:pre;fill:#63cac9;stroke-width:5;stroke-opacity:0.733333"
     d="m 23.865234,83.538452 1.098633,-3.273925 h 1.230469 l 1.109619,3.273925 h -1.02832 l -0.156006,-0.53833 h -1.094238 l -0.160401,0.53833 z m 1.371094,-1.241455 h 0.681152 l -0.0088,-0.02856 q -0.08569,-0.296631 -0.166992,-0.58667 -0.0813,-0.290039 -0.1604,-0.588867 -0.0813,0.298828 -0.164795,0.588867 -0.0835,0.290039 -0.171387,0.58667 z m 2.243408,1.241455 v -3.273925 h 1.419434 q 0.560303,0 0.850342,0.230713 0.292236,0.228515 0.292236,0.586669 0,0.285645 -0.173584,0.481202 -0.173584,0.195556 -0.459228,0.250488 v 0.0044 q 0.210937,0.0066 0.377929,0.109864 0.16919,0.101074 0.265869,0.276855 0.09888,0.175781 0.09888,0.406494 0,0.268067 -0.134033,0.479004 -0.134033,0.20874 -0.386719,0.32959 -0.252685,0.118652 -0.608642,0.118652 z m 0.887696,-0.685546 h 0.483398 q 0.166992,0 0.265869,-0.08789 0.09888,-0.08789 0.09888,-0.235107 0,-0.147217 -0.09888,-0.235108 -0.09888,-0.08789 -0.265869,-0.08789 h -0.483398 z m 0,-1.291993 h 0.428466 q 0.151612,0 0.2417,-0.0835 0.09009,-0.0835 0.09009,-0.221924 0,-0.138427 -0.09009,-0.221923 -0.09009,-0.0835 -0.2417,-0.0835 h -0.428466 z m 3.539795,2.030274 q -0.446045,0 -0.808594,-0.195557 -0.360352,-0.195556 -0.571289,-0.571289 -0.210938,-0.37793 -0.210938,-0.920654 0,-0.547119 0.210938,-0.925049 0.210937,-0.37793 0.571289,-0.571289 0.362549,-0.195557 0.808594,-0.195557 0.446044,0 0.806396,0.195557 0.360352,0.193359 0.571289,0.571289 0.213135,0.37793 0.213135,0.925049 0,0.544922 -0.213135,0.922851 -0.210937,0.375733 -0.571289,0.571289 -0.360352,0.19336 -0.806396,0.19336 z m 0,-0.791016 q 0.322998,0 0.494384,-0.235107 0.173584,-0.237305 0.173584,-0.661377 0,-0.42627 -0.173584,-0.663574 -0.171386,-0.237305 -0.494384,-0.237305 -0.320801,0 -0.494385,0.237305 -0.173584,0.237304 -0.173584,0.663574 0,0.424072 0.173584,0.661377 0.173584,0.235107 0.494385,0.235107 z m 3.265136,0.791016 q -0.428467,0 -0.744873,-0.149414 -0.316406,-0.151612 -0.492187,-0.424073 -0.173584,-0.274658 -0.173584,-0.643798 v -2.109375 h 0.887695 v 2.034668 q 0,0.226318 0.147217,0.375732 0.149414,0.147217 0.375732,0.147217 0.230713,0 0.375733,-0.147217 0.147216,-0.147217 0.147216,-0.375732 v -2.034668 h 0.887696 v 2.109375 q 0,0.36914 -0.175781,0.643798 -0.173584,0.272461 -0.489991,0.424073 -0.316406,0.149414 -0.744873,0.149414 z m 1.674317,-2.553223 v -0.773437 h 2.777343 v 0.773437 h -0.93164 v 2.500488 H 37.77832 v -2.500488 z"
     id="text4"
     inkscape:label="button-label-path-to-object"
     transform="matrix(0.26458333,0,0,0.26458333,6.1313922,1.9589086)"
     aria-label="ABOUT"
     sodipodi:insensitive="true" /></svg>
