<?xml version="1.0" encoding="UTF-8" standalone="no"?>
<!-- Created with Inkscape (http://www.inkscape.org/) -->

<svg
   width="110"
   height="110"
   viewBox="0 0 29.104166 29.104167"
   version="1.1"
   id="svg1"
   xml:space="preserve"
   inkscape:version="1.4.2 (ebf0e940d0, 2025-05-08)"
   sodipodi:docname="menu-footer-button-blog-teal.svg"
   xmlns:inkscape="http://www.inkscape.org/namespaces/inkscape"
   xmlns:sodipodi="http://sodipodi.sourceforge.net/DTD/sodipodi-0.dtd"
   xmlns:xlink="http://www.w3.org/1999/xlink"
   xmlns="http://www.w3.org/2000/svg"
   xmlns:svg="http://www.w3.org/2000/svg"><sodipodi:namedview
     id="namedview1"
     pagecolor="#ffffff"
     bordercolor="#000000"
     borderopacity="0.25"
     inkscape:showpageshadow="2"
     inkscape:pageopacity="0.0"
     inkscape:pagecheckerboard="0"
     inkscape:deskcolor="#d1d1d1"
     inkscape:document-units="px"
     inkscape:zoom="5.6568543"
     inkscape:cx="56.126601"
     inkscape:cy="53.828504"
     inkscape:window-width="1440"
     inkscape:window-height="1742"
     inkscape:window-x="0"
     inkscape:window-y="0"
     inkscape:window-maximized="0"
     inkscape:current-layer="svg1"
     showgrid="false"
     showguides="false"><inkscape:grid
       id="grid2"
       units="px"
       originx="0"
       originy="0"
       spacingx="0.26458333"
       spacingy="0.26458333"
       empcolor="#0099e5"
       empopacity="0.30196078"
       color="#0099e5"
       opacity="0.14901961"
       empspacing="5"
       enabled="true"
       visible="false" /></sodipodi:namedview><defs
     id="defs1"><linearGradient
       id="linearGradient8"
       inkscape:collect="always"><stop
         style="stop-color:#095b79;stop-opacity:1;"
         offset="0"
         id="stop8" /><stop
         style="stop-color:#0797ca;stop-opacity:1;"
         offset="1"
         id="stop9" /></linearGradient><linearGradient
       id="linearGradient36"
       inkscape:collect="always"><stop
         style="stop-color:#67cecd;stop-opacity:1;"
         offset="0"
         id="stop35" /><stop
         style="stop-color:#489bab;stop-opacity:1;"
         offset="1"
         id="stop36" /></linearGradient><linearGradient
       id="linearGradient31"
       inkscape:collect="always"><stop
         style="stop-color:#3c7193;stop-opacity:1;"
         offset="0"
         id="stop31" /><stop
         style="stop-color:#4ba1b0;stop-opacity:1;"
         offset="1"
         id="stop32" /></linearGradient><linearGradient
       id="linearGradient3"
       inkscape:collect="always"><stop
         style="stop-color:#ffffff;stop-opacity:0.53333336;"
         offset="0"
         id="stop3" /><stop
         style="stop-color:#ffffff;stop-opacity:0.33333334;"
         offset="1"
         id="stop4" /></linearGradient><linearGradient
       id="linearGradient11"
       inkscape:collect="always"><stop
         style="stop-color:#03233a;stop-opacity:1;"
         offset="0"
         id="stop11" /><stop
         style="stop-color:#145f72;stop-opacity:1;"
         offset="1"
         id="stop12" /></linearGradient><linearGradient
       id="linearGradient6"
       inkscape:collect="always"><stop
         style="stop-color:#035e8a;stop-opacity:1;"
         offset="0"
         id="stop5" /><stop
         style="stop-color:#33f4e7;stop-opacity:0.94901961;"
         offset="1"
         id="stop6" /></linearGradient><inkscape:path-effect
       effect="fillet_chamfer"
       id="path-effect7"
       is_visible="true"
       lpeversion="1"
       nodesatellites_param="C,0,0,1,0,1.3078761,0,1 @ C,0,0,1,0,1.3089094,0,1 @ C,0,0,1,0,1.3078762,0,1 @ C,0,0,1,0,1.309943,0,1"
       radius="0"
       unit="px"
       method="auto"
       mode="C"
       chamfer_steps="1"
       flexible="false"
       use_knot_distance="true"
       apply_no_radius="true"
       apply_with_radius="true"
       only_selected="false"
       hide_knots="false" /><inkscape:path-effect
       effect="fillet_chamfer"
       id="path-effect6"
       is_visible="true"
       lpeversion="1"
       nodesatellites_param="F,0,0,1,0,0,0,1 @ F,0,0,1,0,0,0,1 @ F,0,0,1,0,0,0,1 @ F,0,0,1,0,0,0,1"
       radius="0"
       unit="px"
       method="auto"
       mode="F"
       chamfer_steps="1"
       flexible="false"
       use_knot_distance="true"
       apply_no_radius="true"
       apply_with_radius="true"
       only_selected="false"
       hide_knots="false" /><inkscape:path-effect
       effect="fillet_chamfer"
       id="path-effect5"
       is_visible="true"
       lpeversion="1"
       nodesatellites_param="IF,0,0,1,0,0,0,1 @ IF,0,0,1,0,0,0,1 @ IF,0,0,1,0,0,0,1 @ IF,0,0,1,0,0,0,1"
       radius="0"
       unit="px"
       method="auto"
       mode="F"
       chamfer_steps="1"
       flexible="false"
       use_knot_distance="true"
       apply_no_radius="true"
       apply_with_radius="true"
       only_selected="false"
       hide_knots="false" /><linearGradient
       id="linearGradient1"
       inkscape:collect="always"><stop
         style="stop-color:#33f4e7;stop-opacity:0.94901961;"
         offset="0"
         id="stop1" /><stop
         style="stop-color:#019ae0;stop-opacity:0.94901961;"
         offset="1"
         id="stop2" /></linearGradient><inkscape:path-effect
       effect="fillet_chamfer"
       id="path-effect3"
       is_visible="true"
       lpeversion="1"
       nodesatellites_param="C,0,0,1,0,4.863755,0,1 @ C,0,0,1,0,4.863755,0,1 @ C,0,0,1,0,4.8636613,0,1 @ C,0,0,1,0,4.8657959,0,1"
       radius="0"
       unit="px"
       method="auto"
       mode="C"
       chamfer_steps="1"
       flexible="false"
       use_knot_distance="true"
       apply_no_radius="true"
       apply_with_radius="true"
       only_selected="false"
       hide_knots="false" /><inkscape:path-effect
       effect="fillet_chamfer"
       id="path-effect2"
       is_visible="true"
       lpeversion="1"
       nodesatellites_param="F,0,0,1,0,0,0,1 @ F,0,0,1,0,0,0,1 @ F,0,0,1,0,0,0,1 @ F,0,0,1,0,0,0,1"
       radius="0"
       unit="px"
       method="auto"
       mode="F"
       chamfer_steps="1"
       flexible="false"
       use_knot_distance="true"
       apply_no_radius="true"
       apply_with_radius="true"
       only_selected="false"
       hide_knots="false" /><inkscape:path-effect
       effect="fillet_chamfer"
       id="path-effect1"
       is_visible="true"
       lpeversion="1"
       nodesatellites_param="F,0,0,1,0,12.263458,0,1 @ F,0,0,1,0,0,0,1 @ F,0,0,1,0,0,0,1 @ F,0,0,1,0,0,0,1"
       radius="0"
       unit="px"
       method="auto"
       mode="F"
       chamfer_steps="1"
       flexible="false"
       use_knot_distance="true"
       apply_no_radius="true"
       apply_with_radius="true"
       only_selected="false"
       hide_knots="false" /><inkscape:path-effect
       effect="fillet_chamfer"
       id="path-effect3-7"
       is_visible="true"
       lpeversion="1"
       nodesatellites_param="F,0,0,1,0,4.863755,0,1 @ F,0,0,1,0,4.863755,0,1 @ F,0,0,1,0,4.8636613,0,1 @ F,0,0,1,0,4.8657959,0,1"
       radius="0"
       unit="px"
       method="auto"
       mode="F"
       chamfer_steps="1"
       flexible="false"
       use_knot_distance="true"
       apply_no_radius="true"
       apply_with_radius="true"
       only_selected="false"
       hide_knots="false" /><inkscape:path-effect
       effect="fillet_chamfer"
       id="path-effect3-75"
       is_visible="true"
       lpeversion="1"
       nodesatellites_param="C,0,0,1,0,4.863755,0,1 @ C,0,0,1,0,4.863755,0,1 @ C,0,0,1,0,4.8636613,0,1 @ C,0,0,1,0,4.8657959,0,1"
       radius="0"
       unit="px"
       method="auto"
       mode="C"
       chamfer_steps="1"
       flexible="false"
       use_knot_distance="true"
       apply_no_radius="true"
       apply_with_radius="true"
       only_selected="false"
       hide_knots="false" /><linearGradient
       inkscape:collect="always"
       xlink:href="#linearGradient1"
       id="linearGradient2"
       x1="4.8752956"
       y1="56.075455"
       x2="110.25435"
       y2="56.075455"
       gradientUnits="userSpaceOnUse"
       spreadMethod="repeat" /><linearGradient
       inkscape:collect="always"
       xlink:href="#linearGradient6"
       id="linearGradient4"
       x1="14.534451"
       y1="1.2646005"
       x2="14.534451"
       y2="27.845228"
       gradientUnits="userSpaceOnUse"
       gradientTransform="matrix(0.99933045,0,0,0.99866807,0.02736406,0.01655407)" /><linearGradient
       inkscape:collect="always"
       xlink:href="#linearGradient1"
       id="linearGradient5"
       x1="27.78129"
       y1="14.552082"
       x2="1.3228803"
       y2="14.552082"
       gradientUnits="userSpaceOnUse" /><linearGradient
       inkscape:collect="always"
       xlink:href="#linearGradient11"
       id="linearGradient12"
       x1="14.558857"
       y1="2.6487856"
       x2="14.558857"
       y2="26.453777"
       gradientUnits="userSpaceOnUse" /><linearGradient
       inkscape:collect="always"
       xlink:href="#linearGradient3"
       id="linearGradient7"
       x1="5.2574716"
       y1="7.0191703"
       x2="23.860237"
       y2="22.083393"
       gradientUnits="userSpaceOnUse" /><filter
       id="white-shadow"
       x="0"
       y="0"
       width="1"
       height="1"><feDropShadow
         dx="0"
         dy="0"
         stdDeviation="0.5"
         flood-color="#ffffff" /></filter><linearGradient
       inkscape:collect="always"
       xlink:href="#linearGradient31"
       id="linearGradient32"
       x1="14.822125"
       y1="5.0363903"
       x2="15.280301"
       y2="9.6902208"
       gradientUnits="userSpaceOnUse"
       gradientTransform="translate(0,-0.04960937)" /><linearGradient
       inkscape:collect="always"
       xlink:href="#linearGradient36"
       id="linearGradient35"
       gradientUnits="userSpaceOnUse"
       x1="14.026998"
       y1="8.26367"
       x2="14.531946"
       y2="12.356235"
       gradientTransform="rotate(180,14.600391,14.586164)" /><linearGradient
       inkscape:collect="always"
       xlink:href="#linearGradient8"
       id="linearGradient9"
       x1="16.63401"
       y1="16.577463"
       x2="16.445312"
       y2="13.743818"
       gradientUnits="userSpaceOnUse" /><rect
       x="23.864854"
       y="79.372735"
       width="20.948037"
       height="6.0987956"
       id="rect1" /><rect
       x="23.864854"
       y="79.372735"
       width="20.948037"
       height="6.0987956"
       id="rect4" /></defs><path
     style="display:inline;opacity:1;fill:url(#linearGradient4);stroke:url(#linearGradient5);stroke-width:0.0264583;stroke-linejoin:miter;stroke-dasharray:none;stroke-opacity:1"
     id="rect2"
     width="26.431952"
     height="26.43195"
     x="1.336108"
     y="1.336108"
     sodipodi:type="rect"
     inkscape:path-effect="#path-effect7"
     d="m 2.6439841,1.336108 23.8151659,0 1.308909,1.3089094 V 26.460181 l -1.307876,1.307877 H 2.646051 L 1.336108,26.458115 V 2.6439841 Z"
     inkscape:label="button-gradient"
     sodipodi:insensitive="true" /><g
     inkscape:groupmode="layer"
     id="layer1"
     inkscape:label="button-border-white"
     sodipodi:insensitive="true"><path
       style="display:inline;fill:#ffffff;fill-opacity:0;stroke:#ffffff;stroke-width:1.50392;stroke-dasharray:none;stroke-opacity:0.745614"
       id="button-border-white"
       width="105.81932"
       height="99.870979"
       x="5.1323953"
       y="5.1323953"
       sodipodi:type="rect"
       transform="matrix(0.24625605,0,0,0.26110179,0.24950932,0.17375963)"
       d="M 9.9961503,5.1323953 H 106.08796 l 4.86376,4.863755 V 100.13971 l -4.86367,4.86366 H 9.9981912 L 5.1323953,100.13758 V 9.9961503 Z"
       inkscape:path-effect="#path-effect3-75"
       sodipodi:insensitive="true" /><path
       style="fill:#ffffff;fill-opacity:0.745098;stroke:#000000;stroke-width:0.0264583;stroke-opacity:0"
       d="m 2.7876039,27.395475 1.1792611,-0.0021 -2.2698403,-2.259504 0.00207,1.106086 z"
       id="path1-1"
       sodipodi:nodetypes="ccccc"
       inkscape:label="button-border-white-corner-bottomleft" /><path
       style="fill:#ffffff;fill-opacity:0.745098;stroke:#000000;stroke-width:0.0264583;stroke-opacity:0"
       d="m 27.389704,26.239967 v -1.106914 l -2.269839,2.261572 h 1.1805 z"
       id="path1-36"
       sodipodi:nodetypes="ccccc"
       inkscape:label="button-border-white-corner-bottomright" /><path
       style="fill:#ffffff;fill-opacity:0.745098;stroke:#000000;stroke-width:0.0264583;stroke-opacity:0"
       d="m 26.296799,1.7095055 -1.163757,0.00103 2.254336,2.3359849 V 2.8649903 Z"
       id="path1-3"
       sodipodi:nodetypes="ccccc"
       inkscape:label="button-border-white-corner-topright" /><path
       style="fill:#ffffff;fill-opacity:0.745098;stroke:#000000;stroke-width:0.0264583;stroke-opacity:0"
       d="M 1.6980876,2.8649414 V 3.9718547 L 3.967927,1.7102834 H 2.7874267 Z"
       id="path1"
       sodipodi:nodetypes="ccccc"
       inkscape:label="button-border-white-corner-topleft" /></g><path
     style="display:inline;opacity:1;fill:url(#linearGradient2);fill-opacity:0;fill-rule:nonzero;stroke:#000000;stroke-width:0.514217;stroke-dasharray:none;stroke-opacity:1"
     id="button-border-black"
     width="104.8648"
     height="101.88612"
     x="5.1323953"
     y="5.1323953"
     sodipodi:type="rect"
     d="M 9.9961503,5.1323953 H 105.13344 l 4.86375,4.863755 V 102.15486 l -4.86366,4.86366 H 9.9981912 l -4.8657959,-4.8658 V 9.9961503 Z"
     inkscape:path-effect="#path-effect3"
     transform="matrix(0.25105943,0,0,0.25838369,0.09989812,0.06231387)"
     inkscape:label="button-border-black"
     sodipodi:insensitive="true" /><path
     style="fill:#ffffff;fill-opacity:0.745098;stroke:#ffffff;stroke-width:0.0264583;stroke-dasharray:none;stroke-opacity:0.733333"
     d="M 2.8355626,2.8355626 26.262572,26.262572"
     id="path7"
     inkscape:label="button-line"
     sodipodi:insensitive="true" /><ellipse
     style="display:inline;fill:url(#linearGradient12);fill-opacity:0.745098;stroke:url(#linearGradient7);stroke-width:0.264583;stroke-dasharray:none;stroke-opacity:1"
     id="path10"
     cx="14.558857"
     cy="14.551282"
     rx="11.902496"
     ry="11.910072"
     inkscape:label="button-circle-gradient"
     sodipodi:insensitive="true" /><g
     inkscape:groupmode="layer"
     id="layer3"
     inkscape:label="icon-blog"
     style="display:inline"
     sodipodi:insensitive="true"><path
       style="display:inline;fill:url(#linearGradient9);stroke-width:1.32292;stroke-opacity:0.733333"
       d="m 12.41888,7.1396158 h 6.371838 v 4.7500972 l 0.441082,0.0058 c 0.347868,0.02923 0.342021,0.200892 0.339098,0.399673 v 0.929799 l 0.531867,0.0058 c 0,0 0.298173,0.01147 0.266017,0.262871 h 0.494528 c 0.149086,0.0058 0.283395,0.02046 0.309704,0.274786 l -0.01462,2.057996 c 0,0.163703 -0.01462,0.281397 -0.204628,0.31063 l -0.45683,-0.0058 0.904901,3.978574 c 0.07016,0.280633 0.142327,0.402584 -0.237697,0.420124 h -0.799496 l 0.01754,0.502845 c 0.02339,0.222168 -0.106454,0.263094 -0.270156,0.28648 h -3.133735 c -0.122777,0.0058 -0.292327,-0.04093 -0.309866,-0.239707 l -0.0058,-0.450399 h -4.318118 l -0.01169,0.39494 c 0.01169,0.204628 -0.13693,0.263093 -0.265554,0.274786 H 8.8574791 c -0.1286234,0.02339 -0.3091334,-0.08185 -0.2857473,-0.280633 l -0.00585,-0.513117 H 7.7845377 c -0.1901693,0.01654 -0.3112654,-0.02481 -0.261656,-0.239779 L 8.4657622,15.76222 H 8.1049316 c -0.095085,-0.0041 -0.3277011,-0.0062 -0.3152987,-0.295589 l -0.018606,-2.455557 c 0.090951,-0.442351 0.2367535,-0.487826 0.6418967,-0.487826 h 0.9532032 c -0.00827,-0.529167 -0.020671,-0.610045 0.3017904,-0.63485 l 0.5167228,-0.0083 V 8.8867116 l 1.660412,-1.7539562 z"
       id="path3"
       inkscape:label="icon-blog-gradient"
       sodipodi:nodetypes="cccccccccccccccccccccccccccccccccccccccc" /><path
       style="display:inline;fill:#ffffff;fill-opacity:0.94902;stroke-width:1.32292;stroke-opacity:0.733333"
       d="m 19.046866,17.976947 c 0,0 0.01334,0.09297 -0.07874,0.103202 -0.103353,0.06098 -1.594898,0.05208 -1.722802,-0.0024 -0.0084,-0.0036 -0.01469,4.2e-5 -0.01641,7.5e-5 -0.01846,3.57e-4 -0.40498,0.0019 -0.616062,0.0036 -0.02042,1.65e-4 -0.0069,-0.0058 -0.05259,0.01074 -0.257601,0.0934 -4.082038,0.03791 -4.144481,-0.01413 l -0.694529,-2.26e-4 c -0.393993,0.07356 -1.363049,0.07124 -1.693955,-5.49e-4 l -0.01706,-6e-6 c -0.1929355,-0.05262 -0.181873,-0.375001 -0.0094,-0.413004 0.196244,-0.105688 1.560586,-0.09057 1.713179,0.0041 0.23649,0.193998 0.02444,0.404474 0.02444,0.404474 l 0.662547,-0.0021 c 0,0 -0.189136,-0.177098 -0.0031,-0.406541 0.412786,-0.134713 3.953948,-0.08894 4.219268,0 0.193269,0.01034 0.194303,0.386904 0.01654,0.409641 l 0.582407,10e-7 c 0,0 -0.146761,-0.194312 3.5e-5,-0.399985 0.188945,-0.105929 1.745951,-0.07245 1.832592,0.05569 l 0.01167,-0.531567 c 0,0 -0.02024,0.06098 -0.08432,0.05994 l -1.116431,-3.93e-4 c -0.05116,0.03946 -0.463338,0.07431 -0.654811,-2.3e-4 l -0.555736,-1.95e-4 c -0.10852,0.07338 -0.507463,0.08347 -0.683162,-2.4e-4 l -0.529167,-1.87e-4 c -0.05891,0.07338 -0.526068,0.108299 -0.631487,-2.22e-4 l -0.558105,-1.96e-4 c -0.03617,0.05168 -0.454753,0.101057 -0.65009,-2.28e-4 l -0.593245,-2.09e-4 c 0,0 -0.07189,0.02675 -0.08055,0.0283 -0.0751,0.0134 -0.379887,0.04841 -0.545772,-0.02851 l -0.591179,-2.04e-4 c -0.205672,0.07545 -0.541569,0.03493 -0.61495,-2.12e-4 l -0.62115,-2.14e-4 c -0.253214,0.06201 -0.5757882,-1.98e-4 -0.5757882,-1.98e-4 -0.1105864,-0.01964 -0.1593701,-0.312519 0.02046,-0.36833 0.2046382,-0.08888 0.4468692,-0.04134 0.5729592,0 0.201062,0.183864 -0.0031,0.3603 -0.0031,0.3603 l 0.596052,0.001 c 0,0 -0.139368,-0.165319 0.02389,-0.355488 0.104789,-0.07142 0.588263,-0.08605 0.654807,0.01462 0.111449,0.201343 -0.03989,0.344652 -0.03989,0.344652 l 0.5654,-0.0021 c 0,0 -0.08187,-0.195485 0.05768,-0.365971 0.168172,-0.105242 0.597906,-0.08151 0.656272,0.02046 0.05973,0.215268 -0.06346,0.348431 -0.06346,0.348431 h 0.570036 c 0,0 -0.175266,-0.1639 -0.0037,-0.37474 0.209013,-0.131547 0.610961,-0.09501 0.686966,0 0.190169,0.202572 -0.0052,0.372495 -0.0052,0.372495 l 0.528964,0.0021 c 0,0 -0.210015,-0.18646 0.01116,-0.374562 0.174666,-0.113688 0.589374,-0.07441 0.643117,0 0.216007,0.1788 10e-4,0.374562 10e-4,0.374562 l 0.511393,-0.0021 c 0,0 -0.149909,-0.191253 0.01087,-0.372495 0.197404,-0.117822 0.60824,-0.101286 0.689889,0 0.181242,0.185627 0,0.376452 0,0.376452 l 0.531,-0.0021 c 0,0 -0.184604,-0.106907 -0.06475,-0.375847 0.105237,-0.141778 0.593422,-0.102314 0.701582,-0.0015 0.187089,0.175396 0.056,0.376274 0.056,0.376274 l 0.506581,0.001 c 0,0 -0.154609,-0.197767 -0.05925,-0.354999 0.08286,-0.151203 0.706919,-0.04646 0.734225,0.02734 l 0.0096,-0.509509 c 0,0 -0.02041,0.05788 -0.08139,0.05064 H 17.86145 c -0.177767,0.08682 -0.574642,0.06821 -0.651123,0 h -0.552938 c -0.255155,0.106003 -0.562929,0.06098 -0.704866,0 h -0.517798 c -0.212907,0.06821 -0.56534,0.03824 -0.652157,0 h -0.549205 c -0.369792,0.06139 -0.467722,0.03508 -0.637271,0 h -0.592429 c -0.295589,0.08785 -0.532267,0.04341 -0.649056,0 h -0.557072 c -0.262516,0.06925 -0.472322,0.03927 -0.642855,0 h -0.58291 c -0.04858,0.0217 -0.538789,0.06201 -0.6690136,0 -0.087698,-0.04385 -0.05687,-0.330328 0.1097526,-0.400486 0.216008,-0.04857 0.404757,-0.04857 0.619731,0 0.181144,0.219326 -0.05125,0.397563 -0.05125,0.397563 h 0.559804 c 0,0 -0.07892,-0.209013 0.102318,-0.40341 0.217041,-0.06201 0.387486,-0.04858 0.582823,0 0.156395,0.198782 -0.01717,0.401948 -0.01717,0.401948 l 0.52911,-3.8e-5 c 0,0 -0.0048,-0.258877 0.122815,-0.393047 0.134255,-0.09629 0.540144,-0.08346 0.612423,0.0029 0.09647,0.194397 -0.05718,0.390392 -0.05718,0.390392 l 0.560159,0.001 c 0,0 -0.18142,-0.167793 -0.0031,-0.406039 0.156394,-0.09208 0.570789,-0.09802 0.68112,0 0.137656,0.231011 -0.0031,0.405005 -0.0031,0.405005 h 0.519303 c 0,0 -0.177142,-0.198852 0.0041,-0.407865 0.297656,-0.111621 0.474414,-0.09095 0.68112,0 0.217783,0.216321 -0.0041,0.406185 -0.0041,0.406185 h 0.481659 c 0,0 -0.136369,-0.226319 -0.001,-0.400339 0.119889,-0.09922 0.532525,-0.107487 0.675152,-0.0062 0.162076,0.18093 0.06718,0.40654 0.06718,0.40654 l 0.506758,10e-4 c 0,0 -0.165676,-0.173969 -0.04131,-0.40169 0.19637,-0.107487 0.580127,-0.06615 0.710352,0 0.173934,0.225091 0.04131,0.401727 0.04131,0.401727 l 0.469789,-0.0021 c 0,0 -0.143827,-0.09535 -0.07028,-0.387191 0.126118,-0.144109 0.657241,-0.09985 0.789407,0.03473 0.03676,0.05044 0.04249,0.19911 -0.0053,0.297153 l -0.0066,0.530214 c 0.02791,0.08372 0.03188,0.173667 -0.0074,0.247047 z"
       id="path12"
       inkscape:label="icon-blog-keys"
       sodipodi:nodetypes="ccsssscccccccccccccccccccccccccsccccccccccccccccccccccccccccccccccccccccccccccccccccccccccccccccccccccccccccccccccccc" /><path
       style="display:inline;fill:#ffffff;fill-opacity:0.94902;stroke-width:1.1897;stroke-opacity:0.733333"
       d="m 8.5010904,18.736804 0.051057,0.839768 c 0.011486,0.171978 0.079493,0.209011 0.179922,0.231144 H 20.408787 c 0.08604,-0.0074 0.150657,-0.06409 0.157097,-0.211083 l -0.02274,-0.867044 c -0.02791,0.07648 -0.05355,0.09102 -0.110391,0.107556 l 0.0091,0.719367 c 0.0046,0.101357 -0.026,0.127717 -0.09509,0.150455 H 8.8001941 c -0.093035,-0.0075 -0.1169532,-0.02404 -0.124304,-0.147511 l -0.043254,-0.712432 c -0.065773,-0.0044 -0.1037752,-0.03421 -0.1315457,-0.11022 z"
       id="path18-9"
       inkscape:label="icon-blog-typewriter-9"
       sodipodi:nodetypes="ccccccccccccc" /><path
       style="display:inline;fill:#ffffff;fill-opacity:0.94902;stroke-width:1.32292;stroke-opacity:0.733333"
       d="m 19.730166,14.248831 h 0.636654 c 0.07162,0.01608 0.11636,0.06374 0.128053,0.119284 v 0.886768 c -0.0029,0.04823 -0.0134,0.0865 -0.09818,0.09819 H 19.728 v -0.128639 l 0.537992,-0.0021 c 0.08236,-0.0083 0.112899,-0.04391 0.106171,-0.12792 l 0.0018,-0.585534 c -0.01228,-0.0807 -0.04299,-0.106541 -0.100691,-0.114955 l -0.544199,0.0039 z"
       id="path31"
       inkscape:label="icon-blog-typewriter-8"
       sodipodi:nodetypes="ccccccccccccc" /><path
       style="display:inline;fill:#ffffff;fill-opacity:0.94902;stroke-width:1.32292;stroke-opacity:0.733333"
       d="m 9.3918877,20.688605 2.1159453,0.001 c 0.126236,-4.62e-4 0.132507,-0.001 0.135535,-0.131425 l -0.001,-0.661309 -0.133837,-0.0021 -0.0012,0.530208 c 0.0011,0.123792 5.29e-4,0.126662 -0.123921,0.132362 l -1.8607583,0.0021 c -0.125711,-0.0056 -0.126947,-0.0053 -0.1340053,-0.133733 l 0.0039,-0.531158 -0.1332241,6.66e-4 c -0.0013,0.200372 -5.33e-4,0.464856 -5.33e-4,0.665238 0.0012,0.126408 0.0088,0.125747 0.1331661,0.128044 z"
       id="path27"
       sodipodi:nodetypes="cccccccccccccc"
       inkscape:label="icon-blog-typewriter-7" /><path
       style="display:inline;fill:#ffffff;fill-opacity:0.94902;stroke-width:1.32292;stroke-opacity:0.733333"
       d="m 17.461713,20.688605 2.115937,0.001 c 0.126236,-4.62e-4 0.132507,-0.001 0.135535,-0.131425 l -10e-4,-0.661309 -0.133837,-0.0021 -0.0012,0.530208 c 0.0011,0.123792 5.29e-4,0.126662 -0.123921,0.132362 l -1.860751,0.0021 c -0.12571,-0.0056 -0.126946,-0.0053 -0.134004,-0.133733 l 0.0039,-0.531158 -0.133224,6.66e-4 c -0.0013,0.200372 -5.33e-4,0.464856 -5.33e-4,0.665238 0.0012,0.126408 0.0088,0.125747 0.133166,0.128044 z"
       id="path26"
       sodipodi:nodetypes="cccccccccccccc"
       inkscape:label="icon-blog-typewriter-6" /><path
       style="display:inline;fill:#ffffff;fill-opacity:0.94902;stroke-width:1.1322;stroke-opacity:0.733333"
       d="m 9.4141093,15.828703 -0.9061016,2.707623 c -0.020671,0.154433 0.076569,0.207829 0.1799222,0.209342 H 20.364648 c 0.149086,0.0064 0.195099,-0.09268 0.157097,-0.191173 l -0.950847,-2.727547 -0.155029,2.76e-4 0.981852,2.690935 c 0.02631,0.08992 -0.0074,0.136263 -0.09509,0.136263 H 8.7560546 c -0.1529622,0.0091 -0.1374156,-0.07473 -0.1126109,-0.142863 l 0.9441715,-2.684701 z"
       id="path18"
       inkscape:label="icon-blog-typewriter-5"
       sodipodi:nodetypes="ccccccccccccc" /><path
       style="display:inline;fill:#ffffff;fill-opacity:0.94902;stroke-width:1.32292;stroke-opacity:0.733333"
       d="m 9.2585321,14.639609 v 0.355534 H 8.6260125 c -0.096468,-0.0015 -0.1279067,-0.04167 -0.1322916,-0.132292 v -1.513086 c 0.1033529,-0.177767 0.2563151,-0.165365 0.3513997,0 l 0.00723,1.173055 c -0.00207,0.104386 0.024805,0.09302 0.079582,0.09612 h 0.3224608 z"
       id="path17"
       inkscape:label="icon-blog-typewriter-4"
       sodipodi:nodetypes="cccccccccc" /><path
       style="display:inline;fill:#ffffff;fill-opacity:0.94902;stroke-width:1.32292;stroke-opacity:0.733333"
       d="m 19.048678,12.909448 v 1.057299 l -0.264581,-0.0011 0.0011,-0.792716 c -2.01e-4,-0.26009 -6.58e-4,-0.26095 -0.265016,-0.266369 l -0.26476,0.0023 -5.01e-4,-0.264004 h 0.530201 c 0.263605,0.0014 0.263085,0.0017 0.26362,0.264591 z"
       id="path2"
       inkscape:label="icon-blog-typewriter-3"
       sodipodi:nodetypes="cccccccccc" /><path
       style="display:inline;fill:#ffffff;fill-opacity:0.94902;stroke-width:1.32292;stroke-opacity:0.733333"
       d="m 9.9763099,12.900678 v 1.057299 l 0.2645801,-0.0011 -0.0011,-0.792716 c 2.01e-4,-0.26009 6.58e-4,-0.26095 0.265016,-0.266369 l 0.26476,0.0023 5.01e-4,-0.264004 h -0.530201 c -0.2636041,0.0014 -0.2630841,0.0017 -0.2636191,0.264591 z"
       id="path25"
       inkscape:label="icon-blog-typewriter-2"
       sodipodi:nodetypes="cccccccccc" /><path
       style="display:inline;fill:#ffffff;fill-opacity:0.94902;stroke-width:1.32292;stroke-opacity:0.733333"
       d="m 9.4130546,15.84221 0.1746664,3.3e-5 -0.00195,-1.28204 c 0.00827,-0.148828 0.00334,-0.206753 0.1852448,-0.239826 l 3.1819542,0.02271 c 0.311051,1.380474 2.937068,1.254335 3.121752,-0.01943 l 3.200429,0.0048 c 0.150896,-0.0083 0.143019,0.145292 0.143019,0.145292 l -0.0022,1.368407 0.152544,1.1e-5 -0.001,-1.528478 c -0.02064,-0.08681 -0.01914,-0.113187 -0.134891,-0.139024 l -3.471648,0.0031 c 0.0061,1.380327 -2.92311,1.341246 -2.902158,3.72e-4 l -3.4297775,-2.34e-4 c -0.095085,0.01654 -0.2003402,0.01913 -0.2168766,0.223809 z"
       id="path13"
       inkscape:label="icon-blog-typewriter-1"
       sodipodi:nodetypes="ccccccccccccccccc" /><path
       style="display:inline;fill:#ffffff;fill-opacity:0.94902;stroke-width:1.32292;stroke-opacity:0.733333"
       d="m 10.97194,9.4257811 h 1.586387 V 7.8431077 h 5.501576 v 6.0043773 h -2.193171 c -0.105273,0.01497 -0.112019,0.04729 -0.122856,0.122856 -0.198738,1.090403 -2.166964,1.101896 -2.4651,-0.02597 -0.01099,-0.08353 -0.06408,-0.12609 -0.115755,-0.115755 H 10.963672 V 9.4299152 Z"
       id="path11"
       inkscape:label="icon-blog-paper-2"
       sodipodi:nodetypes="cccccccccccc" /><path
       style="fill:#ffffff;fill-opacity:0.94902;stroke-width:1.32292;stroke-opacity:0.733333"
       d="M 10.980208,9.3679035 12.501562,7.8465494 V 9.3596353 Z"
       id="path9"
       inkscape:label="icon-blog-paper-1" /></g><path
     style="display:inline;fill:#0b3f54;fill-opacity:0.796078;stroke:none;stroke-width:0.0264583;stroke-dasharray:none;stroke-opacity:0.733333"
     d="M 8.0325845,22.535058 H 21.265885 c -5.465653,3.302868 -8.365953,3.047597 -13.2333005,0 z"
     id="path36"
     sodipodi:nodetypes="ccc"
     inkscape:label="button-text-background"
     sodipodi:insensitive="true" /><path
     style="display:inline;fill:url(#linearGradient35);fill-opacity:0.95;stroke:none;stroke-width:0.0264583;stroke-dasharray:none;stroke-opacity:0.733333"
     d="M 25.711591,13.082355 C 26.440164,28.004033 6.5103261,30.084991 3.6684911,16.455793 l 0.843359,-0.760677 c 0.47961,2.104041 0.747762,4.204165 3.529115,6.350831 l -0.0048,0.493256 c 6.1154189,3.847011 8.8413969,2.377184 13.2262869,0.01519 l 0.0067,-0.52173 c 2.092871,-1.462581 3.430871,-5.039874 3.402326,-6.497237 l -0.465929,-0.303746 -0.01504,-0.530672 z"
     id="path34"
     sodipodi:nodetypes="ccccccccccc"
     inkscape:label="button-arrow-bottom"
     sodipodi:insensitive="true">

       <animateTransform 
         attributeName="transform" 
         type="rotate" 
         from="360 14.55 14.65" 
         to="0 14.55 14.65" 
         dur="30s" 
         repeatCount="indefinite"/>
     </path>

     <path
     style="display:inline;fill:url(#linearGradient32);fill-opacity:0.95;stroke:none;stroke-width:0.0264583;stroke-dasharray:none;stroke-opacity:0.733333"
     d="M 3.4891927,16.040365 C 2.7606196,1.1186866 22.690456,-0.96227099 25.532291,12.666927 l -0.843359,0.760677 C 24.209322,11.323563 23.94117,9.2234385 21.159817,7.0767731 l 0.0048,-0.4932566 C 15.049199,2.7365058 12.323221,4.2063329 7.9383309,6.5683273 L 7.931653,7.0900568 C 5.8387821,8.5526379 4.5007822,12.129931 4.5293272,13.587294 l 0.4659293,0.303746 0.015036,0.530672 z"
     id="path29"
     sodipodi:nodetypes="ccccccccccc"
     inkscape:label="button-arrow-top"
     sodipodi:insensitive="true">
     
       <animateTransform 
         attributeName="transform" 
         type="rotate" 
         from="360 14.55 14.65" 
         to="0 14.55 14.65" 
         dur="30s" 
         repeatCount="indefinite"/>
    </path>

     <text
     xml:space="preserve"
     transform="matrix(0.26458333,0,0,0.26458333,6.6341584,1.9589086)"
     id="text1"
     style="font-size:4.5px;text-align:start;writing-mode:lr-tb;direction:ltr;white-space:pre;shape-inside:url(#rect1);display:none;fill:#63cac9;fill-opacity:1;stroke-width:5;stroke-opacity:0.733333"
     inkscape:label="button-label"
     sodipodi:insensitive="true"><tspan
       x="23.865234"
       y="83.538452"
       id="tspan4"><tspan
         style="font-weight:900;font-family:'Inter Display';-inkscape-font-specification:'Inter Display Heavy';shape-inside:url(#rect1);display:inline"
         id="tspan1">BLOG</tspan></tspan></text><path
     style="font-weight:900;font-size:4.5px;font-family:'Inter Display';-inkscape-font-specification:'Inter Display Heavy';white-space:pre;display:inline;fill:#63cac9;fill-opacity:1;stroke-width:5;stroke-opacity:0.733333"
     d="m 24.041016,83.538452 v -3.273925 h 1.419433 q 0.560303,0 0.850342,0.230713 0.292236,0.228515 0.292236,0.586669 0,0.285645 -0.173584,0.481202 -0.173584,0.195556 -0.459228,0.250488 v 0.0044 q 0.210937,0.0066 0.37793,0.109864 0.169189,0.101074 0.265869,0.276855 0.09888,0.175781 0.09888,0.406494 0,0.268067 -0.134034,0.479004 -0.134033,0.20874 -0.386718,0.32959 -0.252686,0.118652 -0.608643,0.118652 z m 0.887695,-0.685546 h 0.483398 q 0.166993,0 0.26587,-0.08789 0.09888,-0.08789 0.09888,-0.235107 0,-0.147217 -0.09888,-0.235108 -0.09888,-0.08789 -0.26587,-0.08789 h -0.483398 z m 0,-1.291993 h 0.428467 q 0.151611,0 0.241699,-0.0835 0.09009,-0.0835 0.09009,-0.221924 0,-0.138427 -0.09009,-0.221923 -0.09009,-0.0835 -0.241699,-0.0835 h -0.428467 z m 2.036865,1.977539 v -3.273925 h 0.914063 v 2.500488 h 1.410644 v 0.773437 z m 3.963867,0.05273 q -0.446045,0 -0.808593,-0.195557 -0.360352,-0.195556 -0.571289,-0.571289 -0.210938,-0.37793 -0.210938,-0.920654 0,-0.547119 0.210938,-0.925049 0.210937,-0.37793 0.571289,-0.571289 0.362548,-0.195557 0.808593,-0.195557 0.446045,0 0.806397,0.195557 0.360351,0.193359 0.571289,0.571289 0.213135,0.37793 0.213135,0.925049 0,0.544922 -0.213135,0.922851 -0.210938,0.375733 -0.571289,0.571289 -0.360352,0.19336 -0.806397,0.19336 z m 0,-0.791016 q 0.322998,0 0.494385,-0.235107 0.173584,-0.237305 0.173584,-0.661377 0,-0.42627 -0.173584,-0.663574 -0.171387,-0.237305 -0.494385,-0.237305 -0.3208,0 -0.494384,0.237305 -0.173584,0.237304 -0.173584,0.663574 0,0.424072 0.173584,0.661377 0.173584,0.235107 0.494384,0.235107 z m 3.375,0.791016 q -0.487793,0 -0.850341,-0.206543 -0.360352,-0.206543 -0.560303,-0.584473 -0.197754,-0.380127 -0.197754,-0.896484 0,-0.547119 0.210937,-0.925049 0.210938,-0.37793 0.571289,-0.571289 0.362549,-0.195557 0.808594,-0.195557 0.399903,0 0.729492,0.147217 0.331788,0.147217 0.53833,0.413086 0.208741,0.265869 0.237305,0.621826 h -0.93164 q -0.03516,-0.182373 -0.16919,-0.285644 -0.131836,-0.105469 -0.366943,-0.105469 -0.347168,0 -0.527344,0.23291 -0.177979,0.230713 -0.177979,0.667969 0,0.437256 0.182374,0.667969 0.182373,0.228515 0.536132,0.228515 0.279053,0 0.428467,-0.118652 0.151611,-0.12085 0.158203,-0.318604 h -0.593261 v -0.652588 h 1.485351 v 0.472413 q 0,0.426269 -0.188965,0.742675 -0.188965,0.316407 -0.529541,0.492188 -0.338379,0.173584 -0.793213,0.173584 z"
     id="text4"
     inkscape:label="button-label-path-to-object"
     transform="matrix(0.26458333,0,0,0.26458333,6.6341584,1.9589086)"
     aria-label="BLOG"
     sodipodi:insensitive="true" /></svg>
