<?xml version="1.0" encoding="UTF-8" standalone="no"?>
<!-- Created with Inkscape (http://www.inkscape.org/) -->

<svg
   width="110"
   height="110"
   viewBox="0 0 29.104166 29.104167"
   version="1.1"
   id="svg1"
   xml:space="preserve"
   inkscape:version="1.4.2 (ebf0e940d0, 2025-05-08)"
   sodipodi:docname="menu-footer-button-project-purple.svg"
   xmlns:inkscape="http://www.inkscape.org/namespaces/inkscape"
   xmlns:sodipodi="http://sodipodi.sourceforge.net/DTD/sodipodi-0.dtd"
   xmlns:xlink="http://www.w3.org/1999/xlink"
   xmlns="http://www.w3.org/2000/svg"
   xmlns:svg="http://www.w3.org/2000/svg"><sodipodi:namedview
     id="namedview1"
     pagecolor="#ffffff"
     bordercolor="#000000"
     borderopacity="0.25"
     inkscape:showpageshadow="2"
     inkscape:pageopacity="0.0"
     inkscape:pagecheckerboard="0"
     inkscape:deskcolor="#d1d1d1"
     inkscape:document-units="px"
     inkscape:zoom="8"
     inkscape:cx="54.8125"
     inkscape:cy="73.1875"
     inkscape:window-width="1440"
     inkscape:window-height="1742"
     inkscape:window-x="0"
     inkscape:window-y="0"
     inkscape:window-maximized="0"
     inkscape:current-layer="svg1"
     showgrid="false"
     showguides="false"><inkscape:grid
       id="grid2"
       units="px"
       originx="0"
       originy="0"
       spacingx="0.26458333"
       spacingy="0.26458333"
       empcolor="#0099e5"
       empopacity="0.30196078"
       color="#0099e5"
       opacity="0.14901961"
       empspacing="5"
       enabled="true"
       visible="false" /></sodipodi:namedview><defs
     id="defs1"><linearGradient
       id="linearGradient8"
       inkscape:collect="always"><stop
         style="stop-color:#492058;stop-opacity:1;"
         offset="0"
         id="stop8" /><stop
         style="stop-color:#8100fe;stop-opacity:1;"
         offset="1"
         id="stop9" /></linearGradient><linearGradient
       id="linearGradient36"
       inkscape:collect="always"><stop
         style="stop-color:#c092f6;stop-opacity:1;"
         offset="0"
         id="stop35" /><stop
         style="stop-color:#9067f8;stop-opacity:1;"
         offset="1"
         id="stop36" /></linearGradient><linearGradient
       id="linearGradient31"
       inkscape:collect="always"><stop
         style="stop-color:#593c96;stop-opacity:1;"
         offset="0"
         id="stop31" /><stop
         style="stop-color:#aa89f6;stop-opacity:1;"
         offset="1"
         id="stop32" /></linearGradient><linearGradient
       id="linearGradient3"
       inkscape:collect="always"><stop
         style="stop-color:#ffffff;stop-opacity:0.53333336;"
         offset="0"
         id="stop3" /><stop
         style="stop-color:#ffffff;stop-opacity:0.33333334;"
         offset="1"
         id="stop4" /></linearGradient><linearGradient
       id="linearGradient11"
       inkscape:collect="always"><stop
         style="stop-color:#231b32;stop-opacity:1;"
         offset="0"
         id="stop11" /><stop
         style="stop-color:#5c4785;stop-opacity:1;"
         offset="1"
         id="stop12" /></linearGradient><linearGradient
       id="linearGradient6"
       inkscape:collect="always"><stop
         style="stop-color:#532d86;stop-opacity:1;"
         offset="0"
         id="stop5" /><stop
         style="stop-color:#ca76ef;stop-opacity:0.94901961;"
         offset="1"
         id="stop6" /></linearGradient><inkscape:path-effect
       effect="fillet_chamfer"
       id="path-effect7"
       is_visible="true"
       lpeversion="1"
       nodesatellites_param="C,0,0,1,0,1.3078761,0,1 @ C,0,0,1,0,1.3089094,0,1 @ C,0,0,1,0,1.3078762,0,1 @ C,0,0,1,0,1.309943,0,1"
       radius="0"
       unit="px"
       method="auto"
       mode="C"
       chamfer_steps="1"
       flexible="false"
       use_knot_distance="true"
       apply_no_radius="true"
       apply_with_radius="true"
       only_selected="false"
       hide_knots="false" /><inkscape:path-effect
       effect="fillet_chamfer"
       id="path-effect6"
       is_visible="true"
       lpeversion="1"
       nodesatellites_param="F,0,0,1,0,0,0,1 @ F,0,0,1,0,0,0,1 @ F,0,0,1,0,0,0,1 @ F,0,0,1,0,0,0,1"
       radius="0"
       unit="px"
       method="auto"
       mode="F"
       chamfer_steps="1"
       flexible="false"
       use_knot_distance="true"
       apply_no_radius="true"
       apply_with_radius="true"
       only_selected="false"
       hide_knots="false" /><inkscape:path-effect
       effect="fillet_chamfer"
       id="path-effect5"
       is_visible="true"
       lpeversion="1"
       nodesatellites_param="IF,0,0,1,0,0,0,1 @ IF,0,0,1,0,0,0,1 @ IF,0,0,1,0,0,0,1 @ IF,0,0,1,0,0,0,1"
       radius="0"
       unit="px"
       method="auto"
       mode="F"
       chamfer_steps="1"
       flexible="false"
       use_knot_distance="true"
       apply_no_radius="true"
       apply_with_radius="true"
       only_selected="false"
       hide_knots="false" /><linearGradient
       id="linearGradient1"
       inkscape:collect="always"><stop
         style="stop-color:#33f4e7;stop-opacity:0.94901961;"
         offset="0"
         id="stop1" /><stop
         style="stop-color:#019ae0;stop-opacity:0.94901961;"
         offset="1"
         id="stop2" /></linearGradient><inkscape:path-effect
       effect="fillet_chamfer"
       id="path-effect3"
       is_visible="true"
       lpeversion="1"
       nodesatellites_param="C,0,0,1,0,4.863755,0,1 @ C,0,0,1,0,4.863755,0,1 @ C,0,0,1,0,4.8636613,0,1 @ C,0,0,1,0,4.8657959,0,1"
       radius="0"
       unit="px"
       method="auto"
       mode="C"
       chamfer_steps="1"
       flexible="false"
       use_knot_distance="true"
       apply_no_radius="true"
       apply_with_radius="true"
       only_selected="false"
       hide_knots="false" /><inkscape:path-effect
       effect="fillet_chamfer"
       id="path-effect2"
       is_visible="true"
       lpeversion="1"
       nodesatellites_param="F,0,0,1,0,0,0,1 @ F,0,0,1,0,0,0,1 @ F,0,0,1,0,0,0,1 @ F,0,0,1,0,0,0,1"
       radius="0"
       unit="px"
       method="auto"
       mode="F"
       chamfer_steps="1"
       flexible="false"
       use_knot_distance="true"
       apply_no_radius="true"
       apply_with_radius="true"
       only_selected="false"
       hide_knots="false" /><inkscape:path-effect
       effect="fillet_chamfer"
       id="path-effect1"
       is_visible="true"
       lpeversion="1"
       nodesatellites_param="F,0,0,1,0,12.263458,0,1 @ F,0,0,1,0,0,0,1 @ F,0,0,1,0,0,0,1 @ F,0,0,1,0,0,0,1"
       radius="0"
       unit="px"
       method="auto"
       mode="F"
       chamfer_steps="1"
       flexible="false"
       use_knot_distance="true"
       apply_no_radius="true"
       apply_with_radius="true"
       only_selected="false"
       hide_knots="false" /><inkscape:path-effect
       effect="fillet_chamfer"
       id="path-effect3-7"
       is_visible="true"
       lpeversion="1"
       nodesatellites_param="F,0,0,1,0,4.863755,0,1 @ F,0,0,1,0,4.863755,0,1 @ F,0,0,1,0,4.8636613,0,1 @ F,0,0,1,0,4.8657959,0,1"
       radius="0"
       unit="px"
       method="auto"
       mode="F"
       chamfer_steps="1"
       flexible="false"
       use_knot_distance="true"
       apply_no_radius="true"
       apply_with_radius="true"
       only_selected="false"
       hide_knots="false" /><inkscape:path-effect
       effect="fillet_chamfer"
       id="path-effect3-75"
       is_visible="true"
       lpeversion="1"
       nodesatellites_param="C,0,0,1,0,4.863755,0,1 @ C,0,0,1,0,4.863755,0,1 @ C,0,0,1,0,4.8636613,0,1 @ C,0,0,1,0,4.8657959,0,1"
       radius="0"
       unit="px"
       method="auto"
       mode="C"
       chamfer_steps="1"
       flexible="false"
       use_knot_distance="true"
       apply_no_radius="true"
       apply_with_radius="true"
       only_selected="false"
       hide_knots="false" /><linearGradient
       inkscape:collect="always"
       xlink:href="#linearGradient1"
       id="linearGradient2"
       x1="4.8752956"
       y1="56.075455"
       x2="110.25435"
       y2="56.075455"
       gradientUnits="userSpaceOnUse"
       spreadMethod="repeat" /><linearGradient
       inkscape:collect="always"
       xlink:href="#linearGradient6"
       id="linearGradient4"
       x1="14.534451"
       y1="1.2646005"
       x2="14.534451"
       y2="27.845228"
       gradientUnits="userSpaceOnUse"
       gradientTransform="matrix(0.99933045,0,0,0.99866807,0.02736406,0.01655407)" /><linearGradient
       inkscape:collect="always"
       xlink:href="#linearGradient1"
       id="linearGradient5"
       x1="27.78129"
       y1="14.552082"
       x2="1.3228803"
       y2="14.552082"
       gradientUnits="userSpaceOnUse" /><linearGradient
       inkscape:collect="always"
       xlink:href="#linearGradient11"
       id="linearGradient12"
       x1="14.558857"
       y1="2.6487856"
       x2="14.558857"
       y2="26.453777"
       gradientUnits="userSpaceOnUse" /><linearGradient
       inkscape:collect="always"
       xlink:href="#linearGradient3"
       id="linearGradient7"
       x1="5.2574716"
       y1="7.0191703"
       x2="23.860237"
       y2="22.083393"
       gradientUnits="userSpaceOnUse" /><filter
       id="white-shadow"
       x="0"
       y="0"
       width="1"
       height="1"><feDropShadow
         dx="0"
         dy="0"
         stdDeviation="0.5"
         flood-color="#ffffff" /></filter><linearGradient
       inkscape:collect="always"
       xlink:href="#linearGradient31"
       id="linearGradient32"
       x1="14.822125"
       y1="5.0363903"
       x2="15.280301"
       y2="9.6902208"
       gradientUnits="userSpaceOnUse"
       gradientTransform="translate(0,-0.04960937)" /><linearGradient
       inkscape:collect="always"
       xlink:href="#linearGradient36"
       id="linearGradient35"
       gradientUnits="userSpaceOnUse"
       x1="14.026998"
       y1="8.26367"
       x2="14.531946"
       y2="12.356235"
       gradientTransform="rotate(180,14.600391,14.586164)" /><linearGradient
       inkscape:collect="always"
       xlink:href="#linearGradient8"
       id="linearGradient9"
       x1="18.607733"
       y1="18.649103"
       x2="16.323265"
       y2="12.230959"
       gradientUnits="userSpaceOnUse" /><rect
       x="23.864855"
       y="79.372734"
       width="20.948036"
       height="6.0987954"
       id="rect1" /><rect
       x="23.864855"
       y="79.372734"
       width="22.627415"
       height="5.8336304"
       id="rect1-0" /><rect
       x="23.864855"
       y="79.372734"
       width="22.627415"
       height="5.8336304"
       id="rect4" /></defs><path
     style="display:inline;opacity:1;fill:url(#linearGradient4);stroke:url(#linearGradient5);stroke-width:0.0264583;stroke-linejoin:miter;stroke-dasharray:none;stroke-opacity:1"
     id="rect2"
     width="26.431952"
     height="26.43195"
     x="1.336108"
     y="1.336108"
     sodipodi:type="rect"
     inkscape:path-effect="#path-effect7"
     d="m 2.6439841,1.336108 23.8151659,0 1.308909,1.3089094 V 26.460181 l -1.307876,1.307877 H 2.646051 L 1.336108,26.458115 V 2.6439841 Z"
     inkscape:label="button-gradient"
     sodipodi:insensitive="true" /><g
     inkscape:groupmode="layer"
     id="layer1"
     inkscape:label="button-border-white"
     sodipodi:insensitive="true"><path
       style="display:inline;fill:#ffffff;fill-opacity:0;stroke:#ffffff;stroke-width:1.50392;stroke-dasharray:none;stroke-opacity:0.745614"
       id="button-border-white"
       width="105.81932"
       height="99.870979"
       x="5.1323953"
       y="5.1323953"
       sodipodi:type="rect"
       transform="matrix(0.24625605,0,0,0.26110179,0.24950932,0.17375963)"
       d="M 9.9961503,5.1323953 H 106.08796 l 4.86376,4.863755 V 100.13971 l -4.86367,4.86366 H 9.9981912 L 5.1323953,100.13758 V 9.9961503 Z"
       inkscape:path-effect="#path-effect3-75"
       sodipodi:insensitive="true" /><path
       style="fill:#ffffff;fill-opacity:0.745098;stroke:#000000;stroke-width:0.0264583;stroke-opacity:0"
       d="m 2.7876039,27.395475 1.1792611,-0.0021 -2.2698403,-2.259504 0.00207,1.106086 z"
       id="path1-1"
       sodipodi:nodetypes="ccccc"
       inkscape:label="button-border-white-corner-bottomleft" /><path
       style="fill:#ffffff;fill-opacity:0.745098;stroke:#000000;stroke-width:0.0264583;stroke-opacity:0"
       d="m 27.389704,26.239967 v -1.106914 l -2.269839,2.261572 h 1.1805 z"
       id="path1-36"
       sodipodi:nodetypes="ccccc"
       inkscape:label="button-border-white-corner-bottomright" /><path
       style="fill:#ffffff;fill-opacity:0.745098;stroke:#000000;stroke-width:0.0264583;stroke-opacity:0"
       d="m 26.296799,1.7095055 -1.163757,0.00103 2.254336,2.3359849 V 2.8649903 Z"
       id="path1-3"
       sodipodi:nodetypes="ccccc"
       inkscape:label="button-border-white-corner-topright" /><path
       style="fill:#ffffff;fill-opacity:0.745098;stroke:#000000;stroke-width:0.0264583;stroke-opacity:0"
       d="M 1.6980876,2.8649414 V 3.9718547 L 3.967927,1.7102834 H 2.7874267 Z"
       id="path1"
       sodipodi:nodetypes="ccccc"
       inkscape:label="button-border-white-corner-topleft" /></g><path
     style="display:inline;opacity:1;fill:url(#linearGradient2);fill-opacity:0;fill-rule:nonzero;stroke:#000000;stroke-width:0.514217;stroke-dasharray:none;stroke-opacity:1"
     id="button-border-black"
     width="104.8648"
     height="101.88612"
     x="5.1323953"
     y="5.1323953"
     sodipodi:type="rect"
     d="M 9.9961503,5.1323953 H 105.13344 l 4.86375,4.863755 V 102.15486 l -4.86366,4.86366 -95.1353388,0 -4.8657959,-4.8658 V 9.9961503 Z"
     inkscape:path-effect="#path-effect3"
     transform="matrix(0.25105943,0,0,0.25838369,0.09989812,0.06231387)"
     inkscape:label="button-border-black"
     sodipodi:insensitive="true" /><path
     style="fill:#ffffff;fill-opacity:0.745098;stroke:#ffffff;stroke-width:0.0264583;stroke-dasharray:none;stroke-opacity:0.733333"
     d="M 2.8355626,2.8355626 26.262572,26.262572"
     id="path7"
     inkscape:label="button-line"
     sodipodi:insensitive="true" /><ellipse
     style="display:inline;fill:url(#linearGradient12);fill-opacity:0.745098;stroke:url(#linearGradient7);stroke-width:0.264583;stroke-dasharray:none;stroke-opacity:1"
     id="path10"
     cx="14.558857"
     cy="14.551282"
     rx="11.902496"
     ry="11.910072"
     inkscape:label="button-circle-gradient"
     sodipodi:insensitive="true" /><g
     inkscape:groupmode="layer"
     id="layer3"
     inkscape:label="icon-project"
     style="display:inline"
     sodipodi:insensitive="true"><path
       style="display:inline;fill:url(#linearGradient9);stroke-width:1.32292;stroke-opacity:0.733333"
       d="m 21.427116,10.575065 v 9.688976 H 9.2108072 C 8.2004531,20.255759 7.6687825,19.874981 7.6687825,18.516699 V 9.7888405 C 7.6605009,9.010371 7.6642706,8.3765857 8.4841481,8.3765857 H 10.98139 V 10.20292 h 4.289863 l 2.538308,-2.5383076 c 0.77847,-0.6542457 1.506353,0 1.506353,0 l 1.166082,1.1578006 c 0,0 0.306419,0.1879579 0.248448,0.7593877 v 0.4720503 h 0.690926 0.0083 z"
       id="path2"
       inkscape:label="icon-project-gradient"
       sodipodi:nodetypes="ccccccccccccccccc" /><path
       style="display:inline;fill:#ffffff;fill-opacity:0.94902;stroke-width:1.32292;stroke-opacity:0.733333"
       d="m 15.440918,17.541048 h 3.079915 V 14.44873 Z"
       id="path16"
       inkscape:label="icon-project-paper-3" /><path
       style="display:inline;fill:#ffffff;fill-opacity:0.94902;stroke-width:1.32292;stroke-opacity:0.733333"
       d="m 15.739164,10.846814 -3.555882,3.555881 -0.313233,1.742212 c 0,0 -0.01862,0.115397 0.105408,0.111263 l 1.727511,-0.298654 5.110797,-5.110797 h 1.941972 v 8.730962 H 19.602526 V 12.17456 c 0.01462,-0.192935 -0.184133,-0.128832 -0.184133,-0.128832 l -6.344942,6.344943 c -0.0877,0.15201 0.04978,0.184463 0.04978,0.184463 h 6.400574 c 0.05374,-0.0031 0.04685,0.04685 0.04685,0.04685 v 0.955117 H 9.1115944 c -0.7818787,-0.1575 -1.0009911,-1.608589 0,-1.850016 h 1.2092286 v -6.8802 z"
       id="path11"
       sodipodi:nodetypes="ccccccccccccccccccccc"
       inkscape:label="icon-project-paper-2" /><path
       style="display:inline;fill:#ffffff;fill-opacity:0.94902;stroke-width:1.32292;stroke-opacity:0.733333"
       d="m 8.4140962,9.9296274 v 8.2981536 c 0,0 0.1656319,-0.563148 0.8364408,-0.596274 h 0.960665 V 9.0434971 H 9.2091292 C 8.7122337,9.0849051 8.3892514,9.5900822 8.4140962,9.9296274 Z"
       id="path9"
       sodipodi:nodetypes="ccccccc"
       inkscape:label="icon-project-paper-1" /><path
       style="display:inline;fill:#ffffff;fill-opacity:0.94902;stroke-width:1.32292;stroke-opacity:0.733333"
       d="m 17.83457,8.9090168 1.403532,1.4035322 0.52796,-0.52796 c 0.176857,-0.1461631 0.01097,-0.3056334 0.01097,-0.3056334 L 18.730508,8.4324285 c 0,0 -0.203868,-0.2219148 -0.423112,0.017793 z"
       id="path15"
       inkscape:label="icon-project-pencil-3"
       sodipodi:nodetypes="ccccccc" /><path
       style="display:inline;fill:#ffffff;fill-opacity:0.94902;stroke-width:1.32292;stroke-opacity:0.733333"
       d="m 17.367415,9.38444 1.395264,1.395264 0.429948,-0.429948 -1.397331,-1.3973311 z"
       id="path14"
       inkscape:label="icon-project-pencil-3" /><path
       style="fill:#ffffff;fill-opacity:0.94902;stroke-width:1.32292;stroke-opacity:0.733333"
       d="m 12.166699,14.903483 1.087272,1.045931 0.409278,-0.07028 c 0,0 0.542832,-0.516183 0.506428,-0.506429 -0.0364,0.0098 -0.713134,-0.05581 -0.713134,-0.05581 l -0.136426,-0.0248 -0.04134,-0.248047 -0.04134,-0.471289 -0.07855,-0.132292 -0.409278,-0.02067 -0.248047,-0.0041 -0.252181,0.01654 z"
       id="path12"
       inkscape:label="icon-project-pencil-1" /></g><path
     style="fill:#3b2046;fill-opacity:0.8;stroke:none;stroke-width:0.0264583;stroke-dasharray:none;stroke-opacity:0.733333"
     d="M 8.0325845,22.535058 H 21.265885 c -5.465653,3.302868 -8.365953,3.047597 -13.2333005,0 z"
     id="path36"
     sodipodi:nodetypes="ccc"
     inkscape:label="button-text-background"
     sodipodi:insensitive="true" /><path
     style="display:inline;fill:url(#linearGradient35);fill-opacity:0.95;stroke:none;stroke-width:0.0264583;stroke-dasharray:none;stroke-opacity:0.733333"
     d="M 25.711591,13.082355 C 26.440164,28.004033 6.5103261,30.084991 3.6684911,16.455793 l 0.843359,-0.760677 c 0.47961,2.104041 0.747762,4.204165 3.529115,6.350831 l -0.0048,0.493256 c 6.1154189,3.847011 8.8413969,2.377184 13.2262869,0.01519 l 0.0067,-0.52173 c 2.092871,-1.462581 3.430871,-5.039874 3.402326,-6.497237 l -0.465929,-0.303746 -0.01504,-0.530672 z"
     id="path34"
     sodipodi:nodetypes="ccccccccccc"
     inkscape:label="button-arrow-bottom"
     sodipodi:insensitive="true" /><path
     style="display:inline;fill:url(#linearGradient32);fill-opacity:0.95;stroke:none;stroke-width:0.0264583;stroke-dasharray:none;stroke-opacity:0.733333"
     d="M 3.4891927,16.040365 C 2.7606196,1.1186866 22.690456,-0.96227099 25.532291,12.666927 l -0.843359,0.760677 C 24.209322,11.323563 23.94117,9.2234385 21.159817,7.0767731 l 0.0048,-0.4932566 C 15.049199,2.7365058 12.323221,4.2063329 7.9383309,6.5683273 L 7.931653,7.0900568 C 5.8387821,8.5526379 4.5007822,12.129931 4.5293272,13.587294 l 0.4659293,0.303746 0.015036,0.530672 z"
     id="path29"
     sodipodi:nodetypes="ccccccccccc"
     inkscape:label="button-arrow-top"
     sodipodi:insensitive="true" /><text
     xml:space="preserve"
     transform="matrix(0.26458333,0,0,0.26458333,5.4699917,1.9590301)"
     id="text1"
     style="font-size:4.5px;text-align:start;writing-mode:lr-tb;direction:ltr;white-space:pre;shape-inside:url(#rect1-0);display:none;fill:#a075f1;fill-opacity:1;stroke-width:5;stroke-opacity:0.733333"
     inkscape:label="button-label"
     sodipodi:insensitive="true"><tspan
       x="23.865234"
       y="83.538452"
       id="tspan4"><tspan
         style="font-weight:900;font-family:'Inter Display';-inkscape-font-specification:'Inter Display Heavy';shape-inside:url(#rect1-0);display:inline"
         id="tspan1">PROJECT</tspan></tspan></text><path
     style="font-weight:900;font-size:4.5px;font-family:'Inter Display';-inkscape-font-specification:'Inter Display Heavy';white-space:pre;fill:#a075f1;fill-opacity:1;stroke-width:5;stroke-opacity:0.733333"
     d="m 24.041016,83.538452 v -3.273925 h 1.390869 q 0.391113,0 0.676758,0.140625 0.285644,0.138427 0.439453,0.395507 0.156006,0.254883 0.156006,0.606446 0,0.349365 -0.156006,0.606445 -0.153809,0.25708 -0.439453,0.397705 -0.285645,0.138428 -0.676758,0.138428 h -0.476807 v 0.988769 z m 0.914062,-1.740234 h 0.408692 q 0.206542,0 0.327392,-0.105469 0.12085,-0.105468 0.12085,-0.285644 0,-0.180176 -0.12085,-0.285645 -0.12085,-0.105468 -0.327392,-0.105468 h -0.408692 z m 2.001709,1.740234 v -3.273925 h 1.390869 q 0.391114,0 0.676758,0.140625 0.285645,0.138427 0.439453,0.395507 0.156006,0.254883 0.156006,0.606446 0,0.30542 -0.131836,0.53833 -0.129639,0.230713 -0.366943,0.371338 l 0.599853,1.221679 h -0.951416 l -0.48999,-1.023925 H 27.87085 v 1.023925 z m 0.914063,-1.731445 h 0.408691 q 0.206543,0 0.327393,-0.109863 0.120849,-0.109863 0.120849,-0.290039 0,-0.180176 -0.120849,-0.290039 -0.12085,-0.109864 -0.327393,-0.109864 H 27.87085 Z m 3.561767,1.78418 q -0.446045,0 -0.808594,-0.195557 -0.360351,-0.195556 -0.571289,-0.571289 -0.210937,-0.37793 -0.210937,-0.920654 0,-0.547119 0.210937,-0.925049 0.210938,-0.37793 0.571289,-0.571289 0.362549,-0.195557 0.808594,-0.195557 0.446045,0 0.806397,0.195557 0.360351,0.193359 0.571289,0.571289 0.213134,0.37793 0.213134,0.925049 0,0.544922 -0.213134,0.922851 -0.210938,0.375733 -0.571289,0.571289 -0.360352,0.19336 -0.806397,0.19336 z m 0,-0.791016 q 0.322998,0 0.494385,-0.235107 0.173584,-0.237305 0.173584,-0.661377 0,-0.42627 -0.173584,-0.663574 -0.171387,-0.237305 -0.494385,-0.237305 -0.320801,0 -0.494385,0.237305 -0.173584,0.237304 -0.173584,0.663574 0,0.424072 0.173584,0.661377 0.173584,0.235107 0.494385,0.235107 z m 2.937744,0.791016 q -0.558105,0 -0.859131,-0.283447 -0.301025,-0.283448 -0.301025,-0.810791 v -0.259278 h 0.84375 v 0.268067 q 0,0.329589 0.301025,0.329589 0.301026,0 0.301026,-0.329589 v -2.241211 h 0.914062 v 2.258789 q 0,0.51416 -0.312011,0.791015 -0.309815,0.276856 -0.887696,0.276856 z m 1.55127,-0.05273 v -3.273925 h 2.535644 v 0.773437 h -1.621582 v 0.492188 h 1.496338 v 0.74707 h -1.496338 v 0.487793 h 1.621582 v 0.773437 z m 4.346191,0.05273 q -0.446045,0 -0.808593,-0.195557 -0.360352,-0.195556 -0.57129,-0.571289 -0.210937,-0.37793 -0.210937,-0.920654 0,-0.547119 0.210937,-0.925049 0.210938,-0.37793 0.57129,-0.571289 0.362548,-0.195557 0.808593,-0.195557 0.419678,0 0.744873,0.160401 0.327393,0.1604 0.529541,0.450439 0.202149,0.290039 0.246094,0.676758 h -0.920654 q -0.04175,-0.23291 -0.195557,-0.364746 -0.151611,-0.131836 -0.386719,-0.131836 -0.331787,0 -0.509765,0.235107 -0.175781,0.235108 -0.175781,0.665772 0,0.428467 0.175781,0.663574 0.175781,0.23291 0.509765,0.23291 0.235108,0 0.386719,-0.129638 0.153809,-0.131836 0.195557,-0.362549 h 0.920654 q -0.04614,0.386718 -0.248291,0.676758 -0.202148,0.287841 -0.527344,0.448242 -0.325195,0.158203 -0.744873,0.158203 z m 1.691895,-2.553223 v -0.773437 h 2.777344 v 0.773437 H 43.80542 v 2.500488 h -0.914063 v -2.500488 z"
     id="text4"
     inkscape:label="button-label-path-to-object"
     transform="matrix(0.26458333,0,0,0.26458333,5.4699917,1.9590301)"
     aria-label="PROJECT"
     sodipodi:insensitive="true" /></svg>
