<?xml version="1.0" encoding="UTF-8" standalone="no"?>
<!-- Created with Inkscape (http://www.inkscape.org/) -->

<svg
   width="110"
   height="110"
   viewBox="0 0 29.104166 29.104167"
   version="1.1"
   id="svg1"
   xml:space="preserve"
   inkscape:version="1.4.2 (ebf0e940d0, 2025-05-08)"
   sodipodi:docname="menu-footer-button-reading-blue.svg"
   xmlns:inkscape="http://www.inkscape.org/namespaces/inkscape"
   xmlns:sodipodi="http://sodipodi.sourceforge.net/DTD/sodipodi-0.dtd"
   xmlns:xlink="http://www.w3.org/1999/xlink"
   xmlns="http://www.w3.org/2000/svg"
   xmlns:svg="http://www.w3.org/2000/svg"><sodipodi:namedview
     id="namedview1"
     pagecolor="#ffffff"
     bordercolor="#000000"
     borderopacity="0.25"
     inkscape:showpageshadow="2"
     inkscape:pageopacity="0.0"
     inkscape:pagecheckerboard="0"
     inkscape:deskcolor="#d1d1d1"
     inkscape:document-units="px"
     inkscape:zoom="8"
     inkscape:cx="51.875"
     inkscape:cy="85.1875"
     inkscape:window-width="1654"
     inkscape:window-height="1742"
     inkscape:window-x="0"
     inkscape:window-y="0"
     inkscape:window-maximized="0"
     inkscape:current-layer="svg1"
     showgrid="true"
     showguides="false"><inkscape:grid
       id="grid2"
       units="px"
       originx="0"
       originy="0"
       spacingx="0.26458333"
       spacingy="0.26458333"
       empcolor="#0099e5"
       empopacity="0.30196078"
       color="#0099e5"
       opacity="0.14901961"
       empspacing="5"
       enabled="true"
       visible="true" /></sodipodi:namedview><defs
     id="defs1"><linearGradient
       id="linearGradient8"
       inkscape:collect="always"><stop
         style="stop-color:#027be0;stop-opacity:1;"
         offset="0"
         id="stop8" /><stop
         style="stop-color:#091f79;stop-opacity:1;"
         offset="1"
         id="stop9" /></linearGradient><linearGradient
       id="linearGradient36"
       inkscape:collect="always"><stop
         style="stop-color:#4da6f1;stop-opacity:1;"
         offset="0"
         id="stop35" /><stop
         style="stop-color:#2155b8;stop-opacity:1;"
         offset="1"
         id="stop36" /></linearGradient><linearGradient
       id="linearGradient31"
       inkscape:collect="always"><stop
         style="stop-color:#2155b8;stop-opacity:1;"
         offset="0"
         id="stop31" /><stop
         style="stop-color:#4da6f1;stop-opacity:1;"
         offset="1"
         id="stop32" /></linearGradient><linearGradient
       id="linearGradient3"
       inkscape:collect="always"><stop
         style="stop-color:#ffffff;stop-opacity:0.53333336;"
         offset="0"
         id="stop3" /><stop
         style="stop-color:#ffffff;stop-opacity:0.33333334;"
         offset="1"
         id="stop4" /></linearGradient><linearGradient
       id="linearGradient11"
       inkscape:collect="always"><stop
         style="stop-color:#030c3a;stop-opacity:1;"
         offset="0"
         id="stop11" /><stop
         style="stop-color:#143c72;stop-opacity:1;"
         offset="1"
         id="stop12" /></linearGradient><linearGradient
       id="linearGradient6"
       inkscape:collect="always"><stop
         style="stop-color:#034a8a;stop-opacity:1;"
         offset="0"
         id="stop5" /><stop
         style="stop-color:#33bff4;stop-opacity:0.94901961;"
         offset="1"
         id="stop6" /></linearGradient><inkscape:path-effect
       effect="fillet_chamfer"
       id="path-effect7"
       is_visible="true"
       lpeversion="1"
       nodesatellites_param="C,0,0,1,0,1.3078761,0,1 @ C,0,0,1,0,1.3089094,0,1 @ C,0,0,1,0,1.3078762,0,1 @ C,0,0,1,0,1.309943,0,1"
       radius="0"
       unit="px"
       method="auto"
       mode="C"
       chamfer_steps="1"
       flexible="false"
       use_knot_distance="true"
       apply_no_radius="true"
       apply_with_radius="true"
       only_selected="false"
       hide_knots="false" /><inkscape:path-effect
       effect="fillet_chamfer"
       id="path-effect6"
       is_visible="true"
       lpeversion="1"
       nodesatellites_param="F,0,0,1,0,0,0,1 @ F,0,0,1,0,0,0,1 @ F,0,0,1,0,0,0,1 @ F,0,0,1,0,0,0,1"
       radius="0"
       unit="px"
       method="auto"
       mode="F"
       chamfer_steps="1"
       flexible="false"
       use_knot_distance="true"
       apply_no_radius="true"
       apply_with_radius="true"
       only_selected="false"
       hide_knots="false" /><inkscape:path-effect
       effect="fillet_chamfer"
       id="path-effect5"
       is_visible="true"
       lpeversion="1"
       nodesatellites_param="IF,0,0,1,0,0,0,1 @ IF,0,0,1,0,0,0,1 @ IF,0,0,1,0,0,0,1 @ IF,0,0,1,0,0,0,1"
       radius="0"
       unit="px"
       method="auto"
       mode="F"
       chamfer_steps="1"
       flexible="false"
       use_knot_distance="true"
       apply_no_radius="true"
       apply_with_radius="true"
       only_selected="false"
       hide_knots="false" /><linearGradient
       id="linearGradient1"
       inkscape:collect="always"><stop
         style="stop-color:#33f4e7;stop-opacity:0.94901961;"
         offset="0"
         id="stop1" /><stop
         style="stop-color:#019ae0;stop-opacity:0.94901961;"
         offset="1"
         id="stop2" /></linearGradient><inkscape:path-effect
       effect="fillet_chamfer"
       id="path-effect3"
       is_visible="true"
       lpeversion="1"
       nodesatellites_param="C,0,0,1,0,4.863755,0,1 @ C,0,0,1,0,4.863755,0,1 @ C,0,0,1,0,4.8636613,0,1 @ C,0,0,1,0,4.8657959,0,1"
       radius="0"
       unit="px"
       method="auto"
       mode="C"
       chamfer_steps="1"
       flexible="false"
       use_knot_distance="true"
       apply_no_radius="true"
       apply_with_radius="true"
       only_selected="false"
       hide_knots="false" /><inkscape:path-effect
       effect="fillet_chamfer"
       id="path-effect2"
       is_visible="true"
       lpeversion="1"
       nodesatellites_param="F,0,0,1,0,0,0,1 @ F,0,0,1,0,0,0,1 @ F,0,0,1,0,0,0,1 @ F,0,0,1,0,0,0,1"
       radius="0"
       unit="px"
       method="auto"
       mode="F"
       chamfer_steps="1"
       flexible="false"
       use_knot_distance="true"
       apply_no_radius="true"
       apply_with_radius="true"
       only_selected="false"
       hide_knots="false" /><inkscape:path-effect
       effect="fillet_chamfer"
       id="path-effect1"
       is_visible="true"
       lpeversion="1"
       nodesatellites_param="F,0,0,1,0,12.263458,0,1 @ F,0,0,1,0,0,0,1 @ F,0,0,1,0,0,0,1 @ F,0,0,1,0,0,0,1"
       radius="0"
       unit="px"
       method="auto"
       mode="F"
       chamfer_steps="1"
       flexible="false"
       use_knot_distance="true"
       apply_no_radius="true"
       apply_with_radius="true"
       only_selected="false"
       hide_knots="false" /><inkscape:path-effect
       effect="fillet_chamfer"
       id="path-effect3-7"
       is_visible="true"
       lpeversion="1"
       nodesatellites_param="F,0,0,1,0,4.863755,0,1 @ F,0,0,1,0,4.863755,0,1 @ F,0,0,1,0,4.8636613,0,1 @ F,0,0,1,0,4.8657959,0,1"
       radius="0"
       unit="px"
       method="auto"
       mode="F"
       chamfer_steps="1"
       flexible="false"
       use_knot_distance="true"
       apply_no_radius="true"
       apply_with_radius="true"
       only_selected="false"
       hide_knots="false" /><inkscape:path-effect
       effect="fillet_chamfer"
       id="path-effect3-75"
       is_visible="true"
       lpeversion="1"
       nodesatellites_param="C,0,0,1,0,4.863755,0,1 @ C,0,0,1,0,4.863755,0,1 @ C,0,0,1,0,4.8636613,0,1 @ C,0,0,1,0,4.8657959,0,1"
       radius="0"
       unit="px"
       method="auto"
       mode="C"
       chamfer_steps="1"
       flexible="false"
       use_knot_distance="true"
       apply_no_radius="true"
       apply_with_radius="true"
       only_selected="false"
       hide_knots="false" /><linearGradient
       inkscape:collect="always"
       xlink:href="#linearGradient1"
       id="linearGradient2"
       x1="4.8752956"
       y1="56.075455"
       x2="110.25435"
       y2="56.075455"
       gradientUnits="userSpaceOnUse"
       spreadMethod="repeat" /><linearGradient
       inkscape:collect="always"
       xlink:href="#linearGradient6"
       id="linearGradient4"
       x1="14.534451"
       y1="1.2646005"
       x2="14.534451"
       y2="27.845228"
       gradientUnits="userSpaceOnUse"
       gradientTransform="matrix(0.99933045,0,0,0.99866807,0.02736406,0.01655407)" /><linearGradient
       inkscape:collect="always"
       xlink:href="#linearGradient1"
       id="linearGradient5"
       x1="27.78129"
       y1="14.552082"
       x2="1.3228803"
       y2="14.552082"
       gradientUnits="userSpaceOnUse" /><linearGradient
       inkscape:collect="always"
       xlink:href="#linearGradient11"
       id="linearGradient12"
       x1="14.558857"
       y1="2.6487856"
       x2="14.558857"
       y2="26.453777"
       gradientUnits="userSpaceOnUse" /><linearGradient
       inkscape:collect="always"
       xlink:href="#linearGradient3"
       id="linearGradient7"
       x1="5.2574716"
       y1="7.0191703"
       x2="23.860237"
       y2="22.083393"
       gradientUnits="userSpaceOnUse" /><filter
       id="white-shadow"
       x="0"
       y="0"
       width="1"
       height="1"><feDropShadow
         dx="0"
         dy="0"
         stdDeviation="0.5"
         flood-color="#ffffff" /></filter><linearGradient
       inkscape:collect="always"
       xlink:href="#linearGradient31"
       id="linearGradient32"
       x1="14.822125"
       y1="5.0363903"
       x2="15.280301"
       y2="9.6902208"
       gradientUnits="userSpaceOnUse"
       gradientTransform="translate(0,-0.04960937)" /><linearGradient
       inkscape:collect="always"
       xlink:href="#linearGradient36"
       id="linearGradient35"
       gradientUnits="userSpaceOnUse"
       x1="14.026998"
       y1="8.26367"
       x2="14.531946"
       y2="12.356235"
       gradientTransform="rotate(180,14.600391,14.586164)" /><rect
       x="23.864854"
       y="79.372735"
       width="20.948037"
       height="6.0987956"
       id="rect1" /><rect
       x="23.864854"
       y="79.372735"
       width="20.948037"
       height="6.0987956"
       id="rect4" /><rect
       x="23.864854"
       y="79.372735"
       width="20.948037"
       height="6.0987956"
       id="rect5" /><linearGradient
       inkscape:collect="always"
       xlink:href="#linearGradient8"
       id="linearGradient9"
       x1="14.460176"
       y1="14.537474"
       x2="14.61582"
       y2="19.868345"
       gradientUnits="userSpaceOnUse"
       gradientTransform="matrix(1.0321581,0,0,1.0077207,-0.50618985,-0.12297365)" /></defs><path
     style="display:inline;opacity:1;fill:url(#linearGradient4);stroke:url(#linearGradient5);stroke-width:0.0264583;stroke-linejoin:miter;stroke-dasharray:none;stroke-opacity:1"
     id="rect2"
     width="26.431952"
     height="26.43195"
     x="1.336108"
     y="1.336108"
     sodipodi:type="rect"
     inkscape:path-effect="#path-effect7"
     d="m 2.6439841,1.336108 23.8151659,0 1.308909,1.3089094 V 26.460181 l -1.307876,1.307877 H 2.646051 L 1.336108,26.458115 V 2.6439841 Z"
     inkscape:label="button-gradient"
     sodipodi:insensitive="true" /><g
     inkscape:groupmode="layer"
     id="layer1"
     inkscape:label="button-border-white"
     sodipodi:insensitive="true"><path
       style="display:inline;fill:#ffffff;fill-opacity:0;stroke:#ffffff;stroke-width:1.50392;stroke-dasharray:none;stroke-opacity:0.745614"
       id="button-border-white"
       width="105.81932"
       height="99.870979"
       x="5.1323953"
       y="5.1323953"
       sodipodi:type="rect"
       transform="matrix(0.24625605,0,0,0.26110179,0.24950932,0.17375963)"
       d="M 9.9961503,5.1323953 H 106.08796 l 4.86376,4.863755 V 100.13971 l -4.86367,4.86366 H 9.9981912 L 5.1323953,100.13758 V 9.9961503 Z"
       inkscape:path-effect="#path-effect3-75"
       sodipodi:insensitive="true" /><path
       style="fill:#ffffff;fill-opacity:0.745098;stroke:#000000;stroke-width:0.0264583;stroke-opacity:0"
       d="m 2.7876039,27.395475 1.1792611,-0.0021 -2.2698403,-2.259504 0.00207,1.106086 z"
       id="path1-1"
       sodipodi:nodetypes="ccccc"
       inkscape:label="button-border-white-corner-bottomleft" /><path
       style="fill:#ffffff;fill-opacity:0.745098;stroke:#000000;stroke-width:0.0264583;stroke-opacity:0"
       d="m 27.389704,26.239967 v -1.106914 l -2.269839,2.261572 h 1.1805 z"
       id="path1-36"
       sodipodi:nodetypes="ccccc"
       inkscape:label="button-border-white-corner-bottomright" /><path
       style="fill:#ffffff;fill-opacity:0.745098;stroke:#000000;stroke-width:0.0264583;stroke-opacity:0"
       d="m 26.296799,1.7095055 -1.163757,0.00103 2.254336,2.3359849 V 2.8649903 Z"
       id="path1-3"
       sodipodi:nodetypes="ccccc"
       inkscape:label="button-border-white-corner-topright" /><path
       style="fill:#ffffff;fill-opacity:0.745098;stroke:#000000;stroke-width:0.0264583;stroke-opacity:0"
       d="M 1.6980876,2.8649414 V 3.9718547 L 3.967927,1.7102834 H 2.7874267 Z"
       id="path1"
       sodipodi:nodetypes="ccccc"
       inkscape:label="button-border-white-corner-topleft" /></g><path
     style="display:inline;opacity:1;fill:url(#linearGradient2);fill-opacity:0;fill-rule:nonzero;stroke:#000000;stroke-width:0.514217;stroke-dasharray:none;stroke-opacity:1"
     id="button-border-black"
     width="104.8648"
     height="101.88612"
     x="5.1323953"
     y="5.1323953"
     sodipodi:type="rect"
     d="M 9.9961503,5.1323953 H 105.13344 l 4.86375,4.863755 V 102.15486 l -4.86366,4.86366 H 9.9981912 l -4.8657959,-4.8658 V 9.9961503 Z"
     inkscape:path-effect="#path-effect3"
     transform="matrix(0.25105943,0,0,0.25838369,0.09989812,0.06231387)"
     inkscape:label="button-border-black"
     sodipodi:insensitive="true" /><path
     style="fill:#ffffff;fill-opacity:0.745098;stroke:#ffffff;stroke-width:0.0264583;stroke-dasharray:none;stroke-opacity:0.733333"
     d="M 2.8355626,2.8355626 26.262572,26.262572"
     id="path7"
     inkscape:label="button-line"
     sodipodi:insensitive="true" /><ellipse
     style="display:inline;fill:url(#linearGradient12);fill-opacity:0.745098;stroke:url(#linearGradient7);stroke-width:0.264583;stroke-dasharray:none;stroke-opacity:1"
     id="path10"
     cx="14.558857"
     cy="14.551282"
     rx="11.902496"
     ry="11.910072"
     inkscape:label="button-circle-gradient"
     sodipodi:insensitive="true" /><g
     inkscape:groupmode="layer"
     id="layer3"
     inkscape:label="icon-reading"
     transform="matrix(0.842579,0,0,0.842579,2.3468108,2.3530174)"
     sodipodi:insensitive="true"><path
       style="fill:url(#linearGradient9);stroke-width:1.60127;stroke-opacity:0.733333"
       d="M 6.9893593,20.793393 H 21.897179 l 0.640997,-10.2422 c 0,0 -1.270392,-0.528909 -1.296772,-0.52876 -2.644242,0.01493 -4.862436,-3.088108 -6.76545,-0.8646862 -1.901693,-2.2252442 -4.110362,0.8806752 -6.8350227,0.8936182 -0.041132,1.95e-4 -1.217506,0.499828 -1.217506,0.499828 z"
       id="path4"
       inkscape:label="icon-reading-gradient"
       sodipodi:nodetypes="cccscscc" /><path
       style="fill:#ffffff;fill-opacity:0.94902;stroke-width:1.32292;stroke-opacity:0.733333"
       d="m 7.8886303,10.933842 0.5378799,8.483302 H 20.598248 l 0.527099,-8.467853 0.533302,0.138022 -0.535369,8.859878 H 7.8886303 l -0.521802,-8.859878 z"
       id="path3"
       inkscape:label="icon-reading-fill-book-2" /><path
       style="fill:#ffffff;fill-opacity:0.94902;stroke-width:1.32292;stroke-opacity:0.733333"
       d="m 14.369171,10.159675 c -2.525697,-1.8708867 -3.021008,0.50764 -5.9442685,0.53103 l 0.5275446,8.204637 c 2.9021489,0 2.9235109,-1.888426 5.3556629,0 h 0.204721 0.18115 c 2.447396,-1.860352 2.477086,-0.0083 5.370966,0 l 0.533301,-8.208567 c -2.95834,0.02339 -3.465284,-2.3904606 -5.967595,-0.531267 l 0.01654,8.739518 -0.289388,10e-4 z"
       id="path2"
       inkscape:label="icon-reading-fill-book-1"
       sodipodi:nodetypes="cccccccccccc" /></g><path
     style="fill:#0d2067;fill-opacity:0.796078;stroke:none;stroke-width:0.0264583;stroke-dasharray:none;stroke-opacity:0.733333"
     d="M 8.0325845,22.535058 H 21.265885 c -5.465653,3.302868 -8.365953,3.047597 -13.2333005,0 z"
     id="path36"
     sodipodi:nodetypes="ccc"
     inkscape:label="button-text-background"
     sodipodi:insensitive="true" /><path
     style="display:inline;fill:url(#linearGradient35);fill-opacity:0.95;stroke:none;stroke-width:0.0264583;stroke-dasharray:none;stroke-opacity:0.733333"
     d="M 25.711591,13.082355 C 26.440164,28.004033 6.5103261,30.084991 3.6684911,16.455793 l 0.843359,-0.760677 c 0.47961,2.104041 0.747762,4.204165 3.529115,6.350831 l -0.0048,0.493256 c 6.1154189,3.847011 8.8413969,2.377184 13.2262869,0.01519 l 0.0067,-0.52173 c 2.092871,-1.462581 3.430871,-5.039874 3.402326,-6.497237 l -0.465929,-0.303746 -0.01504,-0.530672 z"
     id="path34"
     sodipodi:nodetypes="ccccccccccc"
     inkscape:label="button-arrow-bottom"
     sodipodi:insensitive="true">

       <animateTransform 
         attributeName="transform" 
         type="rotate" 
         from="360 14.55 14.65" 
         to="0 14.55 14.65" 
         dur="30s" 
         repeatCount="indefinite"/>
    </path>
     
     <path
     style="display:inline;fill:url(#linearGradient32);fill-opacity:0.95;stroke:none;stroke-width:0.0264583;stroke-dasharray:none;stroke-opacity:0.733333"
     d="M 3.4891927,16.040365 C 2.7606196,1.1186866 22.690456,-0.96227099 25.532291,12.666927 l -0.843359,0.760677 C 24.209322,11.323563 23.94117,9.2234385 21.159817,7.0767731 l 0.0048,-0.4932566 C 15.049199,2.7365058 12.323221,4.2063329 7.9383309,6.5683273 L 7.931653,7.0900568 C 5.8387821,8.5526379 4.5007822,12.129931 4.5293272,13.587294 l 0.4659293,0.303746 0.015036,0.530672 z"
     id="path29"
     sodipodi:nodetypes="ccccccccccc"
     inkscape:label="button-arrow-top"
     sodipodi:insensitive="true">

       <animateTransform 
         attributeName="transform" 
         type="rotate" 
         from="360 14.55 14.65" 
         to="0 14.55 14.65" 
         dur="30s" 
         repeatCount="indefinite"/>
    </path>
     
     <text
     xml:space="preserve"
     transform="matrix(0.26458333,0,0,0.26458333,5.5229084,1.9589086)"
     id="text1"
     style="font-size:4.5px;text-align:start;writing-mode:lr-tb;direction:ltr;white-space:pre;shape-inside:url(#rect1);display:none;fill:#4da6f1;fill-opacity:1;stroke-width:5;stroke-opacity:0.733333"
     inkscape:label="button-label"
     sodipodi:insensitive="true"><tspan
       x="23.865234"
       y="83.538452"
       id="tspan3"><tspan
         style="font-weight:900;font-family:'Inter Display';-inkscape-font-specification:'Inter Display Heavy';shape-inside:url(#rect1);display:inline"
         id="tspan2">READING</tspan></tspan></text><path
     style="font-weight:900;font-size:4.5px;font-family:'Inter Display';-inkscape-font-specification:'Inter Display Heavy';white-space:pre;fill:#4da6f1;fill-opacity:1;stroke-width:5;stroke-opacity:0.733333"
     d="m 24.041016,83.538452 v -3.273925 h 1.390869 q 0.391113,0 0.676758,0.140625 0.285644,0.138427 0.439453,0.395507 0.156006,0.254883 0.156006,0.606446 0,0.30542 -0.131836,0.53833 -0.129639,0.230713 -0.366944,0.371338 l 0.599854,1.221679 H 25.85376 l -0.48999,-1.023925 h -0.408692 v 1.023925 z m 0.914062,-1.731445 h 0.408692 q 0.206542,0 0.327392,-0.109863 0.12085,-0.109863 0.12085,-0.290039 0,-0.180176 -0.12085,-0.290039 -0.12085,-0.109864 -0.327392,-0.109864 h -0.408692 z m 2.080811,1.731445 v -3.273925 h 2.535644 v 0.773437 h -1.621582 v 0.492188 h 1.496338 v 0.74707 h -1.496338 v 0.487793 h 1.621582 v 0.773437 z m 2.66748,0 1.098633,-3.273925 h 1.230469 l 1.109619,3.273925 h -1.02832 l -0.156006,-0.53833 h -1.094239 l -0.1604,0.53833 z m 1.371094,-1.241455 h 0.681152 l -0.0088,-0.02856 q -0.08569,-0.296631 -0.166992,-0.58667 -0.0813,-0.290039 -0.1604,-0.588867 -0.0813,0.298828 -0.164795,0.588867 -0.0835,0.290039 -0.171387,0.58667 z m 3.522217,1.241455 h -1.278809 v -3.273925 h 1.265625 q 0.505371,0 0.881104,0.202148 0.375732,0.202149 0.582275,0.571289 0.206543,0.366944 0.206543,0.865723 0,0.496582 -0.204346,0.863525 -0.204345,0.366944 -0.575683,0.569092 -0.371338,0.202148 -0.876709,0.202148 z m -0.364746,-0.755859 h 0.3208 q 0.399903,0 0.588868,-0.215332 0.188964,-0.217529 0.188964,-0.663574 0,-0.45044 -0.195556,-0.665772 -0.195557,-0.217529 -0.608643,-0.217529 h -0.294433 z m 3.199218,-2.518066 v 3.273925 H 36.51709 v -3.273925 z m 0.351563,3.273925 v -3.273925 h 0.93164 l 0.797608,1.2854 q 0.05713,0.09229 0.149414,0.259277 0.09228,0.166993 0.188965,0.342774 -0.0066,-0.197754 -0.0088,-0.384522 -0.0022,-0.186767 -0.0022,-0.303222 v -1.199707 h 0.914063 v 3.273925 H 39.821777 L 39.076904,82.34314 q -0.07031,-0.112061 -0.173584,-0.290039 -0.101074,-0.180176 -0.217529,-0.393311 0.0088,0.221924 0.0088,0.404297 0.0022,0.180176 0.0022,0.279053 v 1.195312 z m 4.842773,0.05273 q -0.487793,0 -0.850342,-0.206543 -0.360351,-0.206543 -0.560302,-0.584473 -0.197754,-0.380127 -0.197754,-0.896484 0,-0.547119 0.210937,-0.925049 0.210938,-0.37793 0.571289,-0.571289 0.362549,-0.195557 0.808594,-0.195557 0.399902,0 0.729492,0.147217 0.331787,0.147217 0.53833,0.413086 0.208741,0.265869 0.237305,0.621826 h -0.931641 q -0.03516,-0.182373 -0.169189,-0.285644 -0.131836,-0.105469 -0.366943,-0.105469 -0.347168,0 -0.527344,0.23291 -0.177979,0.230713 -0.177979,0.667969 0,0.437256 0.182373,0.667969 0.182373,0.228515 0.536133,0.228515 0.279053,0 0.428467,-0.118652 0.151611,-0.12085 0.158203,-0.318604 h -0.593262 v -0.652588 h 1.485352 v 0.472413 q 0,0.426269 -0.188965,0.742675 -0.188965,0.316407 -0.529541,0.492188 -0.338379,0.173584 -0.793213,0.173584 z"
     id="text5"
     inkscape:label="button-label-object-to-path"
     transform="matrix(0.26458333,0,0,0.26458333,5.5229085,1.9589086)"
     aria-label="READING"
     sodipodi:insensitive="true" /></svg>
