<?xml version="1.0" encoding="UTF-8" standalone="no"?>
<!-- Created with Inkscape (http://www.inkscape.org/) -->

<svg
   width="110"
   height="110"
   viewBox="0 0 29.104166 29.104167"
   version="1.1"
   id="svg1"
   xml:space="preserve"
   inkscape:version="1.4.3 (0d15f75042, 2025-12-25)"
   sodipodi:docname="menu-button-game-orange.svg"
   xmlns:inkscape="http://www.inkscape.org/namespaces/inkscape"
   xmlns:sodipodi="http://sodipodi.sourceforge.net/DTD/sodipodi-0.dtd"
   xmlns:xlink="http://www.w3.org/1999/xlink"
   xmlns="http://www.w3.org/2000/svg"
   xmlns:svg="http://www.w3.org/2000/svg"><sodipodi:namedview
   id="namedview1"
   pagecolor="#ffffff"
   bordercolor="#000000"
   borderopacity="0.25"
   inkscape:showpageshadow="2"
   inkscape:pageopacity="0.0"
   inkscape:pagecheckerboard="0"
   inkscape:deskcolor="#d1d1d1"
   inkscape:document-units="px"
   inkscape:zoom="11.313709"
   inkscape:cx="34.029512"
   inkscape:cy="59.043414"
   inkscape:window-width="2880"
   inkscape:window-height="1732"
   inkscape:window-x="0"
   inkscape:window-y="0"
   inkscape:window-maximized="1"
   inkscape:current-layer="svg1"
   showgrid="true"
   showguides="false"><inkscape:grid
     id="grid2"
     units="px"
     originx="0"
     originy="0"
     spacingx="0.26458333"
     spacingy="0.26458333"
     empcolor="#0099e5"
     empopacity="0.30196078"
     color="#0099e5"
     opacity="0.14901961"
     empspacing="5"
     enabled="true"
     visible="true" /></sodipodi:namedview><defs
   id="defs1"><linearGradient
     id="linearGradient8"
     inkscape:collect="always"><stop
       style="stop-color:#e1800b;stop-opacity:1;"
       offset="0"
       id="stop8" /><stop
       style="stop-color:#ffba11;stop-opacity:1;"
       offset="1"
       id="stop9" /></linearGradient><linearGradient
     id="linearGradient36"
     inkscape:collect="always"><stop
       style="stop-color:#ffbe30;stop-opacity:1;"
       offset="0"
       id="stop35" /><stop
       style="stop-color:#e58400;stop-opacity:1;"
       offset="1"
       id="stop36" /></linearGradient><linearGradient
     id="linearGradient31"
     inkscape:collect="always"><stop
       style="stop-color:#e58400;stop-opacity:1;"
       offset="0"
       id="stop31" /><stop
       style="stop-color:#ffbe30;stop-opacity:1;"
       offset="1"
       id="stop32" /></linearGradient><linearGradient
     id="linearGradient3"
     inkscape:collect="always"><stop
       style="stop-color:#ffffff;stop-opacity:0.53333336;"
       offset="0"
       id="stop3" /><stop
       style="stop-color:#ffffff;stop-opacity:0.33333334;"
       offset="1"
       id="stop4" /></linearGradient><linearGradient
     id="linearGradient11"
     inkscape:collect="always"><stop
       style="stop-color:#3a2103;stop-opacity:1;"
       offset="0"
       id="stop11" /><stop
       style="stop-color:#725b14;stop-opacity:1;"
       offset="1"
       id="stop12" /></linearGradient><linearGradient
     id="linearGradient6"
     inkscape:collect="always"><stop
       style="stop-color:#d17300;stop-opacity:1;"
       offset="0"
       id="stop5" /><stop
       style="stop-color:#f7c328;stop-opacity:0.94901961;"
       offset="1"
       id="stop6" /></linearGradient><inkscape:path-effect
     effect="fillet_chamfer"
     id="path-effect7"
     is_visible="true"
     lpeversion="1"
     nodesatellites_param="C,0,0,1,0,1.3078761,0,1 @ C,0,0,1,0,1.3089094,0,1 @ C,0,0,1,0,1.3078762,0,1 @ C,0,0,1,0,1.309943,0,1"
     radius="0"
     unit="px"
     method="auto"
     mode="C"
     chamfer_steps="1"
     flexible="false"
     use_knot_distance="true"
     apply_no_radius="true"
     apply_with_radius="true"
     only_selected="false"
     hide_knots="false" /><inkscape:path-effect
     effect="fillet_chamfer"
     id="path-effect6"
     is_visible="true"
     lpeversion="1"
     nodesatellites_param="F,0,0,1,0,0,0,1 @ F,0,0,1,0,0,0,1 @ F,0,0,1,0,0,0,1 @ F,0,0,1,0,0,0,1"
     radius="0"
     unit="px"
     method="auto"
     mode="F"
     chamfer_steps="1"
     flexible="false"
     use_knot_distance="true"
     apply_no_radius="true"
     apply_with_radius="true"
     only_selected="false"
     hide_knots="false" /><inkscape:path-effect
     effect="fillet_chamfer"
     id="path-effect5"
     is_visible="true"
     lpeversion="1"
     nodesatellites_param="IF,0,0,1,0,0,0,1 @ IF,0,0,1,0,0,0,1 @ IF,0,0,1,0,0,0,1 @ IF,0,0,1,0,0,0,1"
     radius="0"
     unit="px"
     method="auto"
     mode="F"
     chamfer_steps="1"
     flexible="false"
     use_knot_distance="true"
     apply_no_radius="true"
     apply_with_radius="true"
     only_selected="false"
     hide_knots="false" /><linearGradient
     id="linearGradient1"
     inkscape:collect="always"><stop
       style="stop-color:#33f4e7;stop-opacity:0.94901961;"
       offset="0"
       id="stop1" /><stop
       style="stop-color:#019ae0;stop-opacity:0.94901961;"
       offset="1"
       id="stop2" /></linearGradient><inkscape:path-effect
     effect="fillet_chamfer"
     id="path-effect3"
     is_visible="true"
     lpeversion="1"
     nodesatellites_param="C,0,0,1,0,4.863755,0,1 @ C,0,0,1,0,4.863755,0,1 @ C,0,0,1,0,4.8636613,0,1 @ C,0,0,1,0,4.8657959,0,1"
     radius="0"
     unit="px"
     method="auto"
     mode="C"
     chamfer_steps="1"
     flexible="false"
     use_knot_distance="true"
     apply_no_radius="true"
     apply_with_radius="true"
     only_selected="false"
     hide_knots="false" /><inkscape:path-effect
     effect="fillet_chamfer"
     id="path-effect2"
     is_visible="true"
     lpeversion="1"
     nodesatellites_param="F,0,0,1,0,0,0,1 @ F,0,0,1,0,0,0,1 @ F,0,0,1,0,0,0,1 @ F,0,0,1,0,0,0,1"
     radius="0"
     unit="px"
     method="auto"
     mode="F"
     chamfer_steps="1"
     flexible="false"
     use_knot_distance="true"
     apply_no_radius="true"
     apply_with_radius="true"
     only_selected="false"
     hide_knots="false" /><inkscape:path-effect
     effect="fillet_chamfer"
     id="path-effect1"
     is_visible="true"
     lpeversion="1"
     nodesatellites_param="F,0,0,1,0,12.263458,0,1 @ F,0,0,1,0,0,0,1 @ F,0,0,1,0,0,0,1 @ F,0,0,1,0,0,0,1"
     radius="0"
     unit="px"
     method="auto"
     mode="F"
     chamfer_steps="1"
     flexible="false"
     use_knot_distance="true"
     apply_no_radius="true"
     apply_with_radius="true"
     only_selected="false"
     hide_knots="false" /><inkscape:path-effect
     effect="fillet_chamfer"
     id="path-effect3-7"
     is_visible="true"
     lpeversion="1"
     nodesatellites_param="F,0,0,1,0,4.863755,0,1 @ F,0,0,1,0,4.863755,0,1 @ F,0,0,1,0,4.8636613,0,1 @ F,0,0,1,0,4.8657959,0,1"
     radius="0"
     unit="px"
     method="auto"
     mode="F"
     chamfer_steps="1"
     flexible="false"
     use_knot_distance="true"
     apply_no_radius="true"
     apply_with_radius="true"
     only_selected="false"
     hide_knots="false" /><inkscape:path-effect
     effect="fillet_chamfer"
     id="path-effect3-75"
     is_visible="true"
     lpeversion="1"
     nodesatellites_param="C,0,0,1,0,4.863755,0,1 @ C,0,0,1,0,4.863755,0,1 @ C,0,0,1,0,4.8636613,0,1 @ C,0,0,1,0,4.8657959,0,1"
     radius="0"
     unit="px"
     method="auto"
     mode="C"
     chamfer_steps="1"
     flexible="false"
     use_knot_distance="true"
     apply_no_radius="true"
     apply_with_radius="true"
     only_selected="false"
     hide_knots="false" /><linearGradient
     inkscape:collect="always"
     xlink:href="#linearGradient1"
     id="linearGradient2"
     x1="4.8752956"
     y1="56.075455"
     x2="110.25435"
     y2="56.075455"
     gradientUnits="userSpaceOnUse"
     spreadMethod="repeat" /><linearGradient
     inkscape:collect="always"
     xlink:href="#linearGradient6"
     id="linearGradient4"
     x1="14.534451"
     y1="1.2646005"
     x2="14.534451"
     y2="27.845228"
     gradientUnits="userSpaceOnUse"
     gradientTransform="matrix(0.99933045,0,0,0.99866807,0.02736406,0.01655407)" /><linearGradient
     inkscape:collect="always"
     xlink:href="#linearGradient1"
     id="linearGradient5"
     x1="27.78129"
     y1="14.552082"
     x2="1.3228803"
     y2="14.552082"
     gradientUnits="userSpaceOnUse" /><linearGradient
     inkscape:collect="always"
     xlink:href="#linearGradient11"
     id="linearGradient12"
     x1="14.558857"
     y1="2.6487856"
     x2="14.558857"
     y2="26.453777"
     gradientUnits="userSpaceOnUse" /><linearGradient
     inkscape:collect="always"
     xlink:href="#linearGradient3"
     id="linearGradient7"
     x1="5.2574716"
     y1="7.0191703"
     x2="23.860237"
     y2="22.083393"
     gradientUnits="userSpaceOnUse" /><filter
     id="white-shadow"
     x="0"
     y="0"
     width="1"
     height="1"><feDropShadow
       dx="0"
       dy="0"
       stdDeviation="0.5"
       flood-color="#ffffff" /></filter><linearGradient
     inkscape:collect="always"
     xlink:href="#linearGradient31"
     id="linearGradient32"
     x1="14.822125"
     y1="5.0363903"
     x2="15.280301"
     y2="9.6902208"
     gradientUnits="userSpaceOnUse"
     gradientTransform="translate(0,-0.04960937)" /><linearGradient
     inkscape:collect="always"
     xlink:href="#linearGradient36"
     id="linearGradient35"
     gradientUnits="userSpaceOnUse"
     x1="14.026998"
     y1="8.26367"
     x2="14.531946"
     y2="12.356235"
     gradientTransform="rotate(180,14.600391,14.586164)" /><rect
     x="23.864855"
     y="79.372734"
     width="20.948036"
     height="6.0987954"
     id="rect1" /><rect
     x="23.864855"
     y="79.372734"
     width="22.627415"
     height="5.8336304"
     id="rect1-0" /><rect
     x="23.864855"
     y="79.372734"
     width="22.627415"
     height="5.8336304"
     id="rect4" /><rect
     x="23.864855"
     y="79.372734"
     width="22.627415"
     height="5.8336304"
     id="rect5" /><linearGradient
     inkscape:collect="always"
     xlink:href="#linearGradient8"
     id="linearGradient10"
     gradientUnits="userSpaceOnUse"
     x1="14.585327"
     y1="15.456903"
     x2="14.557616"
     y2="12.020484" /><rect
     x="23.864855"
     y="79.372734"
     width="22.627415"
     height="5.8336304"
     id="rect3" /></defs><path
   style="display:inline;opacity:1;fill:url(#linearGradient4);stroke:url(#linearGradient5);stroke-width:0.0264583;stroke-linejoin:miter;stroke-dasharray:none;stroke-opacity:1"
   id="rect2"
   width="26.431952"
   height="26.43195"
   x="1.336108"
   y="1.336108"
   sodipodi:type="rect"
   inkscape:path-effect="#path-effect7"
   d="m 2.6439841,1.336108 23.8151659,0 1.308909,1.3089094 V 26.460181 l -1.307876,1.307877 H 2.646051 L 1.336108,26.458115 V 2.6439841 Z"
   inkscape:label="button-gradient"
   sodipodi:insensitive="true" /><g
   inkscape:groupmode="layer"
   id="layer1"
   inkscape:label="button-border-white"
   sodipodi:insensitive="true"><path
     style="display:inline;fill:#ffffff;fill-opacity:0;stroke:#ffffff;stroke-width:1.50392;stroke-dasharray:none;stroke-opacity:0.745614"
     id="button-border-white"
     width="105.81932"
     height="99.870979"
     x="5.1323953"
     y="5.1323953"
     sodipodi:type="rect"
     transform="matrix(0.24625605,0,0,0.26110179,0.24950932,0.17375963)"
     d="M 9.9961503,5.1323953 H 106.08796 l 4.86376,4.863755 V 100.13971 l -4.86367,4.86366 H 9.9981912 L 5.1323953,100.13758 V 9.9961503 Z"
     inkscape:path-effect="#path-effect3-75"
     sodipodi:insensitive="true" /><path
     style="fill:#ffffff;fill-opacity:0.745098;stroke:#000000;stroke-width:0.0264583;stroke-opacity:0"
     d="m 2.7876039,27.395475 1.1792611,-0.0021 -2.2698403,-2.259504 0.00207,1.106086 z"
     id="path1-1"
     sodipodi:nodetypes="ccccc"
     inkscape:label="button-border-white-corner-bottomleft" /><path
     style="fill:#ffffff;fill-opacity:0.745098;stroke:#000000;stroke-width:0.0264583;stroke-opacity:0"
     d="m 27.389704,26.239967 v -1.106914 l -2.269839,2.261572 h 1.1805 z"
     id="path1-36"
     sodipodi:nodetypes="ccccc"
     inkscape:label="button-border-white-corner-bottomright" /><path
     style="fill:#ffffff;fill-opacity:0.745098;stroke:#000000;stroke-width:0.0264583;stroke-opacity:0"
     d="m 26.296799,1.7095055 -1.163757,0.00103 2.254336,2.3359849 V 2.8649903 Z"
     id="path1-3"
     sodipodi:nodetypes="ccccc"
     inkscape:label="button-border-white-corner-topright" /><path
     style="fill:#ffffff;fill-opacity:0.745098;stroke:#000000;stroke-width:0.0264583;stroke-opacity:0"
     d="M 1.6980876,2.8649414 V 3.9718547 L 3.967927,1.7102834 H 2.7874267 Z"
     id="path1"
     sodipodi:nodetypes="ccccc"
     inkscape:label="button-border-white-corner-topleft" /></g><path
   style="display:inline;opacity:1;fill:url(#linearGradient2);fill-opacity:0;fill-rule:nonzero;stroke:#000000;stroke-width:0.514217;stroke-dasharray:none;stroke-opacity:1"
   id="button-border-black"
   width="104.8648"
   height="101.88612"
   x="5.1323953"
   y="5.1323953"
   sodipodi:type="rect"
   d="M 9.9961503,5.1323953 H 105.13344 l 4.86375,4.863755 V 102.15486 l -4.86366,4.86366 -95.1353388,0 -4.8657959,-4.8658 V 9.9961503 Z"
   inkscape:path-effect="#path-effect3"
   transform="matrix(0.25105943,0,0,0.25838369,0.09989812,0.06231387)"
   inkscape:label="button-border-black"
   sodipodi:insensitive="true" /><path
   style="fill:#ffffff;fill-opacity:0.745098;stroke:#ffffff;stroke-width:0.0264583;stroke-dasharray:none;stroke-opacity:0.733333"
   d="M 2.8355626,2.8355626 26.262572,26.262572"
   id="path7"
   inkscape:label="button-line"
   sodipodi:insensitive="true" /><ellipse
   style="display:inline;fill:url(#linearGradient12);fill-opacity:0.745098;stroke:url(#linearGradient7);stroke-width:0.264583;stroke-dasharray:none;stroke-opacity:1"
   id="path10"
   cx="14.558857"
   cy="14.551282"
   rx="11.902496"
   ry="11.910072"
   inkscape:label="button-circle-gradient"
   sodipodi:insensitive="true" /><g
   inkscape:groupmode="layer"
   id="layer3"
   inkscape:label="icon-game"
   style="display:inline"
   sodipodi:insensitive="true"><path
     style="display:inline;fill:url(#linearGradient10);stroke-width:1.32292;stroke-opacity:0.733333"
     d="m 18.781283,19.56951 -1.054181,-1.845353 c -1.331185,1.058333 -3.175007,0.0013 -2.654109,-1.850792 l -1.050069,-0.0077 c 0.529167,1.860352 -1.322892,2.919968 -2.63754,1.861634 l -1.074902,1.833982 c -0.266214,0.272819 -2.1281375,0.809833 -2.3844526,-1.044543 0.0043,-1.849639 -0.0015,-1.84963 0.2724167,-3.966187 C 7.929506,11.112796 11.098475,10.58642 12.700422,11.650486 l 3.705056,-0.0034 c 1.590254,-1.064067 4.757937,-0.497872 4.488997,2.916496 0.264583,2.10013 0.26985,3.956572 0.26985,3.956572 -0.261818,1.856539 -2.101923,1.313978 -2.383042,1.049395 z"
     id="path3"
     inkscape:label="icon-game-gradient"
     sodipodi:nodetypes="cccccccccccccc"
     sodipodi:insensitive="true" /><path
     style="display:inline;fill:#ffffff;fill-opacity:0.94902;stroke-width:1.32292;stroke-opacity:0.733333"
     d="m 18.061358,17.359954 c -0.09697,0.153024 -0.112335,0.179369 -0.20664,0.280999 0.475076,0.759751 0.636764,1.546625 1.182634,1.881697 0.225618,0.138491 0.550493,0.207508 0.99895,0.16292 -1.300874,0.12733 -1.62918,-1.142375 -1.974944,-2.325616 z"
     id="path9"
     inkscape:label="icon-game-highlight-6"
     sodipodi:nodetypes="ccscc"
     sodipodi:insensitive="true" /><path
     style="display:inline;fill:#ffffff;fill-opacity:0.94902;stroke-width:1.32292;stroke-opacity:0.733333"
     d="M 8.429759,15.144123 C 8.344476,15.051593 8.2998845,14.984393 8.2640457,14.746925 8.0241405,16.7286 8.0294765,17.594064 8.1245611,18.487033 c 0.00294,-1.994956 0.083847,-2.925564 0.3051979,-3.34291 z"
     id="path8"
     inkscape:label="icon-game-highlight-5"
     sodipodi:nodetypes="cccc"
     sodipodi:insensitive="true" /><path
     style="display:inline;fill:#ffffff;fill-opacity:0.94902;stroke-width:1.32292;stroke-opacity:0.733333"
     d="m 10.132682,19.446015 c -0.6251584,0.292053 -1.3243452,0.335154 -1.7915,-0.516474 0.8929682,0.715203 1.4504808,0.900641 2.889153,-1.356586 -0.245789,0.458067 -0.746427,1.438211 -1.097653,1.87306 z"
     id="path6"
     inkscape:label="icon-game-highlight-4"
     sodipodi:nodetypes="cccc"
     sodipodi:insensitive="true" /><path
     style="display:inline;fill:#ffffff;fill-opacity:0.94902;stroke-width:1.32292;stroke-opacity:0.733333"
     d="m 20.274557,19.594843 c 0.358759,-0.204041 0.610418,-0.442059 0.713771,-0.971226 0.09095,-0.566373 -0.203165,-3.762641 -0.203165,-3.762641 0.151086,3.442898 0.01425,3.761583 -0.510606,4.733867 z"
     id="path15"
     inkscape:label="icon-game-highlight-3"
     sodipodi:nodetypes="cccc"
     sodipodi:insensitive="true" /><path
     style="display:inline;fill:#ffffff;fill-opacity:0.94902;stroke-width:1.32292;stroke-opacity:0.733333"
     d="m 16.009358,12.036989 c 0.08835,-0.125604 0.142977,-0.20107 0.280771,-0.273174 -0.12415,-0.0027 -3.475715,-0.0054 -3.475715,-0.0054 0.131096,0.08037 0.189243,0.147929 0.292854,0.277174 0.156643,1.34e-4 2.788226,0.0012 2.90209,0.0014 z"
     id="path5"
     inkscape:label="icon-game-highlight-2"
     sodipodi:nodetypes="ccccc"
     sodipodi:insensitive="true" /><path
     style="display:inline;fill:#ffffff;fill-opacity:0.94902;stroke-width:1.32292;stroke-opacity:0.733333"
     d="m 13.967167,15.731015 1.190564,0.0014 c 0.111084,-0.280633 0.25666,-0.416044 0.557756,-0.556361 -0.423873,-0.806819 -0.254364,-1.57545 -0.254364,-1.57545 0,0 -0.262531,0.862672 -0.0199,1.581794 l -1.426574,-0.0024 -0.617325,-10e-4 c 0.292327,0.140317 0.420753,0.280229 0.569839,0.552092 z"
     id="path14"
     inkscape:label="icon-game-highlight-1"
     sodipodi:nodetypes="ccccccccc"
     sodipodi:insensitive="true" /><path
     style="display:inline;fill:#ffffff;fill-opacity:0.94902;stroke-width:1.24105;stroke-opacity:0.733333"
     d="m 18.065823,16.386028 c -0.285281,3.060599 -4.610688,0.886059 -2.105471,-1.19985 0.0056,-0.0047 -0.0054,-0.0097 -0.0054,-0.0097 -0.792088,-1.470271 -0.08819,-3.762882 2.110084,-3.762882 3.488281,0 3.47906,4.972465 0.0018,4.972465 l -0.0062,-0.838522 c 0.716235,-0.0062 0.724322,-1.04362 0.01946,-1.04362 l 3.84e-4,-0.745817 0.546578,0.201121 c 0.0044,0.723506 1.055776,0.725791 1.0587,0.0067 0.0058,-0.689889 -1.056,-0.666654 -1.058923,-0.006 l -0.54473,-0.198648 -0.01155,-0.347278 c 0.711813,0.0014 0.719951,-1.070036 0.01106,-1.075883 -0.751278,0.0029 -0.712624,1.06965 -0.0081,1.075496 l 0.0082,0.344561 -0.555899,0.207214 c -0.0058,-0.669426 -1.043542,-0.677636 -1.043542,5.61e-4 0.003,0.719121 1.040804,0.720593 1.042265,1.8e-5 l 0.556626,-0.207175 3.67e-4,0.745535 c -0.690894,0.0022 -0.719714,1.035848 -0.01881,1.043049 l 0.0038,0.839052 -0.588642,0.284328 c -0.0031,-1.060704 -1.660012,-1.058575 -1.662708,-0.0058 0.0054,1.063307 1.650629,1.062646 1.663898,0.0054 z"
     id="path13"
     inkscape:label="icon-game-right-pad"
     sodipodi:nodetypes="csscccccccccccccccccccccccc"
     sodipodi:insensitive="true" /><path
     style="display:inline;fill:#ffffff;fill-opacity:0.94902;stroke-width:1.24105;stroke-opacity:0.733333"
     d="m 11.048167,16.386028 c 0.285281,3.060599 4.610688,0.886059 2.105471,-1.19985 -0.0056,-0.0047 0.0054,-0.0097 0.0054,-0.0097 0.792088,-1.470271 0.08819,-3.762882 -2.110084,-3.762882 -3.4882814,0 -3.479061,4.972465 -0.0018,4.972465 l -0.0095,-1.261392 -0.400621,-0.0027 -0.0037,-0.801745 -0.7412736,-0.0029 -0.00275,-0.614679 0.7465346,-0.0032 0.0046,-0.828548 0.594337,-0.0018 0.0088,0.848061 0.736285,0.0026 0.0042,0.602762 -0.743715,0.0033 -0.0053,0.798539 -0.221393,6.2e-5 0.03377,1.261922 0.588642,0.284328 c 0.0031,-1.060704 1.660012,-1.058575 1.662708,-0.0058 -0.0054,1.063307 -1.650629,1.062646 -1.663898,0.0054 z"
     id="path4"
     inkscape:label="icon-game-left-pad"
     sodipodi:nodetypes="cssccccccccccccccccccccc"
     sodipodi:insensitive="true" /></g><path
   style="display:inline;fill:#b35d09;fill-opacity:0.796078;stroke:none;stroke-width:0.0264583;stroke-dasharray:none;stroke-opacity:0.733333"
   d="M 8.0325845,22.535058 H 21.265885 c -5.465653,3.302868 -8.365953,3.047597 -13.2333005,0 z"
   id="path36"
   sodipodi:nodetypes="ccc"
   inkscape:label="button-text-background"
   sodipodi:insensitive="true" /><path
   style="display:inline;fill:url(#linearGradient35);fill-opacity:0.95;stroke:none;stroke-width:0.0264583;stroke-dasharray:none;stroke-opacity:0.733333"
   d="M 25.711591,13.082355 C 26.440164,28.004033 6.5103261,30.084991 3.6684911,16.455793 l 0.843359,-0.760677 c 0.47961,2.104041 0.747762,4.204165 3.529115,6.350831 l -0.0048,0.493256 c 6.1154189,3.847011 8.8413969,2.377184 13.2262869,0.01519 l 0.0067,-0.52173 c 2.092871,-1.462581 3.430871,-5.039874 3.402326,-6.497237 l -0.465929,-0.303746 -0.01504,-0.530672 z"
   id="path34"
   sodipodi:nodetypes="ccccccccccc"
   inkscape:label="button-arrow-bottom"
   sodipodi:insensitive="true">
    
       <animateTransform
   attributeName="transform"
   type="rotate"
   from="360 14.55 14.65"
   to="0 14.55 14.65"
   dur="30s"
   repeatCount="indefinite" />
    </path>
     
     <path
   style="display:inline;fill:url(#linearGradient32);fill-opacity:0.95;stroke:none;stroke-width:0.0264583;stroke-dasharray:none;stroke-opacity:0.733333"
   d="M 3.4891927,16.040365 C 2.7606196,1.1186866 22.690456,-0.96227099 25.532291,12.666927 l -0.843359,0.760677 C 24.209322,11.323563 23.94117,9.2234385 21.159817,7.0767731 l 0.0048,-0.4932566 C 15.049199,2.7365058 12.323221,4.2063329 7.9383309,6.5683273 L 7.931653,7.0900568 C 5.8387821,8.5526379 4.5007822,12.129931 4.5293272,13.587294 l 0.4659293,0.303746 0.015036,0.530672 z"
   id="path29"
   sodipodi:nodetypes="ccccccccccc"
   inkscape:label="button-arrow-top"
   sodipodi:insensitive="true">

       <animateTransform
   attributeName="transform"
   type="rotate"
   from="360 14.55 14.65"
   to="0 14.55 14.65"
   dur="30s"
   repeatCount="indefinite" />
    </path>
     
     <text
   xml:space="preserve"
   transform="matrix(0.26458333,0,0,0.26458333,5.2319468,1.9590301)"
   id="text1"
   style="font-size:4.5px;text-align:center;writing-mode:lr-tb;direction:ltr;white-space:pre;shape-inside:url(#rect1-0);display:none;fill:#ffd159;fill-opacity:1;stroke-width:5;stroke-opacity:0.733333"
   inkscape:label="button-label"
   x="11.313707"
   y="0"
   sodipodi:insensitive="true"><tspan
     x="28.46921"
     y="83.467485"
     id="tspan3"><tspan
       style="font-weight:900;font-family:'Inter Display';-inkscape-font-specification:'Inter Display Heavy';shape-inside:url(#rect1-0);display:inline"
       id="tspan2">GAME</tspan></tspan></text><path
   style="font-weight:900;font-size:4.5px;font-family:'Inter Display';-inkscape-font-specification:'Inter Display Heavy';text-align:center;white-space:pre;fill:#ffd159;stroke-width:5;stroke-opacity:0.733333"
   d="m 30.10721,81.586485 h 1.386 v 1.7325 q -0.2475,0.0855 -0.5715,0.1395 -0.3195,0.054 -0.6705,0.054 -0.4635,0 -0.8145,-0.18 -0.3465,-0.18 -0.5445,-0.549 -0.1935,-0.369 -0.1935,-0.9315 0,-0.504 0.1935,-0.873 0.1935,-0.369 0.567,-0.567 0.378,-0.2025 0.927,-0.2025 0.3015,0 0.5715,0.0585 0.27,0.054 0.468,0.144 l -0.2745,0.6795 q -0.171,-0.0855 -0.36,-0.126 -0.189,-0.045 -0.4005,-0.045 -0.288,0 -0.4635,0.1305 -0.1755,0.1305 -0.2565,0.3465 -0.0765,0.216 -0.0765,0.477 0,0.45 0.189,0.6885 0.189,0.234 0.54,0.234 0.0765,0 0.1845,-0.009 0.1125,-0.0135 0.171,-0.027 v -0.504 h -0.5715 z m 4.009499,1.881 -0.1575,-0.603 h -1.044 l -0.162,0.603 h -0.954 l 1.0485,-3.2265 h 1.1565 l 1.062,3.2265 z m -0.477,-1.8405 q -0.0225,-0.0855 -0.063,-0.243 -0.0405,-0.162 -0.081,-0.333 -0.0405,-0.171 -0.063,-0.279 -0.018,0.108 -0.0585,0.27 -0.036,0.162 -0.0765,0.3195 -0.036,0.1575 -0.063,0.2655 l -0.1395,0.5265 h 0.684 z m 3.172499,1.8405 -0.657,-2.313 h -0.018 q 0.009,0.09 0.018,0.243 0.009,0.153 0.018,0.333 0.009,0.1755 0.009,0.342 v 1.395 h -0.7695 v -3.213 h 1.1565 l 0.6705,2.2815 h 0.018 l 0.657,-2.2815 h 1.1565 v 3.213 h -0.7965 v -1.4085 q 0,-0.153 0.0045,-0.324 0.0045,-0.1755 0.0135,-0.3285 0.009,-0.1575 0.0135,-0.2475 h -0.018 l -0.648,2.3085 z m 4.860005,0 h -1.908 v -3.213 h 1.908 v 0.6975 h -1.0395 v 0.504 h 0.963 v 0.6975 h -0.963 v 0.6075 h 1.0395 z"
   id="text3"
   inkscape:label="button-label"
   transform="matrix(0.26458333,0,0,0.26458333,5.2319468,1.9590301)"
   aria-label="GAME"
   sodipodi:insensitive="true" /></svg>
