<svg width="600" height="600" xmlns="http://www.w3.org/2000/svg">
  <defs>
    <filter id="glow" filterUnits="userSpaceOnUse" x="-10" y="-10" width="604" height="70">
        <feGaussianBlur in="SourceGraphic" stdDeviation="1" result="blur"/>
        <feMerge>
          <feMergeNode in="blur"/>
          <feMergeNode in="SourceGraphic"/>
        </feMerge>
    </filter>

    <!-- Scanline animation -->
    <pattern id="scanline-pattern" patternUnits="userSpaceOnUse" width="584" height="8" patternTransform="translate(8,8)">
        <line x1="0" y1="0" x2="584" y2="0" stroke="#2B94FF" stroke-width="1" stroke-opacity="0.1" filter="url(#glow)" />
        <animateTransform attributeName="patternTransform" type="translate" from="0,0" to="0,8" dur="1s" repeatCount="indefinite"/>
    </pattern>

    <!-- Inner Glow Gradients -->
    <!-- Top: fade down -->
    <linearGradient id="glow-top" x1="0%" y1="0%" x2="0%" y2="60%">
        <stop offset="0%" stop-color="#60BEFF" stop-opacity="0.8"/>
        <stop offset="100%" stop-color="#33BBFF" stop-opacity="0.0"/>
    </linearGradient>

    <!-- Right: fade left -->
    <linearGradient id="glow-right" x1="100%" y1="0%" x2="40%" y2="0%">
        <stop offset="0%" stop-color="#60BEFF" stop-opacity="0.8"/>
        <stop offset="100%" stop-color="#33BBFF" stop-opacity="0.0"/>
    </linearGradient>

    <!-- Bottom: fade up -->
    <linearGradient id="glow-bottom" x1="0%" y1="100%" x2="0%" y2="40%">
        <stop offset="0%" stop-color="#60BEFF" stop-opacity="0.8"/>
        <stop offset="100%" stop-color="#33BBFF" stop-opacity="0.0"/>
    </linearGradient>

    <!-- Left: fade right -->
    <linearGradient id="glow-left" x1="0%" y1="0%" x2="60%" y2="0%">
        <stop offset="0%" stop-color="#60BEFF" stop-opacity="0.8"/>
        <stop offset="100%" stop-color="#33BBFF" stop-opacity="0.0"/>
    </linearGradient>

  </defs>

  <!-- Dark blue background -->
  <polygon points="0 0 600 0 600 600 0 600" 
           fill="#11294D"
           fill-opacity="0.6"
           stroke="#000000" 
           stroke-width="1" 
           stroke-linejoin="miter" />

  <!-- Scanline overlay -->
  <rect x="8" y="8" width="584" height="584" fill="url(#scanline-pattern)" clip-path="url(#dark-blue-clip)" />

  <!-- Inner Glow: Top edge -->
  <polygon points="0 0 600 0 564 36 36 36" fill="url(#glow-top)" />

  <!-- Inner Glow: Right edge -->
  <polygon points="600 0 600 600 564 564 564 36" fill="url(#glow-right)" />

  <!-- Inner Glow: Bottom edge -->
  <polygon points="600 600 0 600 36 564 564 564" fill="url(#glow-bottom)" />

  <!-- Inner Glow: Left edge -->
  <polygon points="0 600 0 0 36 36 36 564" fill="url(#glow-left)" />

</svg>