<?xml version="1.0" encoding="UTF-8"?>
<!DOCTYPE svg PUBLIC "-//W3C//DTD SVG 1.1//EN" "http://www.w3.org/Graphics/SVG/1.1/DTD/svg11.dtd">
<svg xmlns="http://www.w3.org/2000/svg" version="1.1" width="100px" height="100px" style="shape-rendering:geometricPrecision; text-rendering:geometricPrecision; image-rendering:optimizeQuality; fill-rule:evenodd; clip-rule:evenodd" xmlns:xlink="http://www.w3.org/1999/xlink">
<g><path style="opacity:1" fill="#f9faf9" d="M 47.5,8.5 C 50.2385,7.96478 52.0718,8.96478 53,11.5C 53.6667,15.1667 53.6667,18.8333 53,22.5C 50.6667,25.1667 48.3333,25.1667 46,22.5C 45.0344,17.6099 45.5344,12.9432 47.5,8.5 Z"/></g>
<g><path style="opacity:1" fill="#f9faf9" d="M 20.5,19.5 C 26.6792,20.4941 31.0126,23.9941 33.5,30C 32.0735,33.6968 29.7402,34.3635 26.5,32C 24.3333,29.8333 22.1667,27.6667 20,25.5C 19.3224,23.4024 19.4891,21.4024 20.5,19.5 Z"/></g>
<g><path style="opacity:1" fill="#f9faf9" d="M 73.5,19.5 C 78.6752,18.5071 80.5086,20.5071 79,25.5C 76.8333,27.6667 74.6667,29.8333 72.5,32C 68.132,34.5571 65.9653,33.3904 66,28.5C 68.3347,25.3347 70.8347,22.3347 73.5,19.5 Z"/></g>
<g><path style="opacity:1" fill="#f9faf9" d="M 45.5,28.5 C 62.3107,28.4765 70.4774,36.8099 70,53.5C 66.6595,66.0913 58.4928,71.5913 45.5,70C 29.3251,64.1393 24.8251,53.3059 32,37.5C 35.5282,32.8341 40.0282,29.8341 45.5,28.5 Z"/></g>
<g><path style="opacity:1" fill="#f9faf9" d="M 11.5,45.5 C 15.5705,45.2338 19.5705,45.5672 23.5,46.5C 25.4176,52.3277 23.2509,54.661 17,53.5C 14.3701,53.536 11.8701,53.036 9.5,52C 7.93285,49.0944 8.59952,46.9277 11.5,45.5 Z"/></g>
<g><path style="opacity:1" fill="#f9faf9" d="M 76.5,45.5 C 80.1817,45.3347 83.8484,45.5014 87.5,46C 91.5,48.3333 91.5,50.6667 87.5,53C 83.8333,53.6667 80.1667,53.6667 76.5,53C 73.9387,50.5103 73.9387,48.0103 76.5,45.5 Z"/></g>
<g><path style="opacity:1" fill="#f9faf9" d="M 28.5,65.5 C 33.3773,65.9626 34.544,68.296 32,72.5C 29.8333,74.6667 27.6667,76.8333 25.5,79C 20.3333,80.5 18.5,78.6667 20,73.5C 22.7291,70.6007 25.5624,67.934 28.5,65.5 Z"/></g>
<g><path style="opacity:1" fill="#f9faf9" d="M 67.5,65.5 C 72.2323,66.7102 76.0657,69.3768 79,73.5C 80.5,78.6667 78.6667,80.5 73.5,79C 70.0593,76.2324 67.3927,72.899 65.5,69C 65.9783,67.6974 66.645,66.5307 67.5,65.5 Z"/></g>
<g><path style="opacity:1" fill="#f9faf9" d="M 46.5,74.5 C 49.0792,74.0833 51.2458,74.75 53,76.5C 53.9956,81.2288 53.4956,85.7288 51.5,90C 48.7825,91.033 46.9492,90.1997 46,87.5C 45.2938,83.1132 45.4604,78.7799 46.5,74.5 Z"/></g>
</svg>
