<?xml version="1.0" standalone="no"?>
<!DOCTYPE svg PUBLIC "-//W3C//DTD SVG 20010904//EN"
 "http://www.w3.org/TR/2001/REC-SVG-20010904/DTD/svg10.dtd">
<svg version="1.0" xmlns="http://www.w3.org/2000/svg"
 width="100.000000pt" height="100.000000pt" viewBox="0 0 100.000000 100.000000"
 preserveAspectRatio="xMidYMid meet">

<g transform="translate(0.000000,100.000000) scale(0.100000,-0.100000)"
fill="#000000" stroke="none">
<path d="M513 925 c-176 -49 -295 -182 -326 -360 -46 -269 191 -526 463 -502
167 15 217 72 111 127 -54 28 -117 98 -148 165 -24 51 -28 73 -28 145 0 72 4
94 29 147 29 64 98 137 167 178 24 14 34 28 34 45 0 20 -9 28 -50 43 -67 25
-186 31 -252 12z m157 -71 c0 -3 -23 -32 -52 -63 -155 -170 -155 -412 0 -582
29 -31 52 -60 52 -64 0 -4 -31 -5 -68 -3 -134 10 -253 91 -309 212 -24 52 -28
74 -28 146 0 72 4 94 28 145 61 130 186 213 325 214 28 1 52 -2 52 -5z"/>
</g>
</svg>
