<svg width="900" height="150" xmlns="http://www.w3.org/2000/svg">
  <defs>
    <filter id="glow" filterUnits="userSpaceOnUse" x="-10" y="-10" width="910" height="70">
        <feGaussianBlur in="SourceGraphic" stdDeviation="1" result="blur"/>
        <feMerge>
          <feMergeNode in="blur"/>
          <feMergeNode in="SourceGraphic"/>
        </feMerge>
    </filter>

    <clipPath id="dark-blue-clip">
        <polygon points="13 8 887 8 892 13 892 137 887 142 13 142 8 137 8 13"/>
    </clipPath>

    <!-- Scanline animation -->
    <pattern id="scanline-pattern" patternUnits="userSpaceOnUse" width="884" height="8" patternTransform="translate(8,8)">
        <line x1="0" y1="0" x2="884" y2="0" stroke="#2B94FF" stroke-width="1" stroke-opacity="0.1" filter="url(#glow)" />
        <animateTransform attributeName="patternTransform" type="translate" from="0,0" to="0,8" dur="1s" repeatCount="indefinite"/>
    </pattern>

    <!-- Inner Glow Gradients -->
    <!-- Top: fade down -->
    <linearGradient id="glow-top" x1="0%" y1="0%" x2="0%" y2="60%">
        <stop offset="0%" stop-color="#60BEFF" stop-opacity="0.8"/>
        <stop offset="100%" stop-color="#33BBFF" stop-opacity="0.0"/>
    </linearGradient>

    <!-- Right: fade left -->
    <linearGradient id="glow-right" x1="100%" y1="0%" x2="40%" y2="0%">
        <stop offset="0%" stop-color="#60BEFF" stop-opacity="0.8"/>
        <stop offset="100%" stop-color="#33BBFF" stop-opacity="0.0"/>
    </linearGradient>

    <!-- Bottom: fade up -->
    <linearGradient id="glow-bottom" x1="0%" y1="100%" x2="0%" y2="40%">
        <stop offset="0%" stop-color="#60BEFF" stop-opacity="0.8"/>
        <stop offset="100%" stop-color="#33BBFF" stop-opacity="0.0"/>
    </linearGradient>

    <!-- Left: fade right -->
    <linearGradient id="glow-left" x1="0%" y1="0%" x2="60%" y2="0%">
        <stop offset="0%" stop-color="#60BEFF" stop-opacity="0.8"/>
        <stop offset="100%" stop-color="#33BBFF" stop-opacity="0.0"/>
    </linearGradient>
  </defs>

  <!-- Cyan border -->
  <path d="M5 0 L55 0 L60 5 L840 5 L845 0 L895 0 L900 5 L900 55 L895 60 L895 90 L900 95 L900 145 L895 150 L845 150 L840 145 L60 145 L55 150 L5 150 L0 145 L0 95 L5 90 L5 60 L0 55 L0 5 Z
           M13 8 L887 8 L892 13 L892 137 L887 142 L13 142 L8 137 L8 13 Z"
        fill="#DBF9FB"
        stroke="#000000"
        stroke-width="1"
        stroke-opacity="1"
        stroke-linejoin="miter"
        fill-rule="evenodd" />

  <!-- Dark blue background -->
  <polygon points="13 8 887 8 892 13 892 137 887 142 13 142 8 137 8 13"
           fill="#11294D"
           fill-opacity="0.6"
           stroke="#000000"
           stroke-width="1"
           stroke-linejoin="miter" />

  <!-- Scanline overlay -->
  <rect x="8" y="8" width="884" height="134" fill="url(#scanline-pattern)" clip-path="url(#dark-blue-clip)" />

  <!-- Inner Glow: Top edge -->
  <polygon points="11 11 13 9 887 9 889 11 864 36 36 36" fill="url(#glow-top)" />

  <!-- Inner Glow: Right edge -->
  <polygon points="889 11 891 13 891 137 889 139 864 114 864 36" fill="url(#glow-right)" />

  <!-- Inner Glow: Bottom edge -->
  <polygon points="889 139 887 141 13 141 11 139 36 114 864 114" fill="url(#glow-bottom)" />

  <!-- Inner Glow: Left edge -->
  <polygon points="11 139 9 137 9 13 11 11 36 36 36 114" fill="url(#glow-left)" />
</svg>