<svg width="400" height="600" xmlns="http://www.w3.org/2000/svg">
  <defs>
    <filter id="glow" filterUnits="userSpaceOnUse" x="-10" y="-10" width="410" height="70">
        <feGaussianBlur in="SourceGraphic" stdDeviation="1" result="blur"/>
        <feMerge>
          <feMergeNode in="blur"/>
          <feMergeNode in="SourceGraphic"/>
        </feMerge>
    </filter>

    <clipPath id="dark-blue-clip">
        <polygon points="13 8 387 8 392 13 392 587 387 592 13 592 8 587 8 13"/>
    </clipPath>

    <!-- Scanline animation -->
    <pattern id="scanline-pattern" patternUnits="userSpaceOnUse" width="384" height="8" patternTransform="translate(8,8)">
        <line x1="0" y1="0" x2="384" y2="0" stroke="#2B94FF" stroke-width="1" stroke-opacity="0.1" filter="url(#glow)" />
        <animateTransform attributeName="patternTransform" type="translate" from="0,0" to="0,8" dur="1s" repeatCount="indefinite"/>
    </pattern>

    <!-- Inner Glow Gradients -->
    <!-- Top: fade down -->
    <linearGradient id="glow-top" x1="0%" y1="0%" x2="0%" y2="60%">
        <stop offset="0%" stop-color="#60BEFF" stop-opacity="0.8"/>
        <stop offset="100%" stop-color="#33BBFF" stop-opacity="0.0"/>
    </linearGradient>

    <!-- Right: fade left -->
    <linearGradient id="glow-right" x1="100%" y1="0%" x2="40%" y2="0%">
        <stop offset="0%" stop-color="#60BEFF" stop-opacity="0.8"/>
        <stop offset="100%" stop-color="#33BBFF" stop-opacity="0.0"/>
    </linearGradient>

    <!-- Bottom: fade up -->
    <linearGradient id="glow-bottom" x1="0%" y1="100%" x2="0%" y2="40%">
        <stop offset="0%" stop-color="#60BEFF" stop-opacity="0.8"/>
        <stop offset="100%" stop-color="#33BBFF" stop-opacity="0.0"/>
    </linearGradient>

    <!-- Left: fade right -->
    <linearGradient id="glow-left" x1="0%" y1="0%" x2="60%" y2="0%">
        <stop offset="0%" stop-color="#60BEFF" stop-opacity="0.8"/>
        <stop offset="100%" stop-color="#33BBFF" stop-opacity="0.0"/>
    </linearGradient>
  </defs>

  <!-- Cyan border -->
  <path d="M5 0 L55 0 L60 5 L340 5 L345 0 L395 0 L400 5 L400 55 L395 60 L395 540 L400 545 L400 595 L395 600 L345 600 L340 595 L60 595 L55 600 L5 600 L0 595 L0 545 L5 540 L5 60 L0 55 L0 5 Z
           M13 8 L387 8 L392 13 L392 587 L387 592 L13 592 L8 587 L8 13 Z"
        fill="#DBF9FB"
        stroke="#000000"
        stroke-width="1"
        stroke-opacity="1"
        stroke-linejoin="miter"
        fill-rule="evenodd" />

  <!-- Dark blue background -->
  <polygon points="13 8 387 8 392 13 392 587 387 592 13 592 8 587 8 13"
           fill="#11294D"
           fill-opacity="0.6"
           stroke="#000000"
           stroke-width="1"
           stroke-linejoin="miter" />

  <!-- Scanline overlay -->
  <rect x="8" y="8" width="384" height="584" fill="url(#scanline-pattern)" clip-path="url(#dark-blue-clip)" />

  <!-- Inner Glow: Top edge -->
  <polygon points="11 11 13 9 387 9 389 11 364 36 36 36" fill="url(#glow-top)" />

  <!-- Inner Glow: Right edge -->
  <polygon points="389 11 391 13 391 587 389 589 364 564 364 36" fill="url(#glow-right)" />

  <!-- Inner Glow: Bottom edge -->
  <polygon points="389 589 387 591 13 591 11 589 36 564 364 564" fill="url(#glow-bottom)" />

  <!-- Inner Glow: Left edge -->
  <polygon points="11 589 9 587 9 13 11 11 36 36 36 564" fill="url(#glow-left)" />
</svg>