<svg width="750" height="150" xmlns="http://www.w3.org/2000/svg">
  <defs>
    <filter id="glow" filterUnits="userSpaceOnUse" x="-10" y="-10" width="760" height="70">
        <feGaussianBlur in="SourceGraphic" stdDeviation="1" result="blur"/>
        <feMerge>
          <feMergeNode in="blur"/>
          <feMergeNode in="SourceGraphic"/>
        </feMerge>
    </filter>

    <clipPath id="dark-blue-clip">
        <polygon points="13 8 737 8 742 13 742 137 737 142 13 142 8 137 8 13"/>
    </clipPath>

    <!-- Scanline animation -->
    <pattern id="scanline-pattern" patternUnits="userSpaceOnUse" width="734" height="8" patternTransform="translate(8,8)">
        <line x1="0" y1="0" x2="734" y2="0" stroke="#2B94FF" stroke-width="1" stroke-opacity="0.1" filter="url(#glow)" />
        <animateTransform attributeName="patternTransform" type="translate" from="0,0" to="0,8" dur="1s" repeatCount="indefinite"/>
    </pattern>

    <!-- Inner Glow Gradients -->
    <!-- Top: fade down -->
    <linearGradient id="glow-top" x1="0%" y1="0%" x2="0%" y2="60%">
        <stop offset="0%" stop-color="#60BEFF" stop-opacity="0.8"/>
        <stop offset="100%" stop-color="#33BBFF" stop-opacity="0.0"/>
    </linearGradient>

    <!-- Right: fade left -->
    <linearGradient id="glow-right" x1="100%" y1="0%" x2="40%" y2="0%">
        <stop offset="0%" stop-color="#60BEFF" stop-opacity="0.8"/>
        <stop offset="100%" stop-color="#33BBFF" stop-opacity="0.0"/>
    </linearGradient>

    <!-- Bottom: fade up -->
    <linearGradient id="glow-bottom" x1="0%" y1="100%" x2="0%" y2="40%">
        <stop offset="0%" stop-color="#60BEFF" stop-opacity="0.8"/>
        <stop offset="100%" stop-color="#33BBFF" stop-opacity="0.0"/>
    </linearGradient>

    <!-- Left: fade right -->
    <linearGradient id="glow-left" x1="0%" y1="0%" x2="60%" y2="0%">
        <stop offset="0%" stop-color="#60BEFF" stop-opacity="0.8"/>
        <stop offset="100%" stop-color="#33BBFF" stop-opacity="0.0"/>
    </linearGradient>
  </defs>

  <!-- Cyan border -->
  <path d="M5 0 L55 0 L60 5 L690 5 L695 0 L745 0 L750 5 L750 55 L745 60 L745 90 L750 95 L750 145 L745 150 L695 150 L690 145 L60 145 L55 150 L5 150 L0 145 L0 95 L5 90 L5 60 L0 55 L0 5 Z
           M13 8 L737 8 L742 13 L742 137 L737 142 L13 142 L8 137 L8 13 Z"
        fill="#DBF9FB"
        stroke="#000000"
        stroke-width="1"
        stroke-opacity="1"
        stroke-linejoin="miter"
        fill-rule="evenodd" />

  <!-- Dark blue background -->
  <polygon points="13 8 737 8 742 13 742 137 737 142 13 142 8 137 8 13"
           fill="#11294D"
           fill-opacity="0.6"
           stroke="#000000"
           stroke-width="1"
           stroke-linejoin="miter" />

  <!-- Scanline overlay -->
  <rect x="8" y="8" width="734" height="134" fill="url(#scanline-pattern)" clip-path="url(#dark-blue-clip)" />

  <!-- Inner Glow: Top edge -->
  <polygon points="11 11 13 9 737 9 739 11 714 36 36 36" fill="url(#glow-top)" />

  <!-- Inner Glow: Right edge -->
  <polygon points="739 11 741 13 741 137 739 139 714 114 714 36" fill="url(#glow-right)" />

  <!-- Inner Glow: Bottom edge -->
  <polygon points="739 139 737 141 13 141 11 139 36 114 714 114" fill="url(#glow-bottom)" />

  <!-- Inner Glow: Left edge -->
  <polygon points="11 139 9 137 9 13 11 11 36 36 36 114" fill="url(#glow-left)" />
</svg>