<?xml version="1.0" standalone="no"?>
<!DOCTYPE svg PUBLIC "-//W3C//DTD SVG 20010904//EN"
 "http://www.w3.org/TR/2001/REC-SVG-20010904/DTD/svg10.dtd">
<svg version="1.0" xmlns="http://www.w3.org/2000/svg"
 width="64.000000pt" height="64.000000pt" viewBox="0 0 64.000000 64.000000"
 preserveAspectRatio="xMidYMid meet">

<g transform="translate(0.000000,64.000000) scale(0.100000,-0.100000)" stroke="none">
  <!-- Clipboard top (unchanged) -->
  <path fill="#FFFFFF" d="M286 605 c-8 -8 -26 -15 -41 -15 -24 0 -26 -3 -23 -37 l3 -38 95 0
  95 0 3 38 c3 35 2 37 -26 37 -16 0 -35 7 -42 15 -7 8 -21 15 -31 15 -9 0 -24
  -7 -33 -15z m50 -26 c10 -17 -13 -36 -27 -22 -12 12 -4 33 11 33 5 0 12 -5 16
  -11z"/>
  <!-- Modified clipboard paper (made taller) -->
  <path fill="#FFFFFF" d="M110 400 l0 -350 210 0 210 0 0 350 0 350 -45 0 c-41 0 -45 -2 -45
  -25 0 -20 5 -25 25 -25 l25 0 -0 -275 c0 -274 0 -275 -23 -280 -12 -4 -27 -16
  -32 -28 -10 -21 -17 -22 -147 -25 l-138 -3 0 306 0 305 25 0 c20 0 25 5 25 25
  0 23 -4 25 -45 25 l-45 0 0 -350z"/>
  <!-- Content paths (scaled by 0.65 and translated to x=110, y=400) -->
  <path fill="#000000" d="M175.5 400 l0 -175.5 136.5 0 136.5 0 0 175.5 0 175.5 -136.5 0 -136.5 0 0 -175.5z
  m96.2 125.45 c2.6 -18.85 -14.95 -33.15 -27.95 -22.1 -10.4 8.45 -13 27.3 -5.2 35.1 9.1 9.1 31.2 0.65 33.15 -13z
  m143.3 -18.85 c0 -7.8 -9.75 -9.75 -48.75 -9.75 -39 0 -48.75 1.95 -48.75 9.75 0 7.8 9.75 9.75 48.75 9.75
  39 0 48.75 -1.95 48.75 -9.75z m-125.45 -32.5 c12.35 -9.75 12.35 -9.75 -3.25 -22.75 -8.45 -7.15 -23.4 -13
  -33.15 -13 -9.75 0 -24.7 5.85 -33.15 13 -15.6 13 -15.6 13 -3.25 22.75 7.15 5.2 23.4 9.75 36.4 9.75
  13 0 29.25 -4.55 36.4 -9.75z m106.6 -13 c0 -7.8 -8.45 -9.75 -39 -9.75 -30.55 0 -39 1.95 -39 9.75 0 7.8
  8.45 9.75 39 9.75 30.55 0 39 -1.95 39 -9.75z m26 -130 l0 -81.25 -110.5 0 -110.5 0 0 81.25 0 81.25 110.5 0
  110.5 0 0 -81.25z"/>
  <path fill="#000000" d="M175.5 285 c0 -5.85 5.85 -9.75 16.25 -9.75 10.4 0 16.25 3.9 16.25 9.75 0 5.85 -5.85
  9.75 -16.25 9.75 -10.4 0 -16.25 -3.9 -16.25 -9.75z"/>
  <path fill="#000000" d="M214.5 285 c0 -7.8 11.05 -9.75 58.5 -9.75 47.45 0 58.5 1.95 58.5 9.75 0 7.8 -11.05
  9.75 -58.5 9.75 -47.45 0 -58.5 -1.95 -58.5 -9.75z"/>
  <path fill="#000000" d="M175.5 224.25 c0 -5.85 5.85 -9.75 16.25 -9.75 10.4 0 16.25 3.9 16.25 9.75 0 5.85
  -5.85 9.75 -16.25 9.75 -10.4 0 -16.25 -3.9 -16.25 -9.75z"/>
  <path fill="#000000" d="M214.5 224.25 c0 -7.8 11.05 -9.75 58.5 -9.75 47.45 0 58.5 1.95 58.5 9.75 0 7.8
  -11.05 9.75 -58.5 9.75 -47.45 0 -58.5 -1.95 -58.5 -9.75z"/>
  <path fill="#000000" d="M175.5 163.5 c0 -5.85 5.85 -9.75 16.25 -9.75 10.4 0 16.25 3.9 16.25 9.75 0 5.85
  -5.85 9.75 -16.25 9.75 -10.4 0 -16.25 -3.9 -16.25 -9.75z"/>
  <path fill="#000000" d="M214.5 163.5 c0 -7.8 9.1 -9.75 45.5 -9.75 36.4 0 45.5 1.95 45.5 9.75 0 7.8 -9.1
  9.75 -45.5 9.75 -36.4 0 -45.5 -1.95 -45.5 -9.75z"/>
</g>
</svg>